<svg width="289" height="165" viewBox="0 0 289 165" fill="none" xmlns="http://www.w3.org/2000/svg">
<path fill-rule="evenodd" clip-rule="evenodd" d="M125.952 15.1579C125.524 14.7931 125.096 14.4288 124.669 14.0642C125.741 14.3114 126.245 14.4694 125.952 15.1579ZM128.58 16.0668C128.431 16.388 126.97 15.5986 126.699 15.4805C127.594 15.2038 127.835 15.8614 128.58 16.0668ZM123.723 14.5511C123.676 14.2014 123.63 13.8518 123.583 13.502C124.391 14.3129 123.821 13.8843 124.665 14.0635C124.58 14.372 124.224 14.5531 123.723 14.5511ZM131.043 19.6946C136.029 23.1036 138.147 27.9479 137.944 32.0006C137.827 34.3292 136.724 36.1876 134.991 38.0017C134.323 38.7013 133.192 39.3741 132.681 40.1053C132.288 40.6683 132.349 40.6619 132.772 41.4547C131.971 41.3742 131.645 41.0371 130.942 41.2704C130.065 41.5617 130.431 42.0008 130.865 42.524C130.014 42.5903 129.6 42.5888 128.906 42.8526C128.928 42.8444 128.556 43.2422 128.579 43.2293C128.476 43.2859 127.598 43.5124 127.389 43.612C126.531 44.0202 125.818 44.6147 124.833 44.9073C123.972 45.1636 122.326 44.9663 122.899 45.9392C121.197 45.1976 119.392 46.1964 117.985 46.4201C115.786 46.7697 113.084 46.6312 110.688 46.2385C108.132 45.8196 105.95 45.1002 103.558 44.3824C101.886 43.8808 98.7551 44.0045 97.7603 42.6764C98.5396 42.8032 99.1416 43.1657 99.9472 43.1632C99.3558 42.5868 98.5827 42.0745 97.8095 41.5934C97.4309 41.3576 96.4441 40.5177 96.0477 40.3913C95.2368 40.1322 94.7487 40.6455 94.0739 39.9487C95.754 39.8463 94.1217 38.4606 92.9171 38.5662C93.1761 38.9906 93.6177 39.2975 94.0874 39.646C91.4552 39.3191 93.5395 37.9557 91.3135 37.4821C91.6195 36.7863 91.645 36.3207 90.7878 35.6315C89.8337 34.8648 89.4199 34.9423 89.1371 34.0228C89.0401 33.7066 89.135 32.9735 88.785 32.6791C88.1092 32.1102 87.429 32.5114 87.0138 31.7191C87.6056 31.7708 89.0208 31.5836 88.4167 30.8797C88.2966 30.7391 87.9447 30.956 87.7085 30.5835C87.3593 30.0322 87.0507 29.4511 87.5913 29.0121C85.548 28.6554 87.5151 26.0986 87.6491 25.2825C87.7839 24.4648 87.9758 23.8049 88.4541 23.0842C88.9318 22.3642 88.6113 22.1782 88.3782 21.2906C89.4452 21.6893 89.3381 21.4503 89.8692 21.1134C89.6526 20.8823 89.705 20.765 90.0266 20.762C90.2885 20.7335 90.4777 20.6415 90.5946 20.4868C90.8077 20.2676 90.9734 19.9857 91.1834 19.7502C91.6755 19.197 92.0811 18.5818 92.5658 18.04C92.6437 17.8798 92.6689 17.7092 92.6416 17.5272C92.857 17.5501 93.073 17.573 93.2886 17.5963C93.5985 17.3324 94.259 17.5896 93.8596 16.9247C94.8411 17.2075 94.6338 16.6999 95.1472 16.483C95.6158 16.2854 96.0083 16.3926 96.4832 16.2286C96.8871 16.1609 97.0817 15.9842 97.0679 15.6986C97.4846 15.6144 97.8966 15.524 98.3035 15.4276C98.98 15.2179 99.5703 14.8804 100.187 14.6174C100.592 14.4402 101.003 14.268 101.42 14.101C101.967 14.3289 102.274 14.274 102.341 13.9363C102.901 13.849 102.944 13.7747 103.748 13.8037C105.571 13.8697 107.036 13.8621 108.83 13.7243C116.63 13.1257 124.932 15.5172 131.043 19.6946ZM109.105 8.89996C104.89 8.86766 99.7619 9.18778 96.3874 10.0133C94.6765 10.4315 91.8863 10.8491 90.4839 11.6614C90.1514 11.854 89.9281 12.106 89.593 12.2917C89.3341 12.4352 88.9107 12.39 88.6698 12.5773C88.5014 12.7083 89.0747 12.9809 88.887 13.1163C88.4937 13.3989 87.7382 13.3573 87.179 13.4342C88.2778 14.6022 85.4862 13.7587 86.5853 15.2495C83.422 15.0737 82.21 17.3732 81.1484 18.8325C80.8333 19.2652 80.9287 19.5746 80.8103 20.0284C80.7 20.4507 80.6252 20.4646 80.3039 20.8382C79.5034 21.7684 79.0104 22.689 79.0031 23.8683C78.9905 25.8494 79.7542 28.0061 80.0514 30.0226C80.3835 32.2764 81.2888 34.5721 82.6805 36.7924C87.7134 44.8198 99.342 51.4506 112.205 52.4093C132.634 53.9316 146.065 40.7345 141.939 28.1381C138.751 18.406 124.501 9.017 109.105 8.89996Z" fill="#61B3FF" fill-opacity="0.55"/>
<path fill-rule="evenodd" clip-rule="evenodd" d="M236.232 48.8155C246.003 53.1037 257.211 56.0331 267.422 59.895C269.978 60.8617 277.941 62.8687 277.864 64.6617C277.819 65.7101 275.426 67.0246 274.378 67.7512C272.583 68.9958 270.894 70.2535 269.238 71.5702C261.655 77.5996 254.515 83.6859 246.297 89.4125C245.06 90.2738 241.332 94.3868 240.129 92.344C239.584 91.4178 240.033 90.377 238.612 89.5136C237.88 89.0688 235.053 88.8236 235.876 87.8696C236.425 88.0221 236.975 88.175 237.524 88.3271C237.097 87.5647 237.129 86.7295 236.489 86.0088C236.092 85.5611 235.315 85.3492 235.046 84.845C234.674 84.1484 235.305 83.3388 235.199 82.6207C235.095 81.9047 234.494 81.2278 234.136 80.5522C232.009 76.5474 231.247 72.5103 230.158 68.3783C229.081 64.2898 227.403 60.3293 226.744 56.1952C226.048 51.8287 225.195 47.471 224.057 43.1394C226.088 43.3155 227.65 44.6789 229.086 45.4497C231.344 46.661 233.796 47.7465 236.232 48.8155ZM228.571 91.0897C228.105 90.8635 227.74 90.5855 227.477 90.2561C232.266 88.7904 229.377 91.291 228.571 91.0897ZM225.659 87.9636C223.571 88.3191 222.072 88.3911 220.462 87.8604C220.309 87.8102 220.485 87.4223 220.21 87.3427C219.969 87.2736 219.602 87.3591 219.396 87.2943C218.695 87.074 217.468 87.5567 217.348 86.7134C220.013 86.2097 222.633 85.2801 225.446 85.1234C229.355 84.9061 229.174 87.3646 225.659 87.9636ZM216.513 83.103C213.664 83.5145 211.318 84.4756 208.291 84.2246C205.45 83.9896 202.982 83.0794 200.741 82.0306C206.347 81.05 212.226 80.8731 217.827 79.9246C219.651 79.6159 222.047 78.8017 224.013 79.1298C226.196 79.4946 226.334 80.7581 226.988 81.908C223.494 82.2964 219.972 82.6034 216.513 83.103ZM198.698 78.2238C195.961 78.6277 193.164 79.511 190.876 77.9867C190.506 77.7407 190.183 77.9863 190.227 77.2285C190.273 76.4295 191.447 75.9148 192.456 75.6334C194.83 74.9722 198.158 75.3997 200.679 75.3024C204.701 75.1478 208.794 74.6314 212.772 74.2338C215.526 73.9588 218.371 73.348 221.186 73.4685C223.359 73.5616 225.981 74.706 222.814 75.5408C219.93 76.3015 215.604 76.1848 212.479 76.5142C207.86 77.0011 203.257 77.5507 198.698 78.2238ZM196.025 70.2699C196.202 70.3816 196.379 70.4932 196.556 70.6048C196.527 70.6006 197.606 70.061 197.891 70.0454C199.279 69.9709 200.674 70.0299 202.064 69.9814C205.265 69.8698 208.492 69.5253 211.636 69.1458C214.197 68.8366 216.806 68.3038 219.443 68.4373C221.725 68.5527 221.965 68.8417 222.115 70.2026C216.288 70.2026 210.287 70.1267 204.561 70.8887C200.833 71.3844 196.725 72.8611 194.857 70.1992C195.247 70.2228 195.635 70.2464 196.025 70.2699ZM199.667 64.5084C201.112 65.1882 205.05 64.0577 206.782 63.9448C208.662 63.8218 210.431 63.6942 212.254 63.4049C213.869 63.1479 219.215 61.865 220.454 63.0919C222.354 64.9717 214.661 65.3167 213.441 65.4098C208.326 65.8002 203.019 66.1464 198.041 66.9753C198.583 66.1532 199.125 65.331 199.667 64.5084ZM206.684 58.1235C207.057 58.9924 218.625 55.7905 218.836 58.1176C218.998 59.903 207.391 60.7926 205.304 60.6359C205.793 59.8137 207.093 59.0775 206.684 58.1235ZM210.568 52.6618C210.814 50.9092 211.194 50.9193 213.469 50.7542C215.204 50.6283 217.589 49.9999 217.138 51.9104C216.751 53.5463 210.32 54.4304 210.568 52.6618ZM214.703 46.6316C215.25 45.6906 216.482 46.9571 216.508 47.4356C216.577 48.7089 215.014 48.4334 213.51 48.4334C213.929 47.8387 214.327 47.2372 214.703 46.6316ZM233.742 39.5685C233.435 39.3402 231.713 39.253 231.223 39.1423C230.017 38.8693 230.188 38.2876 228.646 38.8613C228.569 38.8133 228.716 38.382 228.632 38.3622C228.59 38.3521 227.509 38.1002 227.158 37.9612C226.311 37.6259 225.547 37.2978 224.769 36.8771C223.941 36.4302 223.112 35.7815 222.166 35.4256C221.767 35.2757 221.442 35.063 220.961 35.0171C219.714 34.8983 220.071 35.4349 218.981 35.5414C218.31 35.6072 217.821 35.1228 216.943 35.3317C216.184 35.512 215.744 36.1695 215.405 36.5607C214.176 37.9848 213.228 39.5175 212.025 40.9568C205.871 48.3163 198.877 55.3966 192.916 62.8249C190.046 66.4034 187.05 70.0067 185.029 73.8097C183.572 76.5525 180.282 80.5594 183.113 83.3001C185.171 85.2928 189.292 86.1533 192.58 87.1161C197.528 88.565 202.089 90.4587 207.091 91.8634C213.055 93.5385 218.848 95.2907 224.662 97.1612C227.141 97.959 229.379 99.108 231.85 99.8636C233.361 100.326 235.696 99.5372 236.188 100.596C238.083 99.1787 241.149 100.124 243.341 99.1257C244.63 98.5385 245.572 97.3819 246.647 96.6587C248.26 95.5746 250.011 94.5688 251.657 93.5035C258.189 89.2726 264.22 84.8661 270.163 80.3218C275.839 75.9822 282.471 71.8823 287.265 67.132C289.17 65.2463 289.515 63.2688 288.258 61.1856C287.34 59.6659 285.13 57.3712 281.973 58.3775C283.17 57.1492 278.552 55.8376 277.151 55.5976C277.13 55.5942 276.854 56.5377 276.463 56.5141C276.602 56.5225 275.289 54.4237 274.712 54.1545C273 53.3538 270.916 52.4196 269.048 51.7605C267.334 51.156 265.525 50.8566 263.865 50.1801C261.852 49.3605 260.005 48.3884 257.985 47.5742C256.034 46.7882 253.86 45.8591 251.705 45.3187C249.835 44.8499 248.157 44.7581 246.475 43.9898C244.394 43.0392 242.579 42.3943 240.18 41.7394C238.104 41.1728 235.227 40.6779 233.742 39.5685Z" fill="#61B3FF" fill-opacity="0.55"/>
<path fill-rule="evenodd" clip-rule="evenodd" d="M3.8431 122.754C4.01659 123.283 4.44388 123.543 5.17112 123.668C6.37137 123.876 7.68741 123.908 8.91206 124.015C11.1497 124.211 13.4632 124.292 15.6578 124.674C17.7122 125.03 19.7666 125.563 21.6217 126.296C21.0152 124.21 20.3274 122.185 20.5821 120.037C20.7694 118.46 20.8213 116.084 23.0381 115.172C23.5514 114.961 24.3639 115.041 24.934 115.019C25.6759 114.99 26.4187 114.965 27.1606 114.936C28.6284 114.878 30.0887 114.766 31.552 114.664C34.4375 114.461 37.3017 114.209 40.1694 113.906C40.6437 113.856 41.4952 113.894 41.8124 113.598C42.0467 113.38 41.9349 113.037 41.9171 112.793C41.8572 111.948 41.9043 111.106 42.0503 110.268C42.3693 108.432 43.0743 106.625 43.8628 104.868C44.2622 103.98 44.689 103.098 45.091 102.211C45.2849 101.782 45.7357 101.197 45.0915 100.89C44.689 100.698 43.9862 100.7 43.5181 100.616C42.9612 100.516 42.4185 100.385 41.8741 100.257C40.5882 99.9526 39.3041 99.6444 38.0196 99.3369C33.1383 98.1678 28.2135 97.0763 23.3465 95.8842C22.6654 95.7175 21.9887 95.5428 21.308 95.3761C21.013 95.3043 20.5005 95.1187 20.1828 95.2187C19.8114 95.3362 19.8833 95.6303 19.6166 95.8053C19.3837 95.9579 18.8565 95.9691 18.5566 96.0933C17.7952 96.4092 17.3182 96.96 16.7205 97.4046C15.952 97.9765 15.0925 98.4788 14.3338 99.0613C11.2708 101.412 9.00435 104.243 7.08574 107.137C6.56926 107.917 6.23337 108.723 5.91035 109.553C5.60508 110.337 5.21461 111.105 5.04112 111.913C4.6369 113.8 4.62224 115.742 4.29789 117.641C4.02678 119.232 3.32041 121.16 3.8431 122.754ZM23.3007 118.492C23.3074 119.749 23.3993 121.014 23.7822 122.244C24.1766 123.513 24.8892 124.727 25.5251 125.94C26.125 127.085 26.6104 128.265 27.3061 129.381C27.9926 130.483 28.872 131.488 29.4227 132.632C30.5524 134.977 32.4869 137.035 33.8562 139.299C35.2553 141.614 36.8131 143.825 38.5516 146.019C39.3782 147.063 40.1454 148.218 41.1908 149.158C41.7099 149.625 42.3032 150.09 42.9031 150.503C43.4262 150.864 43.6773 150.589 44.3101 150.67C45.2326 150.789 45.7082 151.65 46.305 152.092C47.4365 152.931 48.5919 153.759 49.8312 154.515C51.1002 155.288 52.5023 155.935 53.8042 156.68C55.0466 157.391 56.2877 158.033 57.708 158.552C60.5127 159.576 63.7371 160.832 66.9731 160.725C68.4622 160.675 69.2596 159.979 69.8834 159.048C70.5437 158.064 70.3209 156.883 70.21 155.827C70.0773 154.56 69.6514 153.442 68.7116 152.367C67.7851 151.308 68.6983 150.65 69.6217 149.767C71.6818 147.795 74.427 146.26 76.9309 144.594C78.2234 143.734 79.5049 142.864 80.7855 141.995C81.4932 141.514 82.2 141.032 82.9064 140.551C83.4246 140.198 83.9238 139.96 84.1106 139.464C82.7018 138.918 81.2332 138.453 79.9349 137.77C77.2846 136.377 74.8526 134.676 72.3545 133.143C71.1542 132.406 70.206 131.493 69.2418 130.603C68.3114 129.743 67.2451 128.931 66.442 128.004C64.7151 126.009 62.7454 124.034 61.3761 121.895C60.6937 120.829 60.341 119.741 59.9838 118.603C59.7686 117.917 59.521 117.237 59.2796 116.556C59.1238 116.117 59.0791 115.36 58.6881 114.998C57.968 114.33 55.7055 115.409 54.8766 115.598C53.3165 115.955 51.6908 116.125 50.0774 116.304C46.6551 116.684 43.2088 117.009 39.8082 117.481C38.0267 117.729 36.2412 118.003 34.433 118.132C32.6808 118.257 30.9188 118.192 29.1626 118.183C28.7864 118.18 28.3271 118.228 28.0746 117.98C27.9309 117.838 28.0272 117.662 27.796 117.529C27.4943 117.356 27.1003 117.449 26.7542 117.475C26.0513 117.529 25.3463 117.56 24.6439 117.623C24.3408 117.65 23.7374 117.613 23.4782 117.728C23.2053 117.849 23.2994 118.214 23.3007 118.492ZM72.5595 152.238C73.3786 153.425 73.8515 155.085 73.8764 156.4C73.8897 157.106 73.7601 157.81 73.5587 158.5C73.3839 159.101 72.9047 159.794 73.0551 160.4C75.1325 159.709 77.1736 158.966 79.2923 158.343C81.1231 157.804 82.4982 156.867 84.0046 155.977C85.6224 155.02 87.0866 153.955 88.6409 152.948C90.3088 151.867 92.0486 150.845 93.745 149.789C96.7653 147.907 99.3011 145.793 101.781 143.545C103.96 141.569 107.085 139.048 106.939 136.375C106.87 135.134 106.743 133.722 105.897 132.612C105.194 131.689 103.922 130.655 102.733 130.038C101.589 129.445 100.467 130.935 99.8238 131.459C98.4394 132.586 97.0275 133.695 95.6232 134.809C92.952 136.929 90.4171 139.154 87.5281 141.124C84.616 143.109 81.6387 145.051 78.503 146.851C76.9331 147.752 75.2035 148.592 73.7788 149.612C73.2556 149.987 72.24 150.4 71.8908 150.867C71.5163 151.371 72.2671 151.814 72.5595 152.238ZM1.08895 122.972C1.52911 122.931 1.50826 122.973 1.54554 122.663C1.60366 122.182 1.37737 121.614 1.30949 121.132C0.985132 118.839 1.14 116.437 1.41821 114.143C1.96442 109.638 3.2556 105.21 6.53153 101.302C8.0437 99.4982 9.75377 97.797 11.8973 96.3514C12.8855 95.6852 13.8501 94.9677 14.943 94.3893C15.4914 94.0987 16.2897 93.9522 16.7888 93.6549C17.0586 93.4939 17.178 93.1663 17.4056 92.9609C18.3148 92.1418 19.3415 91.9304 20.7916 92.0186C22.2962 92.1105 23.8727 92.4497 25.3241 92.739C28.4119 93.355 31.3736 94.4018 34.3647 95.2279C37.3695 96.0576 40.3402 96.9418 43.3033 97.8443C44.5914 98.2364 46.1462 98.5446 47.2896 99.1367C47.9805 99.4943 48.1837 99.9385 48.1096 100.533C47.8469 102.635 46.762 104.723 45.9367 106.733C45.0502 108.892 44.3278 111.092 44.1015 113.343C47.1627 113.182 50.2052 113.015 53.2522 112.738C54.7764 112.599 56.3085 112.486 57.8295 112.335C58.6162 112.258 58.9832 112.046 59.6155 111.753C60.1706 111.495 60.4568 111.713 60.6937 112.105C61.9259 114.141 62.4113 116.362 63.746 118.383C64.345 119.29 65.0931 120.137 65.7161 121.036C66.3936 122.013 67.211 122.974 68.0602 123.878C68.4547 124.298 68.9609 124.637 69.398 125.031C69.8031 125.395 70.0942 125.814 70.466 126.196C71.2438 126.992 72.1863 127.695 73.1403 128.381C74.0978 129.071 75.0256 129.771 75.9401 130.489C76.8395 131.195 77.9128 131.769 78.8633 132.436C79.7578 133.064 80.5365 133.747 81.4541 134.362C82.338 134.955 82.752 135.777 83.7029 136.31C84.2154 136.598 84.7842 136.829 85.2945 137.118C85.716 137.357 86.1561 137.776 86.7547 137.696C87.4189 137.606 87.9532 136.964 88.3685 136.633C88.904 136.207 89.4432 135.782 89.9858 135.36C92.1165 133.702 94.3018 132.076 96.4507 130.429C97.501 129.623 98.6564 128.892 99.68 128.069C100.426 127.468 101.647 127.041 102.692 127.452C103.746 127.866 105.012 128.231 105.865 128.853C106.79 129.527 107.527 130.404 108.28 131.177C109.065 131.982 109.376 132.934 109.581 133.891C109.799 134.911 110.027 135.922 109.919 136.958C109.714 138.918 109.207 141.106 107.63 142.757C106.879 143.544 105.849 144.135 104.929 144.812C103.932 145.546 103.219 146.429 102.397 147.262C100.748 148.933 98.7216 150.429 96.6552 151.834C95.6698 152.505 94.5538 153.07 93.563 153.742C92.5057 154.461 91.4345 155.109 90.2414 155.706C89.0207 156.317 88.0126 157.113 86.9096 157.823C85.7737 158.554 84.6107 159.236 83.3603 159.863C80.9616 161.066 78.5225 161.849 75.7338 162.454C72.6619 163.12 69.6887 163.992 66.6337 164.688C65.1699 165.022 63.7211 164.561 62.327 164.223C60.9054 163.879 59.5103 163.471 58.2014 162.94C55.5462 161.864 52.9962 160.616 50.3845 159.482C47.6681 158.303 45.3994 156.952 43.3242 155.227C41.3465 153.582 39.2535 151.95 37.4525 150.203C33.7963 146.656 31.5853 142.461 28.8716 138.533C27.4291 136.445 25.967 134.39 24.7672 132.22C24.1771 131.153 23.6491 130.067 23.0465 129.003C22.7914 128.553 22.5806 128.377 21.8968 128.301C21.107 128.212 20.2995 128.173 19.5066 128.105C16.3682 127.836 13.3048 127.437 10.1944 127.05C7.30803 126.692 4.40395 126.322 1.82332 125.268C1.28066 125.046 0.629721 124.785 0.334209 124.371C0.199764 124.182 -0.131234 123.222 0.0560127 123.068C0.165166 122.978 0.901258 122.989 1.08895 122.972Z" fill="#61B3FF" fill-opacity="0.55"/>
</svg>
