<svg width="1120" height="387" viewBox="0 0 1120 387" fill="none" xmlns="http://www.w3.org/2000/svg">
<rect width="1120" height="387" rx="50" fill="#61B3FF" fill-opacity="0.24"/>
<path fill-rule="evenodd" clip-rule="evenodd" d="M793.952 113.158C793.524 112.793 793.096 112.429 792.669 112.064C793.741 112.311 794.245 112.469 793.952 113.158ZM796.58 114.067C796.431 114.388 794.97 113.599 794.699 113.48C795.594 113.204 795.835 113.861 796.58 114.067ZM791.723 112.551C791.676 112.201 791.63 111.852 791.583 111.502C792.391 112.313 791.821 111.884 792.665 112.063C792.58 112.372 792.224 112.553 791.723 112.551ZM799.043 117.695C804.029 121.104 806.147 125.948 805.944 130.001C805.827 132.329 804.724 134.188 802.991 136.002C802.323 136.701 801.192 137.374 800.681 138.105C800.288 138.668 800.349 138.662 800.772 139.455C799.971 139.374 799.645 139.037 798.942 139.27C798.065 139.562 798.431 140.001 798.865 140.524C798.014 140.59 797.6 140.589 796.906 140.853C796.928 140.844 796.556 141.242 796.579 141.229C796.476 141.286 795.598 141.512 795.389 141.612C794.531 142.02 793.818 142.615 792.833 142.907C791.972 143.164 790.326 142.966 790.899 143.939C789.197 143.198 787.392 144.196 785.985 144.42C783.786 144.77 781.084 144.631 778.688 144.238C776.132 143.82 773.95 143.1 771.558 142.382C769.886 141.881 766.755 142.004 765.76 140.676C766.54 140.803 767.142 141.166 767.947 141.163C767.356 140.587 766.583 140.075 765.809 139.593C765.431 139.358 764.444 138.518 764.048 138.391C763.237 138.132 762.749 138.646 762.074 137.949C763.754 137.846 762.122 136.461 760.917 136.566C761.176 136.991 761.618 137.297 762.087 137.646C759.455 137.319 761.539 135.956 759.314 135.482C759.62 134.786 759.645 134.321 758.788 133.632C757.834 132.865 757.42 132.942 757.137 132.023C757.04 131.707 757.135 130.973 756.785 130.679C756.109 130.11 755.429 130.511 755.014 129.719C755.606 129.771 757.021 129.584 756.417 128.88C756.297 128.739 755.945 128.956 755.708 128.584C755.359 128.032 755.051 127.451 755.591 127.012C753.548 126.655 755.515 124.099 755.649 123.282C755.784 122.465 755.976 121.805 756.454 121.084C756.932 120.364 756.611 120.178 756.378 119.291C757.445 119.689 757.338 119.45 757.869 119.113C757.653 118.882 757.705 118.765 758.027 118.762C758.289 118.734 758.478 118.642 758.595 118.487C758.808 118.268 758.973 117.986 759.183 117.75C759.675 117.197 760.081 116.582 760.566 116.04C760.644 115.88 760.669 115.709 760.642 115.527C760.857 115.55 761.073 115.573 761.289 115.596C761.598 115.332 762.259 115.59 761.86 114.925C762.841 115.207 762.634 114.7 763.147 114.483C763.616 114.285 764.008 114.393 764.483 114.229C764.887 114.161 765.082 113.984 765.068 113.699C765.485 113.614 765.897 113.524 766.303 113.428C766.98 113.218 767.57 112.88 768.187 112.617C768.592 112.44 769.003 112.268 769.42 112.101C769.967 112.329 770.274 112.274 770.341 111.936C770.901 111.849 770.944 111.775 771.748 111.804C773.571 111.87 775.036 111.862 776.83 111.724C784.63 111.126 792.932 113.517 799.043 117.695ZM777.105 106.9C772.89 106.868 767.762 107.188 764.387 108.013C762.677 108.432 759.886 108.849 758.484 109.661C758.151 109.854 757.928 110.106 757.593 110.292C757.334 110.435 756.911 110.39 756.67 110.577C756.501 110.708 757.075 110.981 756.887 111.116C756.494 111.399 755.738 111.357 755.179 111.434C756.278 112.602 753.486 111.759 754.585 113.249C751.422 113.074 750.21 115.373 749.148 116.833C748.833 117.265 748.929 117.575 748.81 118.028C748.7 118.451 748.625 118.465 748.304 118.838C747.503 119.768 747.01 120.689 747.003 121.868C746.99 123.849 747.754 126.006 748.051 128.023C748.384 130.276 749.289 132.572 750.68 134.792C755.713 142.82 767.342 149.451 780.205 150.409C800.634 151.932 814.065 138.735 809.939 126.138C806.751 116.406 792.501 107.017 777.105 106.9Z" fill="#61B3FF" fill-opacity="0.55"/>
<path fill-rule="evenodd" clip-rule="evenodd" d="M852.232 256.815C862.003 261.104 873.211 264.033 883.422 267.895C885.978 268.862 893.941 270.869 893.864 272.662C893.819 273.71 891.426 275.025 890.378 275.751C888.583 276.996 886.894 278.254 885.238 279.57C877.655 285.6 870.515 291.686 862.297 297.412C861.06 298.274 857.332 302.387 856.129 300.344C855.584 299.418 856.033 298.377 854.612 297.514C853.88 297.069 851.053 296.824 851.876 295.87C852.425 296.022 852.975 296.175 853.524 296.327C853.097 295.565 853.129 294.729 852.489 294.009C852.092 293.561 851.315 293.349 851.046 292.845C850.674 292.148 851.305 291.339 851.199 290.621C851.095 289.905 850.494 289.228 850.136 288.552C848.009 284.547 847.247 280.51 846.158 276.378C845.081 272.29 843.403 268.329 842.744 264.195C842.048 259.829 841.195 255.471 840.057 251.139C842.088 251.315 843.65 252.679 845.086 253.45C847.344 254.661 849.796 255.746 852.232 256.815ZM844.571 299.09C844.105 298.863 843.74 298.586 843.477 298.256C848.266 296.79 845.377 299.291 844.571 299.09ZM841.659 295.964C839.571 296.319 838.072 296.391 836.462 295.86C836.309 295.81 836.485 295.422 836.21 295.343C835.969 295.274 835.602 295.359 835.396 295.294C834.695 295.074 833.468 295.557 833.348 294.713C836.013 294.21 838.633 293.28 841.446 293.123C845.355 292.906 845.174 295.365 841.659 295.964ZM832.513 291.103C829.664 291.514 827.318 292.476 824.291 292.225C821.45 291.99 818.982 291.079 816.741 290.031C822.347 289.05 828.226 288.873 833.827 287.925C835.651 287.616 838.047 286.802 840.013 287.13C842.196 287.495 842.334 288.758 842.988 289.908C839.494 290.296 835.972 290.603 832.513 291.103ZM814.698 286.224C811.961 286.628 809.164 287.511 806.876 285.987C806.506 285.741 806.183 285.986 806.227 285.229C806.273 284.43 807.447 283.915 808.456 283.633C810.83 282.972 814.158 283.4 816.679 283.302C820.701 283.148 824.794 282.631 828.772 282.234C831.526 281.959 834.371 281.348 837.186 281.469C839.359 281.562 841.981 282.706 838.814 283.541C835.93 284.301 831.604 284.185 828.479 284.514C823.86 285.001 819.257 285.551 814.698 286.224ZM812.025 278.27C812.202 278.382 812.379 278.493 812.556 278.605C812.527 278.601 813.606 278.061 813.891 278.045C815.279 277.971 816.674 278.03 818.064 277.981C821.265 277.87 824.492 277.525 827.636 277.146C830.197 276.837 832.806 276.304 835.443 276.437C837.725 276.553 837.965 276.842 838.115 278.203C832.288 278.203 826.287 278.127 820.561 278.889C816.833 279.384 812.725 280.861 810.857 278.199C811.247 278.223 811.635 278.246 812.025 278.27ZM815.667 272.508C817.112 273.188 821.05 272.058 822.782 271.945C824.662 271.822 826.431 271.694 828.254 271.405C829.869 271.148 835.215 269.865 836.454 271.092C838.354 272.972 830.661 273.317 829.441 273.41C824.326 273.8 819.019 274.146 814.041 274.975C814.583 274.153 815.125 273.331 815.667 272.508ZM822.684 266.123C823.057 266.992 834.625 263.79 834.836 266.118C834.998 267.903 823.391 268.793 821.304 268.636C821.793 267.814 823.093 267.077 822.684 266.123ZM826.568 260.662C826.814 258.909 827.194 258.919 829.469 258.754C831.204 258.628 833.589 258 833.138 259.91C832.751 261.546 826.32 262.43 826.568 260.662ZM830.703 254.632C831.25 253.691 832.482 254.957 832.508 255.436C832.577 256.709 831.014 256.433 829.51 256.433C829.929 255.839 830.327 255.237 830.703 254.632ZM849.742 247.569C849.435 247.34 847.713 247.253 847.223 247.142C846.017 246.869 846.188 246.288 844.646 246.861C844.569 246.813 844.716 246.382 844.632 246.362C844.59 246.352 843.509 246.1 843.158 245.961C842.311 245.626 841.547 245.298 840.769 244.877C839.941 244.43 839.112 243.782 838.166 243.426C837.767 243.276 837.442 243.063 836.961 243.017C835.714 242.898 836.071 243.435 834.981 243.541C834.31 243.607 833.821 243.123 832.943 243.332C832.184 243.512 831.744 244.169 831.405 244.561C830.176 245.985 829.228 247.518 828.025 248.957C821.871 256.316 814.877 263.397 808.916 270.825C806.046 274.403 803.05 278.007 801.029 281.81C799.572 284.553 796.282 288.559 799.113 291.3C801.171 293.293 805.292 294.153 808.58 295.116C813.528 296.565 818.089 298.459 823.091 299.863C829.055 301.539 834.848 303.291 840.662 305.161C843.141 305.959 845.379 307.108 847.85 307.864C849.361 308.326 851.696 307.537 852.188 308.596C854.083 307.179 857.149 308.124 859.341 307.126C860.63 306.539 861.572 305.382 862.647 304.659C864.26 303.575 866.011 302.569 867.657 301.504C874.189 297.273 880.22 292.866 886.163 288.322C891.839 283.982 898.471 279.882 903.265 275.132C905.17 273.246 905.515 271.269 904.258 269.186C903.34 267.666 901.13 265.371 897.973 266.377C899.17 265.149 894.552 263.838 893.151 263.598C893.13 263.594 892.854 264.538 892.463 264.514C892.602 264.523 891.289 262.424 890.712 262.155C889 261.354 886.916 260.42 885.048 259.76C883.334 259.156 881.525 258.857 879.865 258.18C877.852 257.36 876.005 256.388 873.985 255.574C872.034 254.788 869.86 253.859 867.705 253.319C865.835 252.85 864.157 252.758 862.475 251.99C860.394 251.039 858.579 250.394 856.18 249.739C854.104 249.173 851.227 248.678 849.742 247.569Z" fill="#61B3FF" fill-opacity="0.55"/>
<path fill-rule="evenodd" clip-rule="evenodd" d="M563.843 128.754C564.017 129.283 564.444 129.543 565.171 129.668C566.371 129.876 567.687 129.908 568.912 130.015C571.15 130.211 573.463 130.292 575.658 130.674C577.712 131.03 579.767 131.563 581.622 132.296C581.015 130.21 580.327 128.185 580.582 126.037C580.769 124.46 580.821 122.084 583.038 121.172C583.551 120.961 584.364 121.041 584.934 121.019C585.676 120.99 586.419 120.965 587.161 120.936C588.628 120.878 590.089 120.766 591.552 120.664C594.437 120.461 597.302 120.209 600.169 119.906C600.644 119.856 601.495 119.894 601.812 119.598C602.047 119.38 601.935 119.037 601.917 118.793C601.857 117.948 601.904 117.106 602.05 116.268C602.369 114.432 603.074 112.625 603.863 110.868C604.262 109.98 604.689 109.098 605.091 108.211C605.285 107.782 605.736 107.197 605.091 106.89C604.689 106.698 603.986 106.7 603.518 106.616C602.961 106.516 602.419 106.385 601.874 106.257C600.588 105.953 599.304 105.644 598.02 105.337C593.138 104.168 588.214 103.076 583.346 101.884C582.665 101.717 581.989 101.543 581.308 101.376C581.013 101.304 580.5 101.119 580.183 101.219C579.811 101.336 579.883 101.63 579.617 101.805C579.384 101.958 578.857 101.969 578.557 102.093C577.795 102.409 577.318 102.96 576.721 103.405C575.952 103.976 575.093 104.479 574.334 105.061C571.271 107.412 569.004 110.243 567.086 113.137C566.569 113.917 566.233 114.723 565.91 115.553C565.605 116.337 565.215 117.105 565.041 117.913C564.637 119.8 564.622 121.742 564.298 123.641C564.027 125.232 563.32 127.16 563.843 128.754ZM583.301 124.492C583.307 125.749 583.399 127.014 583.782 128.244C584.177 129.513 584.889 130.727 585.525 131.94C586.125 133.085 586.61 134.265 587.306 135.381C587.993 136.483 588.872 137.488 589.423 138.632C590.552 140.977 592.487 143.035 593.856 145.299C595.255 147.614 596.813 149.825 598.552 152.019C599.378 153.063 600.145 154.218 601.191 155.158C601.71 155.625 602.303 156.09 602.903 156.503C603.426 156.864 603.677 156.589 604.31 156.67C605.233 156.789 605.708 157.65 606.305 158.092C607.436 158.931 608.592 159.759 609.831 160.515C611.1 161.288 612.502 161.935 613.804 162.68C615.047 163.391 616.288 164.033 617.708 164.552C620.513 165.576 623.737 166.832 626.973 166.725C628.462 166.675 629.26 165.979 629.883 165.048C630.544 164.064 630.321 162.883 630.21 161.827C630.077 160.56 629.651 159.442 628.712 158.367C627.785 157.308 628.698 156.65 629.622 155.767C631.682 153.795 634.427 152.26 636.931 150.594C638.223 149.734 639.505 148.864 640.785 147.995C641.493 147.514 642.2 147.032 642.906 146.551C643.425 146.198 643.924 145.96 644.111 145.464C642.702 144.918 641.233 144.453 639.935 143.77C637.285 142.377 634.853 140.676 632.354 139.143C631.154 138.406 630.206 137.493 629.242 136.603C628.311 135.743 627.245 134.931 626.442 134.004C624.715 132.009 622.745 130.034 621.376 127.895C620.694 126.829 620.341 125.741 619.984 124.603C619.769 123.917 619.521 123.237 619.28 122.556C619.124 122.117 619.079 121.36 618.688 120.998C617.968 120.33 615.705 121.409 614.877 121.598C613.317 121.955 611.691 122.125 610.077 122.304C606.655 122.684 603.209 123.009 599.808 123.481C598.027 123.729 596.241 124.003 594.433 124.132C592.681 124.257 590.919 124.192 589.163 124.183C588.786 124.18 588.327 124.228 588.075 123.98C587.931 123.838 588.027 123.662 587.796 123.529C587.494 123.356 587.1 123.449 586.754 123.475C586.051 123.529 585.346 123.56 584.644 123.623C584.341 123.65 583.737 123.613 583.478 123.728C583.205 123.849 583.299 124.214 583.301 124.492ZM632.559 158.238C633.379 159.425 633.852 161.085 633.876 162.4C633.89 163.106 633.76 163.81 633.559 164.5C633.384 165.101 632.905 165.794 633.055 166.4C635.133 165.709 637.174 164.966 639.292 164.343C641.123 163.804 642.498 162.867 644.005 161.977C645.622 161.02 647.087 159.955 648.641 158.948C650.309 157.867 652.049 156.845 653.745 155.789C656.765 153.907 659.301 151.793 661.781 149.545C663.96 147.569 667.085 145.048 666.939 142.375C666.87 141.134 666.743 139.722 665.897 138.612C665.194 137.689 663.922 136.655 662.733 136.038C661.589 135.445 660.467 136.935 659.824 137.459C658.439 138.586 657.028 139.695 655.623 140.809C652.952 142.929 650.417 145.154 647.528 147.124C644.616 149.109 641.639 151.051 638.503 152.851C636.933 153.752 635.204 154.592 633.779 155.612C633.256 155.987 632.24 156.4 631.891 156.867C631.516 157.371 632.267 157.814 632.559 158.238ZM561.089 128.972C561.529 128.931 561.508 128.973 561.546 128.663C561.604 128.182 561.377 127.614 561.309 127.132C560.985 124.839 561.14 122.437 561.418 120.143C561.964 115.638 563.256 111.21 566.532 107.302C568.044 105.498 569.754 103.797 571.897 102.351C572.885 101.685 573.85 100.968 574.943 100.389C575.491 100.099 576.29 99.9522 576.789 99.6549C577.059 99.4939 577.178 99.1663 577.406 98.9609C578.315 98.1418 579.342 97.9304 580.792 98.0186C582.296 98.1105 583.873 98.4497 585.324 98.739C588.412 99.355 591.374 100.402 594.365 101.228C597.37 102.058 600.34 102.942 603.303 103.844C604.591 104.236 606.146 104.545 607.29 105.137C607.98 105.494 608.184 105.939 608.11 106.533C607.847 108.635 606.762 110.723 605.937 112.733C605.05 114.892 604.328 117.092 604.102 119.343C607.163 119.182 610.205 119.015 613.252 118.738C614.776 118.599 616.308 118.486 617.83 118.335C618.616 118.258 618.983 118.046 619.615 117.753C620.171 117.495 620.457 117.713 620.694 118.105C621.926 120.141 622.411 122.362 623.746 124.383C624.345 125.29 625.093 126.137 625.716 127.036C626.394 128.013 627.211 128.974 628.06 129.878C628.455 130.298 628.961 130.637 629.398 131.031C629.803 131.395 630.094 131.814 630.466 132.196C631.244 132.992 632.186 133.695 633.14 134.381C634.098 135.071 635.026 135.771 635.94 136.489C636.84 137.195 637.913 137.769 638.863 138.436C639.758 139.064 640.537 139.747 641.454 140.362C642.338 140.955 642.752 141.777 643.703 142.31C644.215 142.598 644.784 142.829 645.294 143.118C645.716 143.357 646.156 143.776 646.755 143.696C647.419 143.606 647.953 142.964 648.368 142.633C648.904 142.207 649.443 141.782 649.986 141.36C652.117 139.702 654.302 138.076 656.451 136.429C657.501 135.623 658.656 134.892 659.68 134.069C660.426 133.468 661.647 133.041 662.692 133.452C663.746 133.866 665.012 134.231 665.865 134.853C666.79 135.527 667.527 136.404 668.28 137.177C669.065 137.982 669.376 138.934 669.581 139.891C669.799 140.911 670.027 141.922 669.919 142.958C669.714 144.918 669.207 147.106 667.63 148.757C666.879 149.544 665.849 150.135 664.929 150.812C663.932 151.546 663.219 152.429 662.397 153.262C660.748 154.933 658.722 156.429 656.655 157.834C655.67 158.505 654.554 159.07 653.563 159.742C652.506 160.461 651.435 161.109 650.241 161.706C649.021 162.317 648.013 163.113 646.91 163.823C645.774 164.554 644.611 165.236 643.36 165.863C640.962 167.066 638.522 167.849 635.734 168.454C632.662 169.12 629.689 169.992 626.634 170.688C625.17 171.022 623.721 170.561 622.327 170.223C620.905 169.879 619.51 169.471 618.201 168.94C615.546 167.864 612.996 166.616 610.384 165.482C607.668 164.303 605.399 162.952 603.324 161.227C601.347 159.582 599.254 157.95 597.453 156.203C593.796 152.656 591.585 148.461 588.872 144.533C587.429 142.445 585.967 140.39 584.767 138.22C584.177 137.153 583.649 136.067 583.047 135.003C582.791 134.553 582.581 134.377 581.897 134.301C581.107 134.212 580.299 134.173 579.507 134.105C576.368 133.836 573.305 133.437 570.194 133.05C567.308 132.692 564.404 132.322 561.823 131.268C561.281 131.046 560.63 130.785 560.334 130.371C560.2 130.182 559.869 129.222 560.056 129.068C560.165 128.978 560.901 128.989 561.089 128.972Z" fill="#61B3FF" fill-opacity="0.55"/>
</svg>
