<svg width="457" height="473" viewBox="0 0 457 473" fill="none" xmlns="http://www.w3.org/2000/svg">
<path fill-rule="evenodd" clip-rule="evenodd" d="M112.803 319.483C112.145 320.806 106.006 320.36 105.872 318.801C105.672 316.472 113.945 317.185 112.803 319.483ZM119.324 318.618C122.803 318.857 128.52 320.849 131.873 319.645C136.99 317.808 131.616 314.988 128.871 314.145C126.078 313.287 121.917 313.743 120.481 311.281C119.4 309.429 122.07 304.259 118.758 305.09C115.281 305.962 116.292 313.367 110.838 310.871C108.236 309.68 109.297 302.424 104.939 306.131C103.747 307.145 103.643 309.007 102.063 309.763C100.451 310.535 98.4294 309.731 96.7276 309.798C92.2222 309.976 90.7871 313.529 95.3521 314.938C97.0417 315.46 103.41 316.097 99.5524 318.425C97.1215 319.891 91.7213 316.814 89.6337 319.367C86.7645 322.873 94.4502 322.952 96.5145 324.001C100.013 325.777 97.1235 329.926 97.4022 332.881C97.8295 337.395 100.94 336.452 102.07 332.631C103.029 329.39 101.841 324.724 107.637 326.012C117.076 328.11 102.388 338.213 109.302 340.797C113.711 342.446 114.335 333.536 114.677 332.001C115.945 326.338 119.718 327.66 125.434 327.833C132.112 328.036 133.724 323.872 126.652 322.679C124.396 322.298 121.293 322.779 119.333 321.568C118.174 320.852 116.58 318.431 119.324 318.618Z" fill="#3F3F3F"/>
<path fill-rule="evenodd" clip-rule="evenodd" d="M66.9517 90.0614C66.5242 89.5546 66.0963 89.0484 65.6691 88.5417C66.7415 88.8853 67.2454 89.1048 66.9517 90.0614ZM69.5799 91.3243C69.4307 91.7707 67.9696 90.6738 67.6986 90.5096C68.5942 90.1252 68.835 91.0389 69.5799 91.3243ZM64.7234 89.2183C64.6765 88.7324 64.63 88.2466 64.5831 87.7607C65.391 88.8874 64.8206 88.2917 65.6653 88.5407C65.5798 88.9695 65.2239 89.2211 64.7234 89.2183ZM72.0425 96.365C77.0291 101.102 79.1468 107.833 78.9443 113.464C78.8274 116.699 77.7242 119.282 75.9913 121.802C75.3229 122.774 74.1916 123.709 73.681 124.725C73.288 125.507 73.3493 125.498 73.7724 126.6C72.9708 126.488 72.6446 126.02 71.9419 126.344C71.0654 126.749 71.4309 127.359 71.8647 128.086C71.014 128.178 70.6001 128.176 69.9059 128.542C69.9279 128.531 69.5556 129.084 69.5787 129.066C69.4763 129.144 68.5985 129.459 68.3894 129.597C67.5306 130.165 66.8183 130.991 65.8329 131.397C64.9718 131.753 63.3261 131.479 63.8993 132.831C62.1973 131.8 60.3915 133.188 58.9847 133.499C56.7863 133.985 54.0838 133.793 51.6876 133.247C49.1322 132.665 46.9502 131.665 44.5578 130.668C42.8861 129.971 39.7551 130.143 38.7603 128.297C39.5396 128.474 40.1416 128.977 40.9472 128.974C40.3558 128.173 39.5827 127.461 38.8095 126.793C38.4309 126.465 37.4441 125.298 37.0477 125.122C36.2368 124.762 35.7487 125.476 35.0739 124.507C36.754 124.365 35.1217 122.44 33.9171 122.586C34.1761 123.176 34.6177 123.603 35.0874 124.087C32.4552 123.633 34.5395 121.738 32.3135 121.08C32.6195 120.113 32.645 119.466 31.7878 118.509C30.8337 117.444 30.4199 117.551 30.1371 116.274C30.0401 115.834 30.135 114.816 29.785 114.407C29.1092 113.616 28.429 114.173 28.0138 113.073C28.6056 113.144 30.0208 112.884 29.4167 111.906C29.2966 111.711 28.9447 112.012 28.7085 111.495C28.3593 110.729 28.0507 109.921 28.5913 109.311C26.548 108.816 28.5151 105.263 28.6491 104.129C28.7839 102.993 28.9758 102.076 29.4541 101.075C29.9318 100.074 29.6113 99.8159 29.3782 98.5825C30.4452 99.1366 30.3381 98.8045 30.8692 98.3364C30.6526 98.0153 30.705 97.8524 31.0266 97.8481C31.2885 97.8086 31.4777 97.6807 31.5946 97.4657C31.8077 97.1611 31.9734 96.7695 32.1834 96.4423C32.6755 95.6736 33.0811 94.8189 33.5658 94.066C33.6437 93.8434 33.6689 93.6064 33.6416 93.3536C33.857 93.3854 34.073 93.4171 34.2886 93.4495C34.5985 93.0828 35.259 93.4402 34.8596 92.5163C35.8411 92.9092 35.6338 92.2039 36.1472 91.9026C36.6158 91.6281 37.0083 91.777 37.4831 91.5492C37.8871 91.455 38.0817 91.2096 38.0679 90.8128C38.4846 90.6958 38.8966 90.5701 39.3035 90.4361C39.98 90.1447 40.5703 89.6758 41.1868 89.3104C41.5918 89.0642 42.0033 88.825 42.4199 88.5929C42.9666 88.9095 43.2737 88.8332 43.3407 88.3641C43.9008 88.2428 43.9444 88.1396 44.7485 88.1799C46.5706 88.2715 48.0357 88.261 49.8301 88.0695C57.6304 87.2378 65.9324 90.5607 72.0425 96.365ZM50.1051 81.3663C45.8897 81.3214 40.7619 81.7662 37.3874 82.9132C35.6765 83.4943 32.8863 84.0745 31.4839 85.2032C31.1514 85.4708 30.9281 85.8209 30.593 86.0789C30.3341 86.2783 29.9107 86.2155 29.6698 86.4758C29.5014 86.6578 30.0747 87.0366 29.887 87.2247C29.4937 87.6174 28.7382 87.5596 28.179 87.6664C29.2778 89.2893 26.4862 88.1173 27.5853 90.1887C24.422 89.9445 23.21 93.1396 22.1484 95.1672C21.8333 95.7684 21.9286 96.1983 21.8103 96.8288C21.7 97.4156 21.6252 97.4349 21.3039 97.954C20.5034 99.2465 20.0104 100.526 20.0031 102.164C19.9905 104.917 20.7542 107.913 21.0514 110.715C21.3835 113.847 22.2888 117.037 23.6805 120.122C28.7134 131.276 40.342 140.489 53.2046 141.821C73.6339 143.936 87.0653 125.599 82.9394 108.097C79.7512 94.5745 65.5011 81.5289 50.1051 81.3663Z" fill="#3F3F3F"/>
<ellipse cx="228.5" cy="203.808" rx="228.5" ry="194.808" fill="#61B3FF" fill-opacity="0.1"/>
<path fill-rule="evenodd" clip-rule="evenodd" d="M357.465 269.788C342.872 274.149 328.438 279.277 313.967 284.117C312.339 284.662 312.344 284.753 310.888 283.77C306.928 281.097 302.892 278.558 298.81 276.126C286.499 268.789 273.842 262.918 260.286 259.183C250.677 256.536 240.908 254.436 231.107 252.894C232.104 256.331 234.038 259.914 236.428 262.335C238.281 264.211 240.806 265.237 243.096 266.243C249.902 269.235 257.028 271.327 263.718 274.653C270.541 278.045 274.851 285.097 276.147 293.278C276.389 294.809 276.374 295.042 275.254 295.814C273.998 296.68 272.471 297.187 271.086 297.715C259.965 301.96 248.238 304.574 236.739 307.151C230.634 308.519 224.508 309.79 218.349 310.814C214.528 311.45 210.489 312.303 206.608 312.049C189.973 310.962 180.114 288.772 175.244 273.763C160.214 282.888 142.971 288.72 126.136 291.534C105.722 294.946 80.007 295.133 63.8714 278.275C56.1862 270.245 51.4671 259.373 48 248.423C59.3092 247.336 70.5683 245.435 81.7844 243.512C83.7427 243.176 85.7002 242.834 87.6572 242.486C88.4441 242.346 89.6536 241.851 90.4588 241.982C91.6811 242.181 93.2594 243.667 94.3417 244.325C102.641 249.373 111.221 254.002 120.124 257.554C124.894 259.457 129.848 261.141 134.906 261.704C140.332 262.309 145.888 261.066 151.128 259.581C164.273 255.856 178.025 249.554 188.988 240.472C191.655 244.734 196.469 247.621 201.06 245.565C206.087 243.312 208.882 237.405 211.576 232.547C212.556 230.778 214.406 230.766 216.231 230.244C221.328 228.787 226.488 227.599 231.673 226.613C248.701 223.376 266.209 222.278 283.395 224.511C300.164 226.69 316.674 232.752 331.46 241.865C337.893 245.829 344.156 250.422 349.5 256.097C352.876 259.681 356.821 264.371 357.465 269.788Z" fill="#61B3FF"/>
<path fill-rule="evenodd" clip-rule="evenodd" d="M306.009 146.255C300.746 148.23 295.998 151.131 291.36 154.509C289.099 156.156 286.838 158.082 284.34 159.248C282.123 160.282 279.702 160.752 277.424 161.602C267.22 165.409 256.148 166.175 245.772 162.515C235.195 158.784 226.217 150.771 215.278 148.258C204.61 145.807 193.761 146.349 183.517 150.787C178.541 152.943 174.346 156.566 170.099 160.094C166.03 163.475 161.761 166.809 158.612 171.322C155.518 175.754 153.732 181.27 152.369 186.633C151.583 189.726 151.22 192.92 151.277 196.137C151.316 198.388 152.378 200.563 151.754 202.738C150.877 205.79 149.601 208.033 149.93 211.43C150.196 214.166 151.305 216.523 153.04 218.444C154.819 220.414 156.949 221.767 159.321 222.622C161.116 223.268 161.683 223.104 162.726 221.352C165.645 224.314 167.731 228.057 171.389 230.014C173.205 230.986 175.065 231.454 177.066 231.597C178.582 231.704 179.972 231.754 181.253 232.787C182.596 233.871 187.509 238.709 185.629 240.613C184.533 241.723 181.976 241.943 180.581 242.581C178.63 243.473 176.754 244.568 174.983 245.849C168.506 250.537 162.058 253.462 154.567 255.56C146.791 257.738 138.95 258.917 130.927 258.949C123.639 258.979 116.003 258.359 109.245 255.052C106.001 253.465 102.87 251.36 100.217 248.725C97.5685 246.095 95.9431 242.439 93.2222 239.991C91.4612 238.407 93.0901 235.969 93.6341 233.794C94.7408 229.371 95.5876 224.336 95.9236 219.762C96.25 215.319 96.7953 210.889 97.4998 206.492C98.246 201.832 99.8013 197.493 100.9 192.941C101.71 189.585 102.525 185.646 101.586 182.218C101.12 180.518 100.087 178.721 98.6184 177.91C97.3052 177.184 96.4956 177.878 95.3189 177.8C91.8665 177.572 89.201 179.15 86.5958 181.731C85.1881 183.126 83.5575 184.347 82.2167 185.808C81.1735 186.944 80.9266 188.777 79.8146 189.784C77.9893 184.563 76.0771 177.926 69.886 180.912C64.9882 183.275 64.3582 192.152 61.9823 196.78C60.6464 195.548 60.4966 193.119 59.9769 191.402C59.4392 189.624 58.5334 187.746 57.2565 186.489C54.4669 183.742 51.0641 184.845 49.1439 188.135C48.1175 189.894 48.7285 191.913 47.7096 193.651C46.6988 195.373 47.0144 197.386 46.6017 199.392C46.0785 201.935 45.4463 204.441 45.0246 207.013C44.8296 208.202 44.5463 209.543 44.5955 210.763C44.6163 211.269 44.9816 212.139 44.869 212.638C44.7223 213.292 44.0297 213.879 43.7761 214.526C43.4343 215.394 43.5611 216.026 43.5225 216.922C43.452 218.535 43.0672 219.858 42.654 221.451C41.613 225.463 41.8768 230.542 43.4183 234.341C44.2177 236.311 44.7781 237.744 45.0158 239.851C45.1692 241.212 46.0843 242.452 46.0293 243.915C45.9526 245.95 41.0934 249.09 44.9293 250.44C46.5316 251.004 46.8748 250.71 47.3124 252.761C47.7469 254.797 48.239 256.778 48.9515 258.718C50.4625 262.834 52.6974 266.52 54.806 270.269C57.0884 274.327 59.4848 278.249 62.857 281.275C65.9845 284.08 69.5686 286.363 73.1381 288.383C80.6583 292.638 89.0258 295.014 97.4692 294.784C106.473 294.538 115.606 295.491 124.529 293.778C133.665 292.023 142.578 289.118 151.676 287.17C155.763 286.294 159.573 285.34 163.292 283.178C167.065 280.986 170.829 278.747 174.281 275.952C176.659 282.339 177.94 288.997 181.349 294.873C184.325 300.001 187.914 304.823 192.308 308.501C196.599 312.093 202.206 314.781 207.61 315.012C209.259 315.082 211.794 314.271 212.977 315.663C213.569 316.36 213.629 317.744 213.864 318.638C214.264 320.161 214.843 321.646 215.165 323.193C215.652 325.538 213.687 325.574 211.965 326.526C209.656 327.803 207.401 329.198 205.169 330.635C202.889 332.103 200.714 333.792 198.43 335.237C196.468 336.478 194.443 337.435 192.555 338.841C188.092 342.164 183.203 344.38 178.411 347.01C173.281 349.826 168.292 352.968 163.25 355.976C153.265 361.935 143.249 368.12 133.822 375.143C129.421 378.421 125.19 381.835 120.677 384.935C116.468 387.827 111.663 391.213 108.983 395.959C106.894 399.659 103.891 401.412 100.436 403.429C98.3998 404.618 97.1402 404.843 95.4865 402.898C93.8633 400.989 92.2947 399.09 90.582 397.268C83.5605 389.801 77.5535 381.627 71.698 373.028C67.3509 366.644 61.3904 358.979 53.4064 360.378C51.0127 360.798 49.4232 362.046 47.6529 363.803C46.4518 364.995 44.2816 365.774 43.4809 367.318C43.0184 368.209 42.8247 369.351 42.3592 370.286C41.8715 371.264 41.2659 372.218 40.94 373.287C40.3893 375.097 41.5771 377.972 40.3924 379.445C39.5252 380.525 40.3317 383.066 40.5684 384.285C41.0056 386.541 41.3771 388.83 42.0688 391.009C42.6136 392.723 43.1488 395.073 44.2962 396.411C45.3199 397.605 46.5206 397.488 46.2532 399.555C47.3612 399.142 48.3135 402.114 48.6261 402.864C49.4658 404.878 50.3826 406.533 51.7349 408.203C55.1536 412.423 59.0676 415.278 63.5017 417.961C65.119 418.939 68.473 420.301 68.849 422.563C69.2095 424.735 68.1033 426.499 68.8809 428.819C70.4979 433.646 74.133 438.736 77.0999 442.63C79.7685 446.133 82.3568 448.475 86.6361 447.652C90.4273 446.924 94.1781 444.756 97.3331 442.351C101.133 439.455 105.158 437.277 109.262 434.978C111.282 433.847 113.302 432.803 115.053 431.177C116.68 429.667 118.091 427.966 119.977 426.844C121.32 426.044 123.075 425.478 123.634 423.699C124.245 421.759 123.13 420.548 122.181 419.157C121.544 418.223 121.192 418.079 121.742 417.329C122.181 416.731 123.387 416.223 123.992 415.859C125.458 414.978 126.922 414.207 128.488 415.175C130.236 416.256 131.43 418.489 132.739 420.112C134.308 422.056 136.07 423.828 137.79 425.601C141.203 429.118 144.942 432.27 148.276 435.87C149.038 436.693 150.539 438.78 151.797 438.385C152.726 438.093 152.237 437.475 152.716 436.999C153.231 436.488 153.669 436.481 154.329 435.927C155.97 434.55 156.471 431.909 158.192 430.484C159.96 429.018 162.145 427.965 164.06 426.759C172.802 421.254 181.318 415.316 189.309 408.511C193.316 405.099 197.1 401.396 200.981 397.812C202.808 396.125 204.661 394.276 206.692 392.905C208.545 391.655 210.604 390.781 212.492 389.582C216.536 387.012 220.863 385.046 224.867 382.393C226.749 381.146 228.145 379.471 229.895 378.081C231.428 376.866 232.705 376.145 233.846 374.374C234.388 375.712 235.875 373.967 236.412 373.557C236.835 373.234 237.377 373.006 237.769 372.637C238.164 372.265 238.402 371.438 238.702 371.179C239.365 370.607 240.136 370.738 241.026 370.379C242.217 369.901 243.787 368.626 244.702 367.652C245.335 366.979 244.302 367.508 245.372 366.683C245.87 366.298 246.724 366.195 247.284 365.787C248.612 364.821 249.832 363.581 251.1 362.514C253.398 360.584 256.37 358.826 257.674 355.816C264.681 362.264 271.447 369.261 279.493 374.087C287.264 378.747 296.252 380.863 304.55 384.079C313.088 387.387 321.711 390.713 330.392 393.517C334.612 394.88 338.964 395.859 343.277 396.78C347.702 397.726 352.066 397.444 356.505 397.978C358.688 398.24 360.873 398.155 363.055 398.392C365.065 398.61 367.013 399.182 369.008 399.48C370.767 399.742 372.751 399.521 374.442 400.057C375.683 400.45 377.322 401.844 378.231 400.03C378.897 401.148 379.108 400.62 379.976 400.549C380.9 400.472 381.179 400.517 382.084 400.711C383.557 401.026 385.182 401.148 386.431 399.852C387.003 402.175 392.545 400.062 393.206 398.527C393.95 400.986 400.682 398.864 400.779 396.556C400.861 394.603 399.704 391.793 399.226 389.958C398.446 386.962 397.479 384.032 396.469 381.126C395.401 378.053 394.305 374.989 393.206 371.929C392.723 370.585 392.267 369.219 391.716 367.907C391.446 367.263 390.742 366.303 390.754 365.56C390.788 363.389 394.261 363.234 395.729 362.693C396.84 362.283 397.967 361.85 399.022 361.282C399.788 360.87 400.706 359.923 401.553 359.792C403.495 359.491 403.055 361.953 403.266 363.466C403.537 365.413 404.494 366.414 406.334 366.429C408.484 366.445 414.613 362.303 415.769 365.46C416.312 366.939 416.164 369.777 416.363 371.366C416.689 373.972 416.56 376.563 416.241 379.161C415.719 383.439 413.994 388.851 415.936 392.952C419.813 401.142 433.257 396.206 437.548 391.051C443.868 383.459 443.684 372.082 440.656 362.89C439.183 358.419 437.05 353.629 434.262 349.993C433.023 348.378 430.667 346.819 430.258 344.6C429.918 342.759 431.195 341.063 430.926 339.176C430.607 336.936 428.917 335.578 427.468 334.22C425.959 332.806 424.492 331.266 422.773 330.17C418.796 327.638 414.285 329.167 410.331 331.027C406.007 333.06 401.864 335.788 398.002 338.756C396.089 340.226 394.468 341.548 392.201 342.259C390.462 342.805 388.706 343.34 386.96 343.852C385.312 344.335 383.923 344.694 382.766 343.098C381.493 341.341 381.072 340.631 378.869 340.555C376.522 340.475 374.174 340.622 371.83 340.722C371.335 340.744 370.211 340.571 369.82 341.033C369.472 341.445 369.976 342.305 369.652 342.566C369.14 342.977 366.234 338.376 365.985 342.101C365.826 340.293 364.133 341.168 363.189 341.406C362.846 341.493 362.503 341.595 362.163 341.68C361.794 341.542 361.487 341.647 361.245 341.996C360.857 342.089 360.594 341.923 360.457 341.499C356.355 341.433 352.217 341.722 348.105 341.698C343.35 341.67 338.567 341.618 333.856 340.846C332.111 340.56 330.365 340.165 328.617 339.925C327.816 339.816 327.144 339.911 326.362 339.969C326.077 340.03 325.819 340.162 325.586 340.367C325.467 340.104 325.289 339.904 325.054 339.769C322.062 338.787 318.984 338.121 315.944 337.264C313.816 336.664 312.032 336.201 309.913 336.032L309.512 336.003L308.66 336.285C308.536 335.944 308.333 335.679 308.052 335.489C307.362 335.172 306.775 335.049 306.031 334.964C303.068 334.625 300.161 334.66 297.36 334.174C295.885 333.918 290.495 332.982 289.501 334.621C288.739 332.625 283.251 335.342 281.644 334.163C284.138 330.351 285.225 326.272 285.931 321.663C286.7 316.641 287.183 311.359 286.045 306.358C284.997 301.749 282.714 297.019 279.592 293.777C276.574 290.641 275.866 286.89 273.852 283.02C269.656 274.957 262.742 270.031 255.041 267.056C250.847 265.436 246.583 264.088 242.352 262.599C238.916 261.39 236.039 259.66 234.301 255.962C248.932 255.962 262.932 261.048 276.329 267.216C282.993 270.285 289.627 273.478 296.209 276.761C299.56 278.432 302.873 280.22 305.999 282.378L306.863 282.974C307.87 283.672 308.871 284.387 309.81 285.192C310.034 285.385 311.257 286.184 311.328 286.451C311.887 288.526 308.81 291.863 308.011 293.642C306.923 296.066 305.858 298.9 305.724 301.633C305.565 304.901 307.424 306.536 310.29 305.865C313.794 305.045 316.447 301.772 319.23 299.496C319.85 301.585 319.049 303.987 318.614 306.022C318.018 308.814 317.426 311.647 317.002 314.479C316.403 318.483 316.829 323 320.383 325.098C329.439 330.443 334.056 316.341 335.895 309.296C337.139 310.301 336.994 313.982 337.222 315.521C337.662 318.483 338.166 321.663 339.339 324.383C340.239 326.466 341.766 328.898 344.015 329.123C346.454 329.366 348.42 327.016 349.512 324.847C351.4 321.101 351.845 316.924 351.994 312.724C352.028 311.799 351.788 303.232 352.623 302.988C355.076 307.915 356.445 313.393 359.327 318.091C361.853 322.209 365.654 325.001 369.069 320.241C374.358 312.868 372.665 302.214 370.499 293.919C369.239 289.095 367.524 284.49 365.212 280.177C364.253 278.388 363.093 277.045 361.902 275.468C360.921 274.167 360.543 273.557 360.967 272.057C361.213 271.183 361.446 271.152 361.226 270.185C361.068 269.492 360.594 268.639 360.323 267.995C359.548 266.155 358.734 264.339 357.785 262.603C355.756 258.895 352.993 255.81 350.089 252.949L349.797 252.662L349.811 252.677C349.998 252.87 348.64 251.71 348.668 251.707L348.675 251.71L348.639 251.687C348.138 251.319 347.948 250.113 347.377 251.19L347.336 251.271C347.247 249.686 346.056 248.785 345.034 247.897C344.654 247.566 344.274 247.106 343.812 246.908C343.49 246.771 342.743 246.906 342.51 246.714C342.057 246.341 341.836 245.601 341.406 245.161C340.975 244.722 340.38 244.516 339.89 244.181C338.688 243.358 337.583 242.352 336.411 241.475C333.92 239.613 331.319 237.935 328.655 236.406C323.049 233.189 317.099 230.6 311.144 228.317C305.897 226.304 300.458 224.44 295.068 222.974C289.536 221.469 283.721 221.844 278.071 221.225C266.555 219.964 254.4 220.218 242.889 221.477C237.248 222.094 231.639 223.059 226.075 224.266C220.679 225.435 215.066 226.766 210.273 229.929C209.252 230.602 207.406 232.763 206.209 232.684C205.201 232.617 204.326 230.533 203.852 229.711C202.727 227.761 201.312 225.968 200.356 223.912C199.178 221.381 198.576 218.535 197.69 215.871C201.797 216.506 206.11 216.917 210.052 215.154C213.621 213.557 216.027 210.366 218.693 207.419C221.502 204.315 224.51 202.211 228.528 201.926C233.086 201.602 237.196 203.435 241.389 205.143C250.246 208.753 259.102 212.718 268.217 215.441C272.672 216.771 277.252 217.822 281.869 218.058C284.219 218.178 286.597 218.06 288.922 218.546C289.886 218.747 290.175 218.916 290.937 218.439C290.834 218.504 291.907 216.503 292.12 217.282C292.325 218.032 291.99 218.619 292.576 219.184C293.265 219.848 294.76 219.525 295.558 219.448C296.753 219.334 297.706 218.88 298.857 218.577C300.636 218.109 302.63 218.417 304.443 218.162C305.285 218.043 305.897 217.805 306.655 217.544C307.449 217.27 306.937 217.305 307.755 217.188C308.479 217.085 308.89 217.192 309.767 216.872C310.551 216.586 311.276 216.39 312.078 216.18C312.812 215.989 313.405 215.644 314.088 215.42C313.23 215.702 315.191 214.831 315.106 215.063L315.098 215.078L315.105 215.07C315.318 214.801 315.565 214.261 315.986 214.177L316.073 214.166C314.686 216.552 320.783 214.031 321.187 213.893C324.556 212.745 328.007 210.137 331.527 209.897C334.964 209.662 338.298 212.287 341.065 214.234C344.407 216.585 347.733 218.956 351.062 221.331C358.42 226.581 366.388 231.276 374.645 234.467C378.661 236.018 382.777 237.263 386.851 238.607C388.688 239.213 390.694 239.462 392.449 240.331C393.635 240.918 395.346 242.676 396.544 241.119C397.027 242.481 399.372 242.411 400.366 242.453C400.519 242.46 400.273 242.786 400.623 242.759C401.138 242.718 401.276 242.158 401.682 242.041C402.506 241.803 402.591 242.159 403.408 242.512C404.469 242.971 404.267 242.574 405.205 242.465C405.742 242.403 406.311 242.734 406.848 242.753C407.067 242.761 407.354 242.353 407.67 242.359C407.974 242.365 408.687 242.772 409.09 242.84C410.098 243.009 411.284 242.897 412.301 242.846C413.756 242.773 428.325 241.317 427.28 237.904C429.033 239.716 433.099 236.753 434.927 235.812C435.607 235.462 435.651 235.122 436.035 234.726C435.929 234.252 436.11 234.04 436.579 234.091C436.679 234.078 436.78 234.066 436.879 234.053C437.682 233.594 437.968 233.605 438.608 232.8C439.46 231.726 441.03 230.755 441.472 229.356C441.59 228.981 441.464 228.332 441.585 228.037C441.739 227.658 442.145 227.702 442.239 227.395C442.272 227.288 442.115 226.584 442.127 226.572C442.864 225.881 443.903 226.208 444.757 225.378C447.118 223.082 448.543 218.477 449.222 215.206C450.999 206.652 451.605 198.051 448.157 189.961C446.481 186.027 444.429 182.285 442.164 178.746C441.537 177.767 440.88 176.475 440.08 175.649C439.721 175.277 439.251 175.201 439.076 174.979C438.142 173.794 437.657 172.27 436.405 171.117C435.01 169.833 433.635 168.512 432.095 167.45C430.682 166.475 428.922 165.845 427.626 164.933C427.27 164.682 427.392 164.287 427.006 163.99C426.597 163.674 426.068 163.65 425.604 163.496C425.054 163.315 424.371 162.981 423.8 162.926C422.734 162.822 422.376 163.164 421.572 164.013C421.572 160.747 416.206 160.292 414.035 160.286C413.033 160.283 408 159.78 408.097 161.499C406.95 159.801 403.465 161.064 401.948 161.574C400.129 162.184 398.978 163.678 397.811 165.274C397.594 164.768 397.377 164.262 397.161 163.756C396.829 164.016 395.71 164.447 396.07 165.131C394.759 163.835 395.498 164.903 394.375 165.133C393.882 165.235 393.457 165.03 392.938 164.961C392.895 165.729 393.192 165.978 393.616 166.514C392.599 166.535 388.691 166.08 391.584 167.513C391.197 168.288 389.362 168.016 388.717 168.12C388.375 168.175 387.524 168.195 387.32 168.475C387.185 168.66 387.422 169.169 387.392 169.215C387.116 169.633 387.689 169.849 387.123 169.97C386.984 170 386.544 169.504 386.444 169.506C385.71 169.519 386.225 169.356 385.447 169.481C385.172 169.526 384.645 169.876 384.293 169.957C378.979 171.176 372.483 166.591 368.623 163.041C364.009 158.8 359.993 154.266 354.447 151.513C349.081 148.85 343.104 146.751 337.402 145.228C326.856 142.411 316.384 142.362 306.009 146.255ZM171.774 417.651C171.603 417.753 171.433 417.855 171.262 417.956C171.019 417.818 170.776 417.681 170.533 417.543C171.23 417.172 171.277 417.009 171.774 417.651ZM115.143 400.759C116.421 401.663 117.519 403.704 118.638 404.923C120.209 406.633 121.851 408.259 123.491 409.885C121.6 410.62 118.858 413.594 116.813 412.247C115.8 411.58 115.16 409.617 114.519 408.576C113.527 406.964 112.367 405.451 111.201 403.996C109.999 402.496 113.803 399.81 115.143 400.759ZM234.981 369.885C234.474 370.123 233.365 371.493 233.879 371.973C234.401 371.298 235.101 370.809 234.981 369.885ZM397.674 348.198C398.599 349.094 399.642 350.965 400.286 352.143C401.012 353.47 401.038 354.139 399.929 355.024C397.788 356.736 394.676 357.238 392.192 358.037C390.866 358.463 389.226 359.535 388.1 358.18C386.984 356.838 386.982 354.339 386.48 352.676C386.073 351.328 385.638 349.992 385.216 348.651C387.557 348.915 389.912 348.933 392.214 348.346C393.885 347.92 396.196 346.767 397.674 348.198ZM357.232 276.466C359.122 279.343 360.809 282.391 362.296 285.552C364.756 290.783 366.669 296.338 367.881 302.097C368.74 306.177 369.994 311.913 368.033 315.827C363.761 324.353 355.091 299.74 353.768 297.165C352.98 295.632 351.757 293.988 350.403 295.959C349.292 297.576 349.653 300.168 349.602 302.073C349.449 307.733 350.153 314.512 348.134 319.838C347.471 321.586 345.715 324.111 343.734 323.317C341.957 322.604 341.069 319.175 340.52 317.409C338.783 311.821 337.55 304.99 337.494 299.077C337.483 297.889 338.434 290.035 335.981 291.773C334.377 292.909 334.443 298.422 334.287 300.227C333.678 307.275 332.435 319.246 324.632 320.432C322.914 320.693 320.969 320.237 319.963 318.506C318.713 316.355 319.97 313.463 320.408 311.202C321.164 307.305 322.019 303.287 322.094 299.275C322.14 296.815 321.924 292.726 318.842 293.675C315.127 294.819 313.555 300.265 309.383 300.447C309.379 299.351 309.921 298.458 310.38 297.542C311.864 294.582 314.568 292.047 315.483 288.773C315.783 287.699 315.471 286.083 316.064 285.188C316.625 284.343 317.891 284.126 318.737 283.935C324.372 282.659 329.911 280.933 335.52 279.462C341.515 277.891 347.074 276.193 352.689 273.426C355.219 272.18 355.797 274.282 357.232 276.466ZM222.798 320.614C221.971 321.055 221.151 321.513 220.314 321.93C219.586 322.293 219.3 322.004 219.01 321.242C219.536 321.12 222.493 319.942 222.798 320.614ZM258.302 225.13C269.023 225.482 279.505 225.636 290.072 227.917C295.126 229.008 300.08 230.272 305.036 231.821C307.13 232.476 308.976 233.158 310.801 234.463C311.48 234.948 313.277 236.471 313.553 234.73C314.455 235.7 316.216 238.659 317.659 237.015C317.912 238.204 318.701 238.167 319.47 238.571C319.741 238.713 319.889 239.196 320.237 239.372C320.325 239.416 320.354 238.736 320.482 238.725C320.942 238.684 321.305 239.769 321.569 240.046C322.205 240.709 322.801 241.013 323.644 241.254C324.01 241.391 324.386 241.479 324.77 241.518C325.223 241.726 325.494 241.576 325.584 241.069C326.209 241.081 326.666 241.335 327.32 241.667C325.908 242.03 328.283 242.429 328.599 242.469C328.638 243.651 327.736 242.902 327.154 243.147C327.423 244.631 329.878 245.764 330.888 246.492C331.06 246.081 331.233 245.669 331.406 245.258C331.685 245.561 331.901 245.909 332.056 246.303C332.16 246.78 332.463 246.945 332.963 246.798C333.431 247.215 333.501 247.022 333.789 247.608C334.086 248.216 333.206 249.398 334.484 248.889C334.484 250.907 336.157 249.684 335.864 249.16C337.129 249.023 337.669 251.619 337.527 252.632C338.132 251.959 338.504 252.044 339.111 252.569L339.165 252.616L339.133 252.591C338.666 252.236 339.147 253.686 339.105 253.67L339.099 253.664C340.384 255.561 340.263 253.436 339.865 252.317C340.736 252.708 340.901 253.766 341.6 254.364C342.222 254.895 342.397 254.648 342.932 254.728C343.756 254.85 343.507 254.09 343.869 255.108C344.022 255.539 343.79 256.312 343.79 256.782C343.433 256.235 343.568 255.369 342.922 255.055C343.115 256.642 345.868 262.093 347.026 258.88C348.152 259.757 346.911 260.718 347.65 261.893C348.2 261.299 348.332 260.353 348.27 259.543C348.615 260.058 348.604 260.708 348.875 261.229C349.157 261.772 349.452 261.816 349.588 262.406C349.794 263.302 349.09 262.863 349.462 263.814C349.648 264.292 350.523 264.71 350.867 264.978C352.072 265.92 353.29 267.01 352.121 268.574C350.289 271.022 345.463 271.302 342.871 271.714C337.344 272.591 331.958 274.048 326.513 275.398C323.234 276.212 320.022 277.117 316.806 278.202C314.496 278.98 311.306 279.464 310.088 282.144C303.65 275.246 295.066 271.647 287.121 267.51C278.515 263.03 269.628 258.869 260.512 255.875C252.429 253.22 244.139 252.212 235.789 251.297C233.589 251.055 230.195 250.438 228.234 251.953C227.024 252.888 226.968 254.304 227.895 255.555C228.397 256.233 228.939 256.057 229.245 257.265C229.483 258.2 229.353 258.907 229.135 259.832C229.691 259.343 230.689 259.634 230.974 258.772L231.002 258.675L231.028 258.778C231.409 260.461 228.753 260.694 229.567 262.712L229.62 262.835C229.902 263.452 229.902 261.474 230.15 261.46C230.824 261.42 231.376 263.184 231.653 263.673C230.4 263.673 230.877 264.695 231.549 265.21C232.03 265.579 232.839 265.686 233.397 265.99C234.509 266.598 235.487 267.489 236.629 268.069C237.878 268.705 238.977 268.744 240.218 269.121C240.41 269.179 241.172 269.499 241.249 269.507C241.354 269.517 241.378 269.878 241.467 269.892C242.261 270.017 242.86 269.192 243.628 269.528C243.922 269.658 243.769 270.462 244.024 270.644C244.306 270.846 245.103 270.589 245.444 270.567C246.263 270.515 246.389 270.393 247.039 270.819C248.156 271.551 248.725 272.539 250.231 272.719C251.409 272.859 252.168 272.61 253.289 273.105C254.423 273.605 255.497 273.716 256.602 274.051C256.743 274.094 256.78 274.631 256.894 274.669C257.259 274.79 257.697 274.697 258.046 274.818C258.848 275.094 259.5 275.341 260.245 275.837C263.521 278.019 267.125 281.294 269.693 284.438C270.866 285.874 274.136 289.489 273.07 291.567C272.386 292.901 270.023 293.548 268.845 294.111C267.088 294.952 265.271 295.563 263.495 296.341C261.287 297.309 259.283 298.813 257.031 299.656C254.856 300.469 252.53 300.63 250.284 301.064C240.567 302.942 231.046 305.962 221.323 307.836C215.991 308.863 210.547 310.09 205.131 309.121C200.357 308.268 195.787 305.901 191.974 302.596C185.037 296.58 180.202 288.04 177.771 278.644C177.269 276.703 177.163 271.848 175.543 270.661C174.194 269.672 173.486 271.851 172.61 272.712C171.187 274.111 169.102 274.652 167.391 275.45C163.153 277.425 159.303 279.51 154.824 280.846C150.284 282.2 145.68 283.262 141.089 284.379C131.784 286.642 122.902 288.782 113.337 288.817C103.873 288.851 94.3728 289.25 85.0134 287.296C76.8264 285.587 68.5919 280.919 62.4717 274.581C59.3811 271.381 56.9976 267.339 54.5675 263.518C53.2636 261.469 52.0523 259.345 51.0344 257.099C50.286 255.449 48.9994 253.06 48.8677 251.189C48.7506 249.517 49.6227 249.754 51.1133 249.583C53.4059 249.321 55.7083 249.154 58.0022 248.89C62.6291 248.358 67.2401 247.68 71.8647 247.129C76.5843 246.567 81.2728 245.804 85.8576 244.403C87.2285 243.984 88.2416 243.456 89.2094 244.948C89.8332 245.909 89.8217 248.102 91.1238 246.492C93.627 250.034 97.2874 252.155 100.708 254.379C104.409 256.784 108.005 259.431 111.928 261.373C120.38 265.559 129.693 265.227 138.663 263.886C147.775 262.523 157.011 260.765 165.574 256.878C169.502 255.096 172.877 252.384 176.4 249.796C178.059 248.577 179.779 247.575 181.541 246.559C183.527 245.414 184.741 243.717 186.536 242.394C187.747 246.811 192.402 248.329 196.079 248.526C200.67 248.773 204.381 246.316 207.166 242.326C209.477 239.014 209.926 234.06 213.504 232.247C217.586 230.179 222.371 229.357 226.74 228.395C237 226.136 247.847 224.785 258.302 225.13ZM203.875 259.087C202.721 259.665 199.366 263.991 202.028 264.054C203.72 264.094 204.714 261.715 206.583 262.076C207.422 262.238 208.675 262.562 208.881 263.287C209.394 265.092 207.024 266.254 205.999 266.756C204.421 267.528 203.124 268.305 202.262 270.071C200.939 272.785 200.592 277.176 203.687 278.39C205.987 279.292 208.862 278.592 211.133 277.882C213.046 277.284 214.507 275.067 213.626 272.863C213.377 272.239 212.709 271.138 211.93 271.551C211.312 271.879 211.613 272.5 211.423 273.056C210.663 275.284 204.977 278.46 203.668 275.092C202.071 270.986 208.141 269.749 209.994 268.377C212.389 266.602 212.452 263.567 210.625 261.247C209.023 259.215 206.202 257.921 203.875 259.087ZM193.847 273.003C193.943 273.97 194.062 274.973 194.212 275.931C194.341 276.764 194.335 277.64 195.189 277.941C195.752 278.14 196.301 277.469 196.844 277.915C197.445 278.409 197.158 274.817 197.131 274.615C196.953 273.275 196.629 270.555 195.48 269.725C193.535 268.318 193.731 271.823 193.847 273.003ZM193.971 267.388C196.034 268.853 196.57 264.7 195.749 263.349C193.711 259.996 190.718 265.081 193.971 267.388ZM235.894 265.348C235.304 265.839 235.499 265.568 235.499 266.875C236.185 266.909 236.081 265.856 235.894 265.348ZM233.563 264.217C233.761 264.736 232.869 265.359 232.581 265.44C232.563 265.272 232.999 262.746 233.563 264.217ZM345.526 256.63C346.074 257.521 345.764 258.067 344.892 257.717L344.82 257.686L345.526 256.63ZM334.499 248.062L335.021 248.309C335.268 248.573 335.513 248.836 335.759 249.1C335.042 248.943 334.543 249.064 334.499 248.062ZM331.606 246.809C331.966 245.988 333.201 247.618 333.229 248C332.941 247.808 331.187 247.766 331.606 246.809ZM330.446 243.905C330.746 244.379 330.685 244.758 330.263 245.044C329.912 244.519 329.645 243.945 329.464 243.321C329.932 242.94 330.279 243.456 330.446 243.905ZM93.8611 185.237C94.766 185.692 94.293 187.259 94.2047 188.108C93.7849 192.153 93.1172 196.157 92.7031 200.201C92.1218 205.888 92.0398 211.644 91.0875 217.281C90.2185 222.421 88.7536 227.412 87.98 232.576C87.4626 236.031 88.4504 240.023 84.7731 241.071C81.4666 242.014 77.6967 242.065 74.3068 242.479C69.9397 243.013 65.5659 243.275 61.1798 243.513C59.1035 243.626 56.9634 243.655 54.9076 244.008C53.6963 244.215 52.1889 245.115 51.2574 243.859C50.3512 242.638 50.349 239.529 50.0661 237.97C49.6928 235.912 49.3576 233.842 49.1745 231.75C48.7604 227.012 49.3696 222.321 49.9295 217.631C50.5325 212.575 50.9954 207.497 51.6192 202.446C52.0217 199.19 51.9756 193.932 53.9747 191.304C55.7978 197.405 56.2917 203.883 56.3831 210.28C56.403 211.653 57.2046 219.546 59.3363 215.699C59.9286 214.628 59.9384 214.017 60.8592 213.112C61.8085 212.18 62.1405 211.434 62.4615 210.022C63.0432 207.464 63.1368 205.214 64.3946 202.914C66.955 198.233 67.9929 192.437 71.8053 188.657C71.8435 193.05 72.4101 197.801 71.6812 202.141C71.2228 204.868 69.3451 208.792 70.8933 211.49C71.6652 212.836 72.1117 212.434 73.0201 211.758C73.6023 211.325 73.5131 211.123 74.2442 210.689C74.9417 210.276 75.4905 210.295 76.1507 209.718C78.4872 207.675 78.6716 204.125 79.436 201.185C81.1216 194.696 86.9496 190.688 91.4129 186.674C91.8988 186.238 93.1145 184.862 93.8611 185.237ZM181.933 198.384C185.355 199.915 188.883 200.499 192.519 199.633C192.516 200.529 191.363 201.984 192.254 202.498C192.466 202.621 193.678 202.033 193.914 201.965C195.225 201.584 196.992 200.928 198.363 201.241C199.813 201.572 199.763 202.625 198.815 203.817C197.485 205.491 194.145 205.559 194.107 208.337C194.091 209.538 194.752 211.042 194.893 212.281C195.104 214.133 195.335 215.971 195.723 217.79C196.391 220.917 197.472 223.892 198.759 226.761C199.868 229.232 201.217 231.806 203.283 233.421C204.629 234.474 204.11 233.999 203.846 235.55C203.669 236.589 203.699 237.362 204.896 237.106C205.125 237.027 205.354 236.949 205.583 236.87C202.775 242.025 195.676 245.275 190.815 241.834C192.865 239.983 190.083 236.755 188.909 235.388C187.15 233.339 185.307 230.982 183.421 229.112C180.533 226.249 176.753 227.642 173.337 226.438C169.879 225.219 167.363 222.468 165.128 219.395C163.137 216.657 160.498 213.308 160.229 209.602C160.176 208.877 160.491 208.026 160.376 207.34C160.26 206.64 159.882 206.549 159.684 206.091C159.281 205.149 159.183 204.178 159.118 203.099C158.909 199.577 159.907 199.024 162.859 198.114C164.579 197.584 166.322 197.167 168.044 196.649C169.689 196.155 171.155 195.203 172.776 194.673C176.189 193.555 178.928 197.039 181.933 198.384ZM173.139 220.516C170.424 222.361 174.703 223.543 176.283 222.727C178.416 221.625 174.654 219.485 173.139 220.516ZM168.027 205.172C165.563 208.47 162.824 215.175 168.219 216.532C169.885 216.951 172.461 217.628 174.136 217.115C176.528 216.381 175.903 212.883 173.517 212.729C172.104 212.638 168.86 213.891 168.02 212.051C167.565 211.054 168.601 209.468 168.758 208.472C168.961 207.191 168.775 206.167 168.027 205.172ZM315.098 215.078L315.096 215.081C315.087 215.095 315.074 215.111 315.055 215.13L315.045 215.139L315.063 215.12L315.098 215.078ZM163.147 206.351C161.436 206.346 162.284 210.419 163.133 211.115C164.657 212.363 165.307 206.356 163.147 206.351ZM174.426 209.422C176.411 209.692 175.964 204.367 174.155 204.204C171.78 203.988 172.13 209.11 174.426 209.422ZM157.251 200.584C157.489 201.127 157.307 206.41 156.738 206.51C156.585 205.219 156.67 203.922 156.686 202.626L156.689 202.298C156.675 202.319 156.581 199.054 157.251 200.584Z" fill="#3F3F3F"/>
<path fill-rule="evenodd" clip-rule="evenodd" d="M269.232 19.1961C279.003 25.1544 290.211 29.2247 300.422 34.5908C302.978 35.9339 310.941 38.7225 310.864 41.2139C310.819 42.6705 308.426 44.4971 307.378 45.5066C305.583 47.236 303.894 48.9835 302.238 50.8129C294.655 59.1906 287.515 67.6473 279.297 75.6042C278.06 76.801 274.332 82.5158 273.129 79.6774C272.584 78.3905 273.033 76.9444 271.612 75.7446C270.88 75.1266 268.053 74.786 268.876 73.4605C269.425 73.6723 269.975 73.8848 270.524 74.096C270.097 73.0368 270.129 71.8762 269.489 70.8749C269.092 70.2528 268.315 69.9584 268.046 69.2579C267.674 68.2899 268.305 67.1651 268.199 66.1672C268.095 65.1723 267.494 64.2319 267.136 63.2931C265.009 57.7287 264.247 52.1192 263.158 46.378C262.081 40.6971 260.403 35.1941 259.744 29.45C259.048 23.3829 258.195 17.328 257.057 11.3094C259.088 11.5541 260.65 13.4485 262.086 14.5194C264.344 16.2026 266.796 17.7107 269.232 19.1961ZM261.571 77.9346C261.105 77.6203 260.74 77.2341 260.477 76.7764C265.266 74.7398 262.377 78.2143 261.571 77.9346ZM258.659 73.591C256.571 74.0849 255.072 74.185 253.462 73.4476C253.309 73.378 253.485 72.8389 253.21 72.7283C252.969 72.6324 252.602 72.7512 252.396 72.661C251.695 72.3549 250.468 73.0256 250.348 71.854C253.013 71.154 255.633 69.8624 258.446 69.6447C262.355 69.3427 262.174 72.7588 258.659 73.591ZM249.513 66.8373C246.664 67.4091 244.318 68.7446 241.291 68.3958C238.45 68.0693 235.982 66.8046 233.741 65.3473C239.347 63.9849 245.226 63.7391 250.827 62.4211C252.651 61.9922 255.047 60.8609 257.013 61.3168C259.196 61.8236 259.334 63.5793 259.988 65.177C256.494 65.7166 252.972 66.1432 249.513 66.8373ZM231.698 60.058C228.961 60.6192 226.164 61.8464 223.876 59.7285C223.506 59.3867 223.183 59.7279 223.227 58.675C223.273 57.5648 224.447 56.8497 225.456 56.4587C227.83 55.5399 231.158 56.1339 233.679 55.9987C237.701 55.784 241.794 55.0664 245.772 54.514C248.526 54.1318 251.371 53.2832 254.186 53.4506C256.359 53.58 258.981 55.17 255.814 56.33C252.93 57.3869 248.604 57.2248 245.479 57.6825C240.86 58.359 236.257 59.1227 231.698 60.058ZM229.025 49.0063C229.202 49.1614 229.379 49.3165 229.556 49.4716C229.527 49.4657 230.606 48.716 230.891 48.6944C232.279 48.5908 233.674 48.6727 235.064 48.6054C238.265 48.4504 241.492 47.9716 244.636 47.4443C247.197 47.0148 249.806 46.2744 252.443 46.46C254.725 46.6203 254.965 47.0218 255.115 48.9127C249.288 48.9127 243.287 48.8073 237.561 49.866C233.833 50.5549 229.725 52.6067 227.857 48.908C228.247 48.9408 228.635 48.9736 229.025 49.0063ZM232.667 41.0009C234.112 41.9454 238.05 40.3747 239.782 40.2178C241.662 40.0469 243.431 39.8696 245.254 39.4675C246.869 39.1105 252.215 37.3279 253.454 39.0327C255.354 41.6446 247.661 42.1239 246.441 42.2533C241.326 42.7958 236.019 43.2768 231.041 44.4286C231.583 43.2862 232.125 42.1438 232.667 41.0009ZM239.684 32.1292C240.057 33.3366 251.625 28.8876 251.836 32.1211C251.998 34.6019 240.391 35.8379 238.304 35.6202C238.793 34.4778 240.093 33.4548 239.684 32.1292ZM243.568 24.5405C243.814 22.1053 244.194 22.1193 246.469 21.8899C248.204 21.7149 250.589 20.8418 250.138 23.4964C249.751 25.7695 243.32 26.9979 243.568 24.5405ZM247.703 16.1616C248.25 14.8542 249.482 16.614 249.508 17.2788C249.577 19.048 248.014 18.6653 246.51 18.6653C246.929 17.8389 247.327 17.0032 247.703 16.1616ZM266.742 6.34778C266.435 6.03058 264.713 5.90943 264.223 5.75551C263.017 5.37628 263.188 4.56807 261.646 5.36517C261.569 5.29845 261.716 4.69917 261.632 4.67166C261.59 4.65762 260.509 4.30764 260.158 4.11451C259.311 3.64866 258.547 3.19277 257.769 2.60811C256.941 1.98718 256.112 1.08591 255.166 0.591385C254.767 0.383041 254.442 0.0874953 253.961 0.0237044C252.714 -0.141333 253.071 0.604257 251.981 0.752322C251.31 0.843619 250.821 0.170596 249.943 0.460873C249.184 0.711355 248.744 1.62491 248.405 2.1686C247.176 4.14728 246.228 6.27696 245.025 8.27672C238.871 18.5026 231.877 28.3404 225.916 38.6617C223.046 43.6338 220.05 48.6405 218.029 53.9247C216.572 57.7357 213.282 63.3031 216.113 67.1112C218.171 69.88 222.292 71.0756 225.58 72.4135C230.528 74.4267 235.089 77.0579 240.091 79.0097C246.055 81.3372 251.848 83.7718 257.662 86.3708C260.141 87.4792 262.379 89.0758 264.85 90.1257C266.361 90.7677 268.696 89.6721 269.188 91.144C271.083 89.1741 274.149 90.4874 276.341 89.1004C277.63 88.2845 278.572 86.6775 279.647 85.6726C281.26 84.1662 283.011 82.7687 284.657 81.2886C291.189 75.4099 297.22 69.2871 303.163 62.973C308.839 56.9433 315.471 51.2466 320.265 44.6463C322.17 42.0262 322.515 39.2785 321.258 36.3839C320.34 34.2724 318.13 31.084 314.973 32.4821C316.17 30.7756 311.552 28.9532 310.151 28.6196C310.13 28.6149 309.854 29.9258 309.463 29.8931C309.602 29.9048 308.289 26.9885 307.712 26.6145C306 25.502 303.916 24.204 302.048 23.2881C300.334 22.4482 298.525 22.0321 296.865 21.0923C294.852 19.9534 293.005 18.6027 290.985 17.4714C289.034 16.3793 286.86 15.0883 284.705 14.3374C282.835 13.6861 281.157 13.5585 279.475 12.491C277.394 11.1701 275.579 10.2741 273.18 9.36409C271.104 8.57694 268.227 7.8893 266.742 6.34778Z" fill="#3F3F3F"/>
<path fill-rule="evenodd" clip-rule="evenodd" d="M342.678 90.4015C338.208 88.5064 330.731 88.9158 329.625 95.7514C329.162 98.6128 330.064 101.639 331.732 103.719C333.668 106.129 336.75 106.352 336.586 102.155C336.471 99.2498 334.136 96.7267 338.241 96.1411C340.795 95.7772 344.573 98.0392 344.7 101.38C344.988 108.911 333.979 109.502 329.922 108.199C321.869 105.616 324.057 95.6288 329.587 91.0711C331.015 89.8931 335.114 88.0791 335.301 85.6331C335.55 82.3889 332.162 83.0516 330.501 83.4789C318.295 86.6252 315.635 110.838 328.389 115.403C334.181 117.475 342.337 115.335 345.828 109.124C349.101 103.3 349.145 93.1432 342.678 90.4015Z" fill="#3F3F3F"/>
<path fill-rule="evenodd" clip-rule="evenodd" d="M154.019 61.4358C149.442 62.8423 144.865 64.2487 140.289 65.6551C138.776 63.5886 136.219 57.9431 132.382 57.2223C126.169 56.0551 130.125 62.2091 131.197 63.6161C132.078 64.7719 134.121 66.5627 133.625 67.9403C132.96 69.7964 128.858 70.4538 126.71 71.4113C121.397 73.7815 121.439 78.7594 129.134 76.65C133.489 75.456 138.881 72.1449 142.218 75.9043C143.759 77.6388 147.411 87.3297 151.224 80.9921C153.584 77.0683 142.226 72.9917 147.826 69.6723C149.628 68.6042 151.738 68.514 153.539 67.9C157.888 66.4168 155.436 63.6763 154.019 61.4358Z" fill="#3F3F3F"/>
</svg>
