<svg width="701" height="570" viewBox="0 0 701 570" fill="none" xmlns="http://www.w3.org/2000/svg">
<path fill-rule="evenodd" clip-rule="evenodd" d="M518.146 124.112C521.159 126.086 520.78 130.062 519.955 132.959C518.739 137.225 516.212 141.194 513.304 144.626C508.145 150.714 499.306 157.595 490.89 152.439C483.395 147.846 478.515 138.431 476.72 130.466C476.166 128.005 475.418 124.336 477.71 122.446C481.098 119.653 487.199 120.063 491.374 120.356C494.124 120.548 496.791 121.299 499.494 120.889C505.776 119.935 512.807 120.614 518.146 124.112Z" fill="#61B3FF"/>
<path fill-rule="evenodd" clip-rule="evenodd" d="M223.203 321.876C223.551 322.707 226.306 322.162 227.021 322.184C229.144 322.25 231.042 322.689 233.22 322.433C234.888 322.238 237.419 321.592 238.861 322.159C238.982 322.207 238.708 322.702 238.925 322.739C239.207 322.787 239.418 322.559 239.732 322.478C240.474 322.285 241.172 321.669 241.721 322.422C242.519 320.549 242.681 322.351 243.469 322.483C244.301 322.622 244.293 321.345 245.199 321.349C245.919 321.353 246.079 321.937 246.929 321.714C248.107 321.407 249.033 320.813 250.277 320.678C251.684 320.526 252.688 320.119 254.055 319.681C255.249 319.299 256.463 319.334 257.665 318.988C260.773 318.094 263.905 316.854 266.961 315.578C272.774 313.153 278.475 310.914 284.027 307.373C286.059 306.077 287.649 304.517 289.434 302.764C290.646 301.573 292.797 299.256 294.348 299.996C294.281 298.597 295.592 297.636 296.469 296.943C297.824 295.874 299.042 294.705 300.265 293.397C301.416 292.166 302.327 290.877 303.215 289.39C303.889 288.263 304.426 287.112 305.191 288.508C306.715 291.288 302.881 295.499 301.21 297.38C298.446 300.492 295.677 303.662 292.631 306.353C286.951 311.372 280.799 315.758 274.354 318.716C271.024 320.244 267.599 321.506 264.178 322.366C261.123 323.134 258.248 323.3 255.208 323.69C253.397 323.923 251.625 324.346 249.819 324.407C249.117 324.43 248.413 324.508 247.725 324.424C247.547 324.403 247.327 324.063 247.212 324.054C246.935 324.035 246.655 324.302 246.235 324.335C245.735 324.375 245.282 324.233 244.869 324.359C244.701 324.411 244.195 324.916 243.762 325.022C243.058 325.194 242.535 325.236 241.944 324.871C241.444 324.561 241.168 323.765 240.533 323.722C240.509 324.195 240.486 324.669 240.462 325.142C239.905 324.726 239.547 324.942 239.003 324.696C239.109 324.744 237.88 324.122 238.024 324.103C237.925 324.116 237.399 324.824 237.025 324.955C235.483 325.496 233.976 324.598 232.516 324.465C231.017 324.328 229.514 324.327 228.005 324.183C226.895 324.077 221.589 323.94 222.033 321.613C222.457 321.573 222.847 321.661 223.203 321.876Z" fill="#3F3F3F"/>
<path fill-rule="evenodd" clip-rule="evenodd" d="M299.301 271.354C292.463 264.636 285.625 257.918 278.788 251.2C266.272 270.456 243.965 280.078 226.686 271.645C222.475 269.59 218.657 266.036 217.727 260.409C217.027 256.177 218.05 251.561 219.779 247.476C221.236 244.035 223.272 240.498 225.832 237.994C229.048 234.847 233.341 232.78 236.952 230.519C242.549 227.015 248.172 223.584 253.802 220.176C254.54 219.729 256.464 219.041 257.008 218.241C257.462 217.571 257.592 215.757 257.779 214.964L258.658 211.229C251.255 212.921 243.394 213.126 236.375 211.316C224.689 208.301 217.626 196.03 211.351 185.132C210.233 183.189 209.148 181.215 208.108 179.205C207.91 178.819 207.497 177.457 207.132 177.29C206.643 177.066 205.038 177.849 204.507 177.991C202.671 178.48 200.835 178.97 198.999 179.46C194.529 180.653 190.123 181.483 185.826 183.669C167.59 192.948 147.734 204.76 135.714 224.831C128.881 236.239 123.456 248.779 118.962 261.46C118.349 263.189 117.327 265.292 117.163 267.106C116.862 270.431 117.565 274.149 117.752 277.404C117.989 281.54 118.225 285.676 118.462 289.812C118.488 290.268 118.389 291.39 118.622 291.718C119.108 292.401 121.217 292.604 121.937 292.845C126.066 294.232 130.205 295.629 134.422 296.736C138.213 297.731 142.087 297.22 146.073 296.589C148.292 296.237 150.511 295.822 152.727 295.369C153.225 295.267 155.565 295.184 155.955 294.678C156.126 294.456 156.013 293.239 156.023 292.961C156.09 291.192 156.185 289.42 156.297 287.648C157.089 275.133 158.561 262.141 162.348 249.915C166.293 237.178 174.584 228.107 184.083 220.697C187.578 217.971 191.198 215.489 194.899 213.264C195.548 212.873 196.822 211.777 197.535 211.742C198.107 211.713 198.384 212.341 198.823 212.874C200.094 214.416 201.365 215.957 202.635 217.499C202.977 217.913 204.408 219.107 204.422 219.724C204.433 220.244 203.379 221.754 203.156 222.209C202.207 224.136 201.304 226.091 200.44 228.063C194.779 240.987 190.155 255.434 190.079 269.43C190.007 282.647 194.042 295.326 201.356 304.26C208.922 313.502 219.328 317.424 230.752 316.928C251.069 316.045 274.029 306.088 289.381 287.395C293.312 282.609 296.703 277.202 299.301 271.354Z" fill="#61B3FF"/>
<path fill-rule="evenodd" clip-rule="evenodd" d="M470.85 305.248C473.988 307.168 475.772 311.181 476.036 315.531C476.159 317.541 475.461 320.536 476.319 322.221C477.345 324.238 479.49 322.748 480.793 324.067C483.764 327.077 479.65 331.712 477.098 332.318C475.063 332.8 473.024 333.029 470.999 333.336C469.097 333.624 467.954 335.573 466.627 337.315C468.197 337.128 469.758 336.776 471.335 336.603C472.013 336.529 473.024 336.202 473.709 336.313C474.535 336.447 474.981 337.211 475.752 337.448C477.079 337.856 478.144 336.852 478.428 339.017C478.638 340.613 477.788 342.428 476.568 343.104C477.422 344.397 479.684 344.916 480.929 345.528C482.733 346.414 484.6 347.048 486.207 348.422C486.66 344.604 486.98 341.578 488.9 338.212C489.831 336.577 491.79 331.932 493.367 331.349C493.841 331.174 494.461 331.345 494.95 331.211C495.458 331.072 495.789 330.57 496.336 330.598C497.331 330.649 498.231 332.174 498.709 333.162C499.916 335.659 499.407 339.449 498.976 342.299C498.531 345.244 497.85 348.931 496.552 351.581C496.25 352.197 495.934 352.891 495.395 353.231C495.003 353.478 494.361 353.203 494.048 353.494C492.91 354.554 494.223 355.327 494.913 356.093C496.676 358.049 498.176 359.927 499.336 362.452C500.315 364.583 501.925 367.205 501.929 369.831C503.539 367.691 504.785 365.228 506.109 362.836C506.861 361.477 506.839 361.764 506.344 360.645C505.957 359.773 505.208 358.836 504.585 358.197C503.31 356.89 501.998 355.488 501.851 353.193C501.739 351.457 502.865 348.362 503.501 346.669C504.314 344.505 505.953 342.93 507.644 344.377C508.897 345.448 509.149 348.923 510.416 349.513C511.847 350.179 512.174 345.671 512.46 344.436C512.993 342.133 514.448 338.307 514.099 335.971C513.828 334.152 511.613 333.009 510.532 331.826C508.927 330.068 507.4 327.873 506.407 325.496C505.388 323.058 505.784 320.696 506.338 318.002C506.661 316.43 507.383 312.139 509.406 313.232C510.57 313.862 514.956 323.575 516.316 320.373C516.699 319.471 516.385 317.087 516.408 316.011C516.424 315.226 516.877 311.518 516.514 310.965C516.375 310.753 514.491 310.27 514.108 309.914C513.192 309.059 512.555 307.986 512.097 306.681C510.582 302.355 513.636 296.051 517.534 295.325C520.075 294.852 521.279 296.034 522.364 298.606C523.415 301.096 526.152 300.288 528.309 301.049C528.895 299.673 527.752 296.772 527.524 295.379C527.189 293.327 526.802 291.193 526.825 289.06C526.869 284.898 528.164 280.513 529.682 276.714C528.386 276.848 526.597 276.601 525.586 277.702C524.573 278.805 523.898 281.187 522.992 282.539C521.245 285.146 519.255 287.985 517.038 289.989C514.143 292.606 513.288 291.198 511.639 288.403C509.967 285.569 511.455 281.895 512.552 278.663C510.979 278.228 509.054 278.633 507.435 278.815C505.968 278.98 503.272 278.818 501.929 279.789C500.924 280.514 501.143 281.416 500.867 282.986C500.495 285.11 499.968 287.244 499.202 289.244C497.643 293.312 495.067 294.536 492.491 291.617C491.288 293.204 489.934 295.323 488.269 296.14C486.635 296.943 483.712 297.471 481.989 297.481C479.82 297.493 478.246 296.165 476.631 294.672C475.84 293.941 475.66 293.381 474.841 293.833C474.235 294.168 473.281 295.91 472.638 296.486C471.917 297.13 471.14 297.713 470.382 298.283C470.025 298.581 469.658 298.857 469.281 299.112C468.5 299.272 468.18 299.806 468.323 300.714C467.643 302.381 467.336 304.183 466.728 305.875C466.01 307.874 464.746 308.89 463.136 309.514C462.587 309.656 462.042 309.832 461.504 310.045C460.595 309.99 460.335 310.427 460.725 311.355C460.584 312.546 461.345 314.44 461.756 315.421C462.478 313.699 464.693 311.899 466.142 312.777C467.827 313.798 467.594 316.351 467.23 318.331C468.425 317.774 469.496 316.914 470.564 316.042C471.083 315.618 471.915 315.146 472.329 314.556C473.048 313.535 472.93 314.086 472.687 312.598C472.418 310.952 469.483 306.712 470.85 305.248Z" fill="#61B3FF"/>
<path fill-rule="evenodd" clip-rule="evenodd" d="M489.923 241.781C488.307 242.153 488.09 242.927 486.808 243.693C485.503 244.472 483.294 243.561 481.694 244.013C480.854 244.25 480.294 244.759 479.544 245.234C479.09 245.522 479.121 245.698 478.658 245.886C478.416 245.983 477.921 245.8 477.644 245.849C475.723 246.196 475.234 248.891 473.985 249.322C473.024 249.654 472.689 248.826 471.584 249.613C470.959 250.058 470.29 250.93 469.9 251.67C469.709 252.032 469.416 253.283 469.266 253.46C468.792 254.019 468.994 253.71 468.562 254.011C467.675 254.628 466.727 254.543 465.705 255.622C464.318 257.086 462.741 258.206 462.187 260.441C462.093 260.82 462.041 261.172 462.013 261.512L462.047 261.313C461.973 261.755 461.898 262.196 461.825 262.637C461.888 262.262 461.951 261.887 462.013 261.513C461.949 262.274 462.002 262.976 461.96 263.792C461.919 264.595 462.005 264.604 461.801 265.165C461.663 265.543 461.065 266.017 460.868 266.575C459.321 270.947 464.573 276.459 467.879 274.204C468.726 277.518 469.21 280.97 470.006 284.297C470.443 286.12 473.354 290.543 472.958 291.779C472.632 292.799 470.613 293.333 469.878 293.775C468.545 294.578 467.229 295.571 465.935 296.473C464.811 297.257 463.722 298.101 462.621 298.912L462.656 298.904C462.068 299.019 461.597 299.386 461.206 299.923C460.457 300.437 459.694 300.918 458.902 301.341C457.684 301.991 457.366 302.111 456.705 303.557C456.029 305.037 456.71 304.558 455.515 305.439C453.194 307.152 449.903 307.705 447.375 308.79C441.768 311.195 436.43 312.256 430.785 310.531C425.717 308.983 421.225 305.491 416.645 302.675C412.11 299.887 407.621 296.875 403.413 293.465C399.434 290.238 395.519 286.85 391.96 282.929C389.965 280.731 387.817 278.743 385.926 276.414C384.068 274.127 382.381 271.621 380.482 269.397C376.762 265.039 372.793 260.832 368.794 256.83C367.655 255.69 366.544 254.508 365.439 253.319C364.774 252.604 363.511 250.577 362.5 250.73C359.347 251.205 361.835 256.36 362.183 257.836C360.787 256.709 359.727 255.127 358.261 254.073C357.511 253.534 355.481 251.678 354.545 252.31C352.349 253.791 356.423 259.626 357.033 260.952C355.874 259.953 352.034 256.064 350.656 258.868C349.213 261.803 352.723 265.72 353.957 267.527C357.596 272.856 362.016 277.184 365.746 282.372C366.261 283.088 368.032 284.719 367.742 285.906C367.472 287.015 365.53 288.16 364.801 288.85C363.368 290.207 358.805 294.63 361.064 297.245C361.861 298.167 364.505 297.681 365.595 297.631C367.193 297.558 368.761 297.53 370.36 297.339C372.711 297.058 375.224 295.023 377.531 295.132C380.124 295.255 382.568 298.312 384.628 299.86C387.047 301.679 389.343 303.661 391.745 305.513C396.332 309.048 400.649 312.94 405.43 316.181C410.672 319.734 416.451 322.233 421.601 325.973C426.842 329.779 432.151 331.295 438.354 331.578C444.409 331.855 451.44 327.461 456.713 323.636C457.018 323.413 457.323 323.189 457.628 322.966C458.254 322.044 458.703 322.057 458.975 323.003C459.731 323.224 460.034 323.4 460.967 323.398C462.49 323.394 463.293 323.038 464.751 322.522C468.056 321.353 470.557 320.434 473.171 317.277C474.068 322.067 469.82 326.684 467.425 330.173C466.105 332.096 464.648 333.913 463.464 335.963C462.502 337.628 461.909 340.29 460.372 340.928C459.454 341.309 459.009 340.514 458.298 341.541C457.834 342.213 458.155 343.055 458.158 343.655C458.169 345.181 459.012 343.103 458.324 345.294C458.107 345.985 457.147 347.259 456.804 347.882C454.465 352.131 452.437 356.612 450.342 361.035C448.259 365.434 446.194 369.791 444.14 374.202C443.254 376.105 442.123 377.833 441.265 379.76C440.219 382.11 439.453 384.591 438.44 386.962C436.868 390.643 436.059 395.618 436.521 399.598C436.973 403.496 440.444 407.756 443.613 407.775C441.732 411.249 439.698 414.345 437.763 417.75C435.95 420.94 434.537 424.392 432.685 427.458C430.576 430.948 428.65 434.701 426.546 438.117C424.768 441.002 423.469 444.349 421.772 447.29C417.901 453.995 414.108 460.985 410.025 467.617C407.65 471.475 405.448 475.465 403.047 479.307C401.763 481.362 400.458 483.396 399.157 485.435C398.406 486.612 397.4 489.252 396.194 489.751C396.47 490.2 397.403 491.256 397.367 491.874C397.272 493.519 395.987 492.954 395.264 492.665C393.427 491.932 391.664 491.177 389.92 490.205C386.58 488.345 383.487 485.848 380.088 484.145C376.559 482.376 373.373 479.54 369.659 478.134C367.969 477.494 362.579 473.98 361.77 476.479C361.617 476.952 361.73 478.128 361.656 478.711C361.527 479.741 361.199 480.643 361.19 481.725C361.174 483.796 361.842 485.922 362.526 487.71C364.166 491.988 366.072 496.209 368.468 499.872C372.576 506.154 375.983 514.402 381.416 519.097C382.494 520.029 383.433 521.599 384.712 522.148C386.132 522.759 387.461 522.253 388.79 522.295C389.521 522.319 389.502 522.822 390.426 522.488C391.185 522.213 392.239 521.209 392.895 520.685C394.549 519.364 396.019 517.639 397.453 515.969C398.721 514.493 400.223 511.597 401.807 510.719C402.686 510.231 402.536 511.12 403.413 509.944C403.898 509.295 404.017 508.6 404.597 507.957C405.215 507.271 405.563 507.195 406.02 506.342C406.339 505.747 406.42 505.147 406.813 504.541C408.12 502.523 409.933 500.851 411.314 498.862C413.377 495.891 415.872 493.382 418.014 490.507C420.576 487.068 423.376 483.663 426.098 480.419C431.342 474.169 436.308 467.206 441.361 460.562C446.826 453.374 452.05 445.65 456.831 437.774C459.394 433.552 462.367 429.508 465.026 425.345C467.625 421.276 470.082 416.99 473 413.257C473.418 413.758 472.42 415.367 472.919 416.102C473.44 416.872 476.277 417.14 477.033 417.37C479.614 418.158 482.358 419.024 485.034 419.376C490.545 420.101 495.844 421.952 501.393 422.721C502.634 422.893 503.653 422.732 504.894 422.523C506.755 422.209 507.126 421.971 507.234 424.196C507.4 427.581 507.64 431.207 507.487 434.611C507.328 438.127 506.958 441.629 506.579 445.141C506.399 446.815 506.236 448.492 506.031 450.164C505.732 452.595 504.915 454.922 504.728 457.358C504.49 460.463 504.609 463.19 507.084 464.278C508.468 464.887 508.526 464.641 509.662 463.746C510.856 462.807 512.381 461.996 513.429 460.852C517.323 456.598 520.736 450.469 522.47 444.491C524.435 437.717 523.773 430.179 524.023 423.301C524.128 420.41 524.586 415.787 523.223 413.369C521.766 410.786 518.19 410.567 515.846 410.338C515.31 410.285 514.904 410.183 514.56 410.036C514.643 410.034 514.724 410.035 514.804 410.044L514.355 409.939C513.745 409.624 513.308 409.149 512.582 408.544C511.562 407.694 510.001 407.176 508.869 406.505C505.794 404.68 502.455 403.609 499.316 401.955C496.778 400.617 494.203 399.74 491.588 398.701C489.675 397.94 487.618 397.653 485.679 397.067C485.91 397.054 486.141 397.04 486.358 397.096C485.933 396.677 485.396 396.841 484.896 396.81C484.428 396.643 483.969 396.451 483.523 396.223C487.475 389.48 491.173 382.578 495.436 376.097C495.988 377.865 497.265 378.003 498.834 377.547C499.711 377.291 500.182 376.296 501.011 375.997C501.528 375.81 501.738 376.525 502.309 376.076C502.642 375.815 502.946 374.821 503.223 373.971C506.531 370.619 508.38 366.658 510.277 362.025C509.03 364.19 507.861 366.431 506.583 368.57C506.293 369.055 505.939 369.542 505.564 370.033L505.674 369.875C506.182 369.146 506.68 368.405 507.134 367.607C511.149 360.562 513.68 353.533 515.676 345.464C517.463 338.239 518.568 330.544 519.244 323.146L519.168 324.093C519.194 323.771 519.22 323.448 519.246 323.126L519.244 323.146C519.292 322.63 519.333 322.118 519.368 321.609L519.368 321.609C519.586 318.447 519.573 315.393 519.351 312.229C519.265 310.992 518.994 309.16 519.117 307.948C519.192 307.213 519.791 303.636 520.008 303.451C520.848 302.738 523.686 303.587 524.495 303.761C525.968 304.078 527.42 304.494 528.892 304.814C529.189 304.875 529.485 304.936 529.782 304.996C530.381 304.862 530.778 305.1 530.973 305.709C531.739 305.946 530.649 306.669 531.839 305.972C533.221 305.163 533.594 301.754 533.783 300.209C533.854 299.625 533.799 297.124 534.176 296.72C534.466 296.409 536.173 296.686 536.609 296.679C538.264 296.652 539.94 296.545 541.59 296.602C544.848 296.713 548.124 297.089 551.36 297.379C557.112 297.892 562.178 301.589 566.55 305.649C568.569 307.524 570.88 308.906 572.866 310.814C574.821 312.691 576.467 314.934 578.374 316.893C581.041 319.633 583.898 321.981 586.306 325.063C587.459 326.539 589.044 328.05 589.792 329.938C590.545 331.834 589.648 333.832 589.441 335.916C589.217 338.174 588.817 340.556 588.867 342.792C588.884 343.567 588.806 345.036 589.318 345.585C590.098 346.422 589.945 345.845 590.752 345.398C594.244 343.462 595.309 339.379 596.709 335.518C600.993 344.822 603.323 355.348 607.281 364.926C607.887 366.393 608.881 369.477 610.675 368.174C611.754 367.391 612.119 365.719 612.2 364.082L612.145 364.534C612.198 364.102 612.25 363.671 612.303 363.241C612.268 363.52 612.234 363.8 612.2 364.079C612.254 362.981 612.181 361.899 612.109 361.113C611.84 358.167 611.656 355.163 610.872 352.389C610.479 350.999 609.969 349.67 609.567 348.285C609.361 347.577 608.633 346.143 608.763 345.378C608.981 345.821 609.199 346.263 609.416 346.706C610.587 347.563 611.258 350.075 612.155 351.372C612.97 352.552 613.915 353.738 614.813 354.875C616.459 356.958 617.839 359.188 619.149 361.667C619.944 363.172 621.006 364.629 622.176 362.092C623.07 360.153 622.253 358.276 621.702 356.509C620.982 354.199 620.232 352.1 619.157 350.035C618.245 348.287 616.899 346.392 616.713 344.269C618.696 346.348 620.414 348.723 622.614 350.504C624.364 351.922 627.441 352.111 626.719 348.241C626.195 345.431 623.97 341.884 622.476 339.745C620.924 337.52 619.088 335.419 617.382 333.357C613.416 328.563 608.839 324.514 604.579 320.105C600.689 316.079 596.677 312.251 592.806 308.305C584.114 299.443 575.738 289.648 565.106 284.088C560.169 281.507 554.906 279.376 549.659 277.771C546.951 276.943 544.082 275.844 541.289 275.455C540.26 275.311 539.231 275.469 538.215 275.306C537.159 275.137 535.801 275.374 534.788 274.985C533.722 274.577 532.922 273.039 531.815 273.035C531.45 273.035 531.059 273.476 530.688 273.49C530.688 273.49 530.688 273.49 530.688 273.49C530.24 273.392 529.848 272.9 529.362 273.343C529.363 273.344 529.362 273.344 529.362 273.344C527.834 273.27 526.312 273.168 524.786 273.135L524.849 273.176C524.34 272.827 523.789 272.832 523.214 273.043C523.555 273.071 523.896 273.099 524.237 273.126C523.05 273.114 521.86 273.151 520.663 273.282C515.474 273.85 509.495 273.875 504.359 275.968C504.385 275.94 504.41 275.911 504.435 275.88C504.017 275.731 503.665 275.912 503.355 276.302C503.4 276.322 503.443 276.338 503.485 276.35C502.897 276.622 502.323 276.925 501.763 277.262C501.229 275.122 502.614 275.87 504.063 275.209C505.664 274.48 506.973 273.51 508.267 272.147C509.374 270.983 510.379 269.497 510.265 267.614C510.206 266.639 509.386 266.185 509.316 265.469C509.292 265.225 509.917 264.472 509.98 264.131C510.131 263.313 510.208 262.683 510.151 261.861C509.86 257.691 510.824 252.452 507.265 250.374C506.495 249.925 506.462 250.35 505.95 249.507C505.455 248.691 505.389 247.399 504.816 246.515C503.723 244.826 502.267 243.458 500.55 242.823C498.75 242.156 497.079 242.815 495.299 242.587C493.369 242.34 492.03 241.296 489.923 241.781ZM366.737 483.915C367.906 485.365 369.122 486.797 370.349 488.174C373.156 491.324 375.714 494.728 378.325 498.121C380.687 501.19 383.275 503.979 385.769 506.883C388.139 509.642 390.161 512.832 392.329 515.836C390.56 516.874 388.583 518.459 386.682 517.735C385.14 517.147 383.458 515.272 382.214 514.041C379.316 511.177 377.06 507.373 374.779 503.802C372.544 500.3 370.416 496.886 368.342 493.274C366.009 489.213 364.472 485.401 363.152 480.659C364.711 479.613 365.898 482.875 366.737 483.915ZM389.467 495.156C391.251 496.063 393.154 496.555 394.936 497.422C396.488 498.176 397.647 500.24 398.479 501.944C399.024 503.063 399.316 504.35 399.782 505.545C400.045 506.221 401.163 507.854 401.072 508.485C400.953 509.3 398.799 511.189 398.274 511.779C397.303 512.872 396.311 513.936 395.306 514.981C394.421 511.545 391.689 508.493 389.674 506.018C387.583 503.449 385.373 500.895 383.195 498.342C378.385 492.705 373.886 487.162 368.56 482.187C369.037 481.17 387.392 494.099 389.467 495.156ZM398.768 493.964C400.23 496.858 402.577 500.184 402.73 503.83C401.794 502.129 401.008 500.279 400.114 498.541C399.725 497.785 399.307 497.105 398.851 496.41C398.017 495.136 397.694 495.217 398.768 493.964ZM462.927 345.863C466.462 346.495 469.984 347.576 473.392 348.828L473.555 348.842C473.296 348.82 473.041 348.8 472.786 348.779C472.989 348.796 473.192 348.813 473.394 348.829C474.217 349.131 475.034 349.444 475.842 349.762C483.811 352.9 491.439 358.457 496.501 366.534L496.671 366.808C496.884 367.376 497.44 368.193 497.224 368.916C497.665 368.636 497.825 368.377 497.814 368.129C497.859 368.235 497.896 368.349 497.924 368.472C496.078 369.643 494.639 372.566 493.281 374.508C491.75 376.696 490.084 378.734 488.6 380.976C485.375 385.848 482.237 390.897 479.254 395.988C474.091 404.799 468.041 413.065 462.507 421.546C456.982 430.014 451.677 438.37 446.154 446.826C440.276 455.827 433.761 464.226 427.754 472.978C424.171 478.196 420.213 483.041 416.565 488.201C413.113 493.086 409.702 497.973 406.202 502.807C405.306 497.378 402.871 492.577 399.076 489.55C405.847 480.195 412.393 470.687 418.559 460.73C423.871 452.151 428.685 443.502 433.706 434.789C438.653 426.205 443.55 417.608 448.537 409.035C451.028 404.753 453.236 400.22 455.472 395.715C457.851 390.923 459.258 385.481 461.774 380.794C462.95 378.603 464.489 376.089 464.681 373.451C464.863 370.964 463.771 368.319 462.937 366.232C462.442 364.994 461.616 361.597 460.309 361.471C457.951 361.244 460.04 367.439 460.27 368.643C461.329 374.188 458.404 378.661 456.046 383.35C453.744 387.93 451.771 392.773 449.364 397.288C448.353 399.183 447.336 401.031 446.392 402.961C446.066 403.627 445.126 405.827 444.479 405.998C444.108 406.096 442.513 404.538 442.267 404.301C441.017 403.098 439.361 401.05 438.743 399.22C438.131 397.408 438.817 394.462 439.415 392.629C441.15 387.307 444.061 382.351 446.471 377.424C449.001 372.252 451.633 367.02 453.917 361.694C455.151 358.817 456.3 355.906 457.613 353.072C458.358 351.461 459.128 349.865 459.931 348.292C460.952 346.293 461.101 345.537 462.927 345.863ZM518.606 415.615C520.204 416.788 520.596 417.37 520.672 419.706C520.751 422.135 520.308 424.488 520.222 426.915L520.221 426.931L520.196 427.357C520.204 427.216 520.213 427.076 520.221 426.935L520.222 426.915C520.088 430.687 520.027 434.465 519.772 438.183C519.439 443.045 517.465 447.443 515.261 451.523C514.29 453.319 513.312 455.062 511.99 456.523C511.179 457.421 510.274 458.164 509.375 458.913C508.239 459.86 508.008 460.484 507.513 459.03C506.905 457.242 507.886 454.507 508.337 452.671C509.048 449.777 509.569 447.002 509.893 444.029C509.961 442.682 510.056 441.335 510.155 439.988C510.168 439.879 510.182 439.771 510.195 439.662L510.155 439.985C510.396 436.694 510.659 433.403 510.61 430.113C510.592 428.93 510.541 427.75 510.443 426.581C510.354 425.514 509.71 423.537 509.902 422.514C510.096 421.482 511.634 419.655 512.086 417.95C512.345 416.972 512.472 415.924 512.635 414.928C512.873 413.485 512.634 413.11 513.696 412.792C514.967 412.412 517.639 414.905 518.606 415.615ZM537.727 405.763C537.983 407.531 539.652 409.411 540.467 410.781C542.693 414.522 544.315 418.271 545.911 422.474C548.472 429.216 550.61 437.002 551.1 444.682C554.502 446.191 554.341 437.072 554.062 435.286C553.377 430.904 552.485 426.579 551.141 422.489C549.908 418.739 548.103 414.635 546.139 411.431C545.327 410.106 544.377 408.495 543.468 407.249C542.668 406.151 540.892 403.493 539.764 403.161C538.448 402.773 537.468 403.967 537.727 405.763ZM414.212 368.708C411.579 373.276 409.872 379.049 408.499 384.262C407.255 388.984 406.099 394.16 405.623 399.021C405.423 399.846 405.283 400.68 405.175 401.518L405.099 402.28C405.161 401.661 405.222 401.042 405.284 400.423C405.007 401.019 404.91 401.624 405.087 402.242C404.953 403.466 404.867 404.697 404.742 405.923C404.563 407.695 403.828 411.283 404.624 412.887C405.836 415.333 406.776 411.209 407.004 410.079C407.574 407.252 407.95 404.374 408.472 401.536C410.301 391.59 412.662 380.627 416.883 371.573C417.283 370.714 417.973 368.86 418.615 368.281C419.07 367.872 419.32 368.384 419.875 367.648C420.454 366.881 421.697 362.238 420.973 361.256C419.455 359.199 415.123 367.126 414.212 368.708ZM553.131 403.905C550.401 405.831 558.871 411.8 559.976 412.859C561.952 414.751 563.926 416.591 565.84 418.578C567.851 420.664 569.697 423.115 571.791 425.04C575.172 421.088 567.783 414.3 565.615 412.538C563.412 410.748 561.351 408.747 559.026 407.191C557.915 406.447 554.516 402.929 553.131 403.905ZM482.464 399.527C482.94 399.662 483.796 400.47 484.244 400.714C488.65 403.126 493.897 404.533 497.838 407.761C500.726 408.039 503.522 410.429 506.178 411.647C507.232 412.131 509.391 412.704 510.224 413.56C511.158 414.52 510.234 418.081 510.044 419.672C508.489 417.431 506.322 417.681 503.95 417.355C500.613 416.896 497.326 416.207 494.014 415.689C490.503 415.139 487.122 414.169 483.561 413.888C480.054 413.61 476.733 412.418 473.182 412.962C474.132 410.091 476.669 407.145 478.283 404.757C479.277 403.287 480.106 401.378 481.197 400.029C482.026 399.004 481.498 399.253 482.464 399.527ZM504.149 417.366L505.34 417.491C504.994 417.063 504.584 417.122 504.149 417.366ZM402.599 373.045C400.178 378.913 397.904 384.646 397.032 391.081C396.73 393.31 396.261 396.828 396.781 398.949C397.647 402.478 399.153 399.547 399.382 397.193C400.503 391.321 401.781 385.424 403.503 379.712C404.304 377.056 405.769 373.737 405.719 370.91C405.645 366.752 403.137 371.74 402.599 373.045ZM399.382 397.193C399.326 397.771 399.269 398.35 399.214 398.927C399.271 398.347 399.326 397.77 399.382 397.193ZM390.254 383.396C389.485 385.149 388.024 389.357 388.73 391.204C389.673 393.668 390.903 391.099 391.463 389.433C392.344 386.81 392.633 384.032 393.755 381.517C392.902 378.141 391.227 381.177 390.254 383.396ZM564.874 395.526C564.65 397.415 566.912 398.189 568.079 399.076C568.938 399.73 569.826 401.502 570.578 400.211C571.843 398.042 566.1 395.629 564.874 395.526ZM529.901 276.617C528.372 280.435 527.064 284.851 527.019 289.033C526.997 291.183 527.388 293.321 527.725 295.388C527.933 296.664 529.08 299.771 528.516 301.09C526.909 300.525 524.1 301.007 522.893 299.753C521.522 298.328 521.983 295.631 519.598 295.247C515.94 294.659 512.484 298.46 511.686 302.976C511.273 305.314 512.377 307.914 513.633 309.421C514.31 310.233 515.01 310.531 515.796 311.071C516.318 311.429 516.484 311.429 516.523 311.417L516.524 311.416L516.522 311.419C516.494 311.456 516.431 311.636 516.593 312.347C516.795 313.231 516.546 314.585 516.526 315.51C516.498 316.866 516.734 318.582 516.433 319.895C516.109 321.309 516.141 321.465 514.951 320.851C513.582 320.146 512.03 317.533 511.108 316.119C510.203 314.732 509.485 311.86 507.698 313.96C506.328 315.57 505.82 319.858 505.746 321.991C505.575 326.949 509.634 331.342 512.53 333.947C514.572 335.783 514.123 336.836 513.612 339.935C513.197 342.45 512.574 344.967 512.004 347.448C511.316 350.445 510.524 350.426 509.59 348.081C508.875 346.287 507.705 343.347 505.613 344.166C503.536 344.979 503.33 348.136 502.647 350.155C501.69 352.979 501.63 355.16 503.359 357.428C504.144 358.458 506.856 360.255 506.918 361.823C506.948 362.586 505.263 364.822 504.832 365.598C503.932 367.219 503.002 368.816 501.91 370.263C501.906 367.677 500.352 365.356 499.461 363.22C498.386 360.641 496.919 358.766 495.168 356.814C494.527 356.099 492.818 355.068 493.802 354.004C494.657 353.079 495.338 353.873 496.257 352.353C497.797 349.805 498.48 345.552 498.932 342.574C499.335 339.914 499.858 336.18 498.851 333.759C497.626 330.813 496.075 330.574 493.593 331.577C491.655 332.36 490.265 335.922 489.029 338.013C486.941 341.549 486.536 344.667 486.053 348.733C484.432 347.35 482.549 346.713 480.73 345.822C479.474 345.206 477.193 344.684 476.332 343.383C477.499 342.739 478.265 341.19 478.22 339.663C478.146 337.162 476.992 338.15 475.509 337.696C474.844 337.492 474.426 336.814 473.754 336.634C473.066 336.451 472.269 336.734 471.555 336.809C469.793 336.993 468.056 337.354 466.305 337.562C467.444 336.072 468.659 334.016 470.262 333.553C472.194 332.994 474.428 333.066 476.428 332.632C479.008 332.073 483.876 327.557 480.592 324.239C479.351 322.985 477.37 324.277 476.247 322.641C475.184 321.09 475.907 318.114 475.807 316.137C475.577 311.583 473.89 307.343 470.565 305.313C469.163 306.809 472.142 311.039 472.417 312.704C472.58 313.696 472.806 313.607 472.423 314.387C472.157 314.929 471.104 315.479 470.63 315.871L470.234 316.199C469.175 317.071 468.102 317.917 466.914 318.471C467.281 316.476 467.523 313.916 465.816 312.885C464.35 311.998 462.119 313.816 461.392 315.544C460.977 314.557 460.21 312.653 460.352 311.455C459.959 310.522 460.221 310.082 461.138 310.137C461.548 309.971 461.962 309.832 462.38 309.72C464.179 309.037 465.582 308.222 466.407 305.944C467.023 304.242 467.33 302.428 468.015 300.753C467.872 299.84 468.194 299.303 468.982 299.142C469.245 298.951 469.507 298.76 469.77 298.569C470.641 297.921 471.541 297.238 472.367 296.501C473.018 295.92 473.71 294.66 474.349 294.225C474.519 293.9 474.731 293.619 474.984 293.384C475.452 293.818 475.922 294.249 476.395 294.676C478.028 296.183 479.597 297.53 481.799 297.502C483.518 297.479 486.122 296.972 487.8 296.324C489.633 295.615 491.112 293.286 492.391 291.605C494.989 294.54 497.583 293.301 499.159 289.218C499.863 287.396 500.368 285.445 500.736 283.512C501.037 281.932 500.821 280.492 501.91 279.709C503.268 278.731 505.977 278.896 507.464 278.73C509.094 278.547 511.039 278.14 512.625 278.577C511.521 281.818 510.009 285.533 511.703 288.372C513.377 291.177 514.217 292.609 517.149 289.967C519.391 287.946 521.38 285.096 523.154 282.475C524.084 281.1 524.645 279.254 525.575 277.955C526.645 276.461 528.382 276.774 529.901 276.617ZM532.326 277.497C532.985 277.537 534.501 278.029 535.134 278.245C536.854 278.831 538.572 279.335 540.385 279.858C544.45 281.027 548.465 282.438 552.499 283.705C556.2 284.867 560.28 286.372 563.681 288.464C567.398 290.749 571.005 292.971 574.471 295.765C577.946 298.567 580.799 302.078 584.077 305.122C590.223 310.829 596.433 316.689 602.411 322.702C606.213 326.527 610.352 329.909 614.004 333.918C615.885 335.983 617.7 338.129 619.463 340.344C620.76 341.974 623.193 344.274 623.286 346.823C621.308 346.657 619.139 342.158 617.685 340.685C616.626 339.612 615.405 338.715 614.289 337.725C613.649 337.157 611.726 334.318 610.965 334.24C609.869 334.128 609.477 336.055 609.646 336.956C609.866 338.122 610.802 339.144 611.4 340.016C613.351 342.862 614.815 346.514 615.92 350.016C613.298 348.523 611.491 344.194 609.835 341.378C608.96 339.89 604.355 333.402 604.053 339.156C603.941 341.285 604.984 343.007 605.638 344.831C606.344 346.803 607.075 348.805 607.66 350.843C608.85 354.983 609.618 359.204 610.096 363.623C608.472 362.639 608.3 360.254 607.715 358.349C607.118 356.41 606.375 354.522 605.669 352.649C604.17 348.673 602.952 344.523 601.322 340.629C600.678 339.091 597.945 331.018 596.345 331.989C595.268 332.643 594.562 336.087 594.121 337.28C593.421 339.167 592.457 341.124 590.787 341.865C591.184 337.925 591.761 334.005 592.177 330.076C592.504 326.984 591.257 325.989 589.808 323.69C586.447 318.359 581.773 314.709 577.528 310.544C575.638 308.691 573.964 306.345 571.822 304.754C569.414 302.965 567.109 300.94 564.784 298.967C559.831 294.765 553.929 292.87 547.696 293.103L547.685 293.104C548.181 293.085 548.675 293.066 549.171 293.048C548.679 293.066 548.187 293.085 547.695 293.103C547.692 293.103 547.689 293.103 547.685 293.104C541.979 291.605 535.28 292.452 529.584 294.799C529.005 289.695 529.194 284.39 530.733 279.331C531.184 277.847 531.187 277.431 532.326 277.497ZM470.587 348.048C470.832 348.085 471.078 348.122 471.326 348.159C471.082 348.122 470.835 348.085 470.587 348.048ZM363.711 255.128C365.179 257.166 367.209 258.925 368.892 260.662C370.438 262.258 371.84 264.043 373.364 265.636C377.324 269.775 380.822 274.569 384.613 278.973C391.732 287.243 399.277 294.8 407.827 300.868C411.858 303.728 416.053 306.276 420.245 308.789C424.331 311.237 428.076 314.433 432.863 314.856C435.318 315.073 437.9 315.373 440.394 315.12C443.083 314.847 446.059 313.131 448.619 311.963C449.823 311.414 451.046 310.897 452.22 310.239C453.298 309.635 454.852 307.987 455.933 307.848C458.374 307.533 457.899 313.594 458.263 315.755C458.387 316.49 458.946 317.799 458.87 318.504C458.728 319.829 458.973 319.167 457.915 319.942C456.767 320.784 455.241 321.419 454.001 322.053C451.657 323.253 449.185 324.291 446.803 325.252C444.251 326.281 441.83 326.898 439.185 327.028C438.044 327.084 436.978 327.035 435.914 326.956L435.958 326.985C435.515 326.689 435.064 326.459 434.532 326.835L434.889 326.873C434.11 326.806 433.32 326.736 432.488 326.691C432.904 326.714 433.318 326.736 433.733 326.759C433.344 326.478 432.935 326.391 432.488 326.691C426.503 325.352 421.676 320.581 416.236 317.797C410.692 314.959 405.048 311.076 399.938 307.07C395.087 303.267 390.233 299.397 385.204 295.863C382.319 293.835 379.464 289.897 375.759 290.984C374.051 291.484 372.444 292.607 370.701 292.898C368.694 293.232 366.795 293.158 364.784 293.711C365.036 292.614 367.773 291.166 368.498 290.067C368.981 289.333 369.14 288.467 369.556 287.738C369.936 287.072 370.403 287.052 370.616 286.247C371.437 283.145 367.649 279.504 366.277 277.621C361.902 271.614 356.508 266.658 352.17 260.499C355.195 260.753 358.28 265.837 360.284 268.208C361.632 269.803 362.966 271.399 364.413 272.862C364.809 273.263 366.619 275.365 367.205 275.196C368.848 274.722 367.755 271.208 367.276 270.402C366.339 268.824 364.981 267.505 363.852 266.143C361.474 263.276 359.351 260.254 357.455 256.821C359.686 257.177 362.242 262.038 363.617 263.998C365.12 266.14 367.101 269.041 369.238 270.278C370.342 270.917 370.939 270.817 371.235 269.073C371.573 267.085 370.44 265.927 369.493 264.653C367.606 262.112 364.523 258.523 363.711 255.128ZM486.083 317.315C485.39 320.58 486.869 324.816 489.797 325.199C492.935 325.609 493.662 321.05 493.88 318.263C493.997 316.767 494.249 315.9 493.539 314.799C493.245 314.343 492.429 314.09 492.068 313.643C491.603 313.068 491.34 312.266 490.887 311.67C488.553 308.598 486.079 314.65 486.083 317.315ZM500.676 295.588C499.565 296.285 498.214 298.199 497.573 299.454C496.434 301.681 495.492 303.823 494.766 306.258C494.925 308.955 496.17 316.102 499.673 314.727C503.309 313.3 504.036 307.922 504.485 304.283C504.811 301.633 504.631 293.107 500.676 295.588ZM476.73 305.932C476.392 308.346 478.605 311.195 480.034 312.347C482.361 314.224 483.368 310.095 483.468 307.824C483.58 305.286 482.926 303.821 481.175 302.59C478.574 300.762 477.66 303.056 476.73 305.932ZM516.528 311.412C516.534 311.407 516.536 311.411 516.527 311.415L516.524 311.416L516.528 311.412ZM486.89 267.82C487.783 268.266 488.929 270.608 489.539 271.556C489.917 272.143 490.476 273.891 491.096 274.042C492.018 274.265 491.997 273.71 492.748 272.819C495.576 269.46 498.118 269.687 498.985 274.124C498.122 274.549 497.259 274.568 496.383 274.456C496.085 274.419 494.987 273.898 494.744 274.06C493.372 274.979 495.098 276.018 495.287 276.564C495.431 276.978 495.482 277.34 495.519 277.663C495.474 277.946 495.429 278.23 495.385 278.515C495.448 278.114 495.512 277.711 495.575 277.307L495.519 277.666C495.608 278.453 495.616 279.013 496.674 279.545C497.712 280.067 498.67 279.767 499.803 279.437C499.352 282.06 498.799 286.755 497.049 288.792L496.953 288.9C496.503 289.103 496.054 289.306 495.605 289.508C495.661 289.519 495.718 289.527 495.774 289.533C495.048 289.489 494.233 289.017 493.735 288.839C494.114 287.549 495.852 283.213 495.418 282.219C494.596 280.339 493.825 282.973 493.423 284.16C492.478 286.954 490.712 290.581 488.419 292.194C488.444 292.156 488.469 292.114 488.492 292.068C487.983 292.135 487.449 292.117 487.12 292.791C487.277 292.727 487.445 292.698 487.611 292.664L487.611 292.665C485.499 293.641 481.574 295.23 479.747 293.787C477.221 291.791 475.361 288.68 473.343 286.034C475.051 285.196 475.448 283.706 474.398 282.023C471.361 285.278 470.644 277.686 470.071 275.34C471.706 275.299 473.011 276.621 474.711 276.351C476.096 276.131 477.788 275.682 479.052 274.844C480.742 273.724 482.306 272.033 483.816 270.582C484.719 269.713 486.079 267.415 486.89 267.82ZM532.389 296.782C532.268 297.156 532.151 297.521 532.034 297.886C531.716 296.82 531.716 296.82 532.389 296.782ZM481.672 291.894C482.336 291.86 484.998 291.505 483.439 290.441C482.643 289.897 481.706 290.92 481.672 291.894ZM475.248 279.687C474.76 280.712 475.982 282.724 476.28 283.665C476.748 285.14 477.15 291.177 479.017 290.726C480.993 290.885 480.943 288.533 479.992 287.31C479.66 286.884 479.248 286.83 478.933 286.296C478.659 285.831 478.561 284.937 478.408 284.384C478.032 283.029 477.732 281.469 477.016 280.342C476.44 279.437 475.837 278.454 475.248 279.687ZM484.962 279.071C483.987 279.129 484.545 279.747 483.993 280.21C483.624 280.519 483.553 280.681 483.572 280.76L483.575 280.769L483.551 280.765C483.421 280.745 483.182 280.731 482.76 280.744C481.836 280.773 479.151 279.527 480.668 281.906C480.998 282.423 483.171 283.975 483.727 283.709C484.968 283.117 484.811 280.267 484.962 279.071ZM483.575 280.769C483.805 280.812 483.613 280.87 483.575 280.771L483.575 280.769ZM560.133 286.879C560.381 286.909 560.629 286.938 560.88 286.967C560.633 286.938 560.383 286.908 560.133 286.879ZM522.746 273.068C522.343 273.1 521.94 273.13 521.537 273.162C521.941 273.13 522.344 273.1 522.746 273.068Z" fill="#3F3F3F"/>
<path fill-rule="evenodd" clip-rule="evenodd" d="M121.87 269.179C120.886 276.418 121.831 283.645 123.59 290.143C124.256 289.194 123.953 288.251 125.161 288.271C125.972 288.284 126.838 289.156 127.568 289.46C130.275 290.588 133.38 290.682 136.319 290.833C135.819 289.706 135.036 288.723 135.791 287.181C136.361 286.016 137.681 285.767 138.422 284.73C137.862 284.267 135.68 285.677 134.991 285.856C135.527 284.958 136.98 283.444 137.009 282.355C137.03 281.554 136.186 281.552 137.096 280.689C137.322 281.085 137.911 282.905 138.544 282.597C138.165 281.923 138.62 281.677 138.532 281.053C138.463 280.571 138.359 280.324 138.209 279.887C137.82 278.755 137.717 277.383 138.808 276.342C139.173 275.994 139.613 276.163 139.973 275.76C140.321 275.372 140.392 274.854 140.576 274.379C140.781 273.845 140.893 273.223 141.144 272.711C141.663 271.651 141.756 271.686 141.598 270.466C141.928 271.019 142.259 271.571 142.589 272.124C143.086 271.01 143.544 269.817 144.253 268.845C144.493 268.517 145.543 267.726 145.596 267.347C145.441 268.451 146.452 267.303 146.76 267.267C147.731 267.153 149.062 268.551 149.587 269.359C151.038 271.591 151.312 275.383 151.896 278.17C152.539 281.232 153.113 284.605 152.681 287.908C152.574 288.73 152.187 290.429 152.826 290.972C153.17 291.265 154.964 290.983 155.444 290.766C156.616 290.236 156.524 289.098 156.409 287.891C156.26 286.329 156.111 284.986 156.263 283.349C156.445 281.392 156.71 279.427 156.931 277.468C157.393 273.361 157.858 269.235 158.574 265.135C158.803 263.824 159.245 262.558 159.51 261.284C159.741 260.173 159.363 258.769 160.059 257.522C160.298 257.094 160.595 257.039 160.669 256.653C160.714 256.414 160.171 256.546 160.181 256.221C160.2 255.589 160.819 255.054 161.075 254.513C161.48 253.657 161.531 252.808 161.636 251.895C162.063 248.185 163.806 244.521 165.432 241.179C167.189 237.567 169.217 234.154 171.273 230.752C173.084 227.757 174.355 224.378 176.329 221.509C178.033 219.032 179.832 216.592 182.162 215.215C183.229 214.584 184.151 213.502 185.196 212.781C185.819 212.351 186.488 211.889 187.166 211.664C187.822 211.448 188.468 211.764 189.068 211.556C189.902 211.266 190.971 210.349 191.853 210.076C192.615 209.841 193.449 209.739 194.263 209.101C195.366 208.235 195.69 207.583 196.94 207.609C197.664 207.625 198.342 207.802 199.041 207.038C201.81 204.014 197.715 198.147 201.005 195.066C201.685 196.458 201.686 198.257 201.78 199.902C201.903 202.057 202.355 203.936 202.892 205.925C203.833 209.406 205.6 213.086 205.423 216.998C207.11 215.157 208.077 214.053 209.385 216.425C209.946 215.565 209.923 213.724 210.738 213.255C212.172 212.432 213.804 215.447 214.222 216.509C215.86 220.668 216.191 225.423 216.498 230.169C216.633 232.265 216.688 234.898 215.414 236.805C214.287 238.492 212.405 239.183 210.818 239.702C208.572 240.437 206.945 240.075 204.774 239.96C203.777 239.907 202.781 240.268 202.006 239.489C201.335 238.816 201.018 237.66 200.493 236.835C200.172 237.46 199.612 237.958 199.213 237.278C197.442 241.222 195.696 245.079 194.866 249.353C194.105 253.274 193.44 257.23 193.079 261.169C192.707 265.232 192.417 269.376 192.783 273.329C193.144 277.241 194.276 280.837 195.216 284.491C196.067 283.252 196.54 284.03 197.155 284.799C197.652 284.055 197.408 283.373 198.001 282.742C198.321 282.594 198.623 282.395 198.908 282.143C199.119 281.587 199.358 281.046 199.624 280.519C200.221 280.987 200.412 281.447 200.529 282.31C202.089 280.27 202.746 280.688 204.617 281.185C207.124 281.85 207.283 284.733 207.511 287.455C207.565 288.103 207.752 288.942 207.633 289.627C207.549 290.111 207.014 290.849 207.001 291.104C206.975 291.63 207.448 291.275 207.488 291.545C207.635 292.533 207.416 293.856 207.372 294.89C207.253 297.657 206.374 302.003 208.135 303.916C209.61 305.517 212.092 306.291 213.972 307.14C216.931 308.475 220.223 309.228 223.409 309.84C226.256 310.388 229.564 311.444 232.591 310.617C233.034 310.497 235.173 309.753 234.87 309.116C234.738 308.839 233.614 309.048 233.37 309.148C233.535 309.08 233.902 308.017 234.032 307.786C234.52 306.923 234.733 306.93 235.408 306.333C236.905 305.011 235.211 305.435 235.578 304.356C235.649 304.149 236.725 304.919 236.695 304.899C236.736 304.558 236.654 303.82 236.862 303.508C236.71 303.737 237.995 301.823 237.788 302.275C238.19 301.399 237.893 300.406 238.21 299.546C238.661 298.326 239.339 298.712 240.093 298.081C240.353 297.864 240.555 297.365 240.82 297.111C240.935 297 241.249 297.035 241.297 296.973C241.617 296.559 241.622 296.481 241.63 295.485C242.002 295.796 242.899 296.965 243.461 296.523C244.137 295.99 243.213 295.047 244.229 294.782C244.638 294.675 244.731 295.203 245.055 295.279C245.272 295.33 245.476 294.668 245.709 294.895C246.123 295.301 245.932 296.648 246.011 297.261C248.163 293.625 250.583 300.706 250.954 302.331C251.297 303.836 250.68 306.569 252.397 306.666C253.299 306.718 254.588 305.72 255.425 305.271C256.653 304.611 257.917 304.107 259.163 303.519C264.695 300.911 270.044 297.897 275.262 294.26C277.181 292.922 279.712 291.289 280.52 288.814C280.844 287.823 281.163 286.923 281.634 285.947C282.58 283.982 283.094 284.454 284.687 283.583C284.468 282.189 283.726 281.981 284.15 280.422C284.494 279.155 285.194 277.956 285.823 276.845C286.625 275.428 287.244 273.782 288.64 273.606C290.126 273.419 290.147 274.289 290.772 275.656C290.832 274.993 290.804 273.279 291.49 272.971C292.444 272.543 292.369 274.763 292.953 275.112C293.869 273.694 296.302 271.673 295.361 269.92C294.886 269.037 293.678 268.507 292.973 267.894C291.926 266.984 290.937 265.98 289.946 264.989C285.537 260.587 281.355 255.898 277.012 251.41C275.466 253.861 274.004 256.392 272.337 258.741C270.947 260.7 268.891 262.417 268.35 264.941C267.787 267.567 268.125 270.317 267.725 272.975C267.46 274.734 267.086 275.378 265.69 274.491C265.27 275.659 263.299 277.1 262.323 277.553C260.754 278.282 259.855 276.247 259.19 274.965C258.346 275.617 257.932 276.733 257.182 277.495C256.996 277.082 257.284 276.06 257.151 275.861C257.023 275.669 256.356 275.914 256.237 275.888C256.057 275.848 256.364 275.238 256.219 275.202C255.404 276.548 254.895 273.951 253.616 274.739C253.922 274.011 253.813 273.72 253.377 273.265C252.733 274.771 251.803 273.834 250.807 273.829C249.037 273.819 247.098 274.688 245.302 274.912C241.602 275.374 238.212 275.381 234.691 274.654C233.282 274.363 232.622 274.519 231.459 275.731C231.017 276.192 230.706 276.816 230.096 276.959C229.202 277.17 229.318 276.49 228.709 276.179C228.089 275.862 228.489 275.719 227.763 276.011C227.318 276.191 226.898 276.944 226.493 277.258C225.348 278.146 224.304 278.37 223.906 276.788C223.637 277.289 223.438 277.422 223.019 277.709C223.267 276.885 223.768 275.236 222.561 275.424C221.659 275.564 221.69 277.114 220.572 276.639C219.946 276.372 219.68 275.089 219.428 274.42C219.081 273.504 218.789 274.619 219.017 273.206C219.153 272.368 219.836 271.422 220.274 270.751C219.223 270.819 218.734 272.083 217.722 272.015C216.588 271.939 216.46 270.022 215.308 270.172C215.484 269.886 216.128 268.944 216.025 268.611C215.866 268.098 215.215 269.124 214.818 268.942C214.387 268.744 214.248 267.106 214.47 266.604C214.911 265.603 215.821 266.046 216.389 265.293C216.908 264.604 216.94 263.173 217.152 262.363C217.44 261.258 217.919 260.172 218.029 259.037C218.146 257.842 217.903 256.791 217.461 255.811C217.155 255.131 216.124 253.974 217.387 253.49C215.654 252.24 217.402 249.967 217.747 247.872C217.962 246.57 217.769 245.557 218.332 244.218C219.006 242.617 220.089 241.211 221.162 239.95C222.231 238.694 223.299 237.542 224.628 236.76C224.984 236.567 225.34 236.375 225.695 236.183C225.985 235.867 226.267 235.811 226.541 236.018C227.157 235.638 227.341 235.271 227.875 234.664C229.217 233.136 231.073 232.603 232.687 231.847C234.238 231.121 235.705 229.999 237.287 229.422C237.279 229.424 238.923 228.917 238.752 229.097C239.454 228.359 239.19 227.237 239.431 226.347C239.679 225.432 240.222 225.11 240.621 224.356C241.095 223.459 240.932 222.205 241.583 221.445C241.837 221.149 242.202 221.12 242.485 220.87C242.966 220.444 243.286 219.81 243.788 219.396C244.032 220.016 244.277 220.637 244.522 221.257C245.289 220.001 245.46 219.669 246.067 221.11C246.993 223.309 247.984 222.618 249.553 221.025C250.071 220.498 250.536 220.462 250.922 220.076C251.536 219.462 251.349 218.153 252.133 217.664C252.591 217.378 253.024 217.833 253.484 217.281C254.05 216.603 253.689 215.373 254.246 214.598C248.41 215.697 242.568 216.353 237.053 214.801C231.697 213.293 226.505 210.597 222.141 206.916C214.571 200.528 207.955 191.103 207.266 179.085C206.108 180.172 205.741 182.478 204.518 183.446C202.701 184.885 203.645 181.511 203.905 180.429C202.687 180.594 200.934 180.887 200.434 182.57C199.928 184.271 200.747 186.293 200.81 187.937C200.874 189.59 200.657 191.447 200.151 193.086C199.898 193.906 199.568 194.741 199.056 195.412C198.431 196.232 197.987 196.103 197.339 196.41C197.445 196.36 196.511 196.866 196.535 196.863C194.78 197.046 193.1 198.324 191.473 197.447C190.425 196.882 189.576 195.654 188.665 197.627C188.034 196.826 188.059 196.301 188.313 195.339C188.423 194.923 188.989 194.654 188.54 194.433C188.39 194.359 187.578 195.145 187.324 195.185C186.623 195.294 186.452 194.927 186.285 194.268C186.189 193.889 186.739 191.547 186.536 191.458C186.105 191.268 184.573 193.5 184.215 193.885C185.876 186.978 178.125 193.903 175.945 195.092C174.172 196.06 172.305 196.863 170.679 198.254C168.607 200.025 168.774 201.309 169.301 203.736C169.885 206.424 170.044 209.458 170.496 212.231C170.723 213.622 170.995 215.293 170.618 216.792C170.491 217.297 170.13 217.776 170.033 218.272C169.894 218.989 170.1 219.342 170.182 220.007C170.417 221.923 169.305 223.954 167.685 224.58C166.646 224.982 165.633 225.17 164.603 225.666C163.516 226.19 162.425 226.771 161.293 226.611C160.561 226.507 160.219 226.192 159.455 226.332C158.936 226.425 158.413 226.88 157.88 226.712C156.813 226.374 156.367 224.725 155.313 224.207C154.532 223.824 153.415 223.755 153.126 222.643C152.768 221.263 154.327 220.243 153.602 218.899C153.172 219.486 152.813 220.18 152.574 220.888C152.51 219.866 152.578 219.067 152.349 218.12C152.11 217.131 151.993 216.494 152.275 215.353C152.782 213.306 154.043 211.545 154.913 209.67C153.486 209.505 151.611 212.282 150.697 213.422C149.011 215.527 147.294 217.594 145.613 219.704C143.504 222.352 140.943 225.22 139.264 228.265C137.749 231.014 139.28 233.246 139.803 235.805C140.421 238.834 140.169 241.577 140.154 244.699C140.142 247.197 139.567 249.866 137.55 251.389C136.65 252.069 135.64 252.373 134.656 252.651C133.482 252.983 132.975 253.894 131.784 253.962C130.834 254.017 129.815 253.942 128.906 253.737C127.35 253.385 128.074 252.85 127.499 251.463C127.494 252.665 126.311 253.587 125.802 254.594C125.089 256.006 124.614 257.622 124.1 259.122C122.971 262.411 122.332 265.781 121.87 269.179ZM135.519 303.747C137.025 303.613 139.07 304.24 140.548 303.608C141.572 303.17 141.313 302.516 141.221 301.312C140.974 298.049 138.303 297.196 135.663 297.583C135.615 299.638 135.567 301.692 135.519 303.747ZM127.416 326.406C122.22 328.574 116.565 330.883 111.881 334.718C110.781 335.62 107.928 337.547 107.816 339.335C107.7 341.202 110.659 341.385 111.734 341.534C116.934 342.254 122.135 341.553 127.416 339.612C132.465 337.756 137.371 335.809 141.712 331.684C143.471 330.014 146.559 327.506 146.945 324.728C147.329 321.969 145.573 319.5 144.891 317.154C144.223 314.854 143.868 310.027 141.85 308.932C140.971 308.455 139.855 308.942 138.887 309.111C137.963 309.272 136.68 309.032 135.787 309.6C134.168 310.628 133.989 313.656 135.171 314.731C135.957 315.447 136.969 315.88 137.836 316.454C138.812 317.099 143.786 320.147 141.196 322.076C139.394 323.417 137.344 320.991 135.934 320.263C135.209 319.889 134.028 319.361 133.301 320.374C132.593 321.361 133.143 322.626 133.734 323.255C134.613 324.191 135.992 324.326 136.647 325.583C137.182 326.61 137.122 327.7 135.966 328.045C132.895 328.963 130.722 325.026 127.416 326.406ZM195.895 285.531C196.235 284.803 195.935 284.3 195.22 284.513C195.241 285.032 195.466 285.371 195.895 285.531ZM236.332 310.13C236.931 310.14 236.915 309.199 236.785 308.709C236.315 309.007 236.164 309.48 236.332 310.13ZM283.892 286.405C284.866 285.532 284.181 283.58 282.886 284.194C283.084 284.926 283.685 285.558 283.892 286.405ZM296.703 244.663C298.514 242.275 299.96 236.627 303.12 236.853C304.282 236.936 305.874 239.062 307.044 238.414C308.106 237.826 308.248 233.902 309.516 234.196C311.304 234.611 309.323 238.817 309.878 240.053C310.195 240.76 311.188 241.204 311.866 241.217C312.895 241.237 313.113 240.7 313.414 239.556C313.638 238.71 313.958 235.216 315.367 236.067C316.394 236.687 315.403 239.624 315.26 240.705C314.724 244.728 319.411 245.404 321.763 246.189C323.191 246.665 329.781 249.311 329.151 245.254C328.885 243.539 327.61 241.916 326.792 240.604C325.4 238.371 323.649 236.49 321.726 234.924C318.15 232.012 313.813 230.011 309.193 229.939C303.992 229.858 299.143 232.145 294.7 236.126C293.782 236.949 291.306 238.786 291.726 240.278C291.959 241.108 293.349 241.561 293.924 241.96C294.964 242.684 295.94 243.551 296.703 244.663ZM288.888 245.204C287.38 244.094 286.365 246.642 285.371 247.936C284.519 249.045 282.835 250.655 283.144 252.199C283.425 253.604 285.05 254.712 285.938 255.447C287.101 256.41 288.368 257.2 289.526 258.168C290.718 256.243 291.829 254.248 293.054 252.352C293.745 251.282 294.976 249.862 294.521 248.581C293.767 246.46 290.384 246.305 288.888 245.204ZM260.43 158.931C260.865 156.552 259.432 157.092 258.561 158.623C257.615 160.285 257.053 162.365 256.565 164.212C256.194 165.621 255.897 167.877 257.485 166.017C259.011 164.231 260.006 161.25 260.43 158.931ZM251.434 167.177C250.937 170.062 252.726 168.335 253.572 166.904C254.808 164.817 256.033 162.05 256.352 159.613C256.718 156.801 255.214 158.331 254.323 159.927C253.063 162.185 252.408 164.779 251.434 167.177ZM249.14 164.323C250.501 165.094 255.404 154.727 253.494 153.988C251.906 153.374 247.798 163.564 249.14 164.323ZM242.943 164.35C242.381 166.748 244.432 165.156 245.223 164.292C246.673 162.711 248.116 160.217 248.697 158.054C249.242 156.022 248.918 154.23 247.233 156.214C245.361 158.418 244.037 161.609 242.943 164.35ZM262.524 139.095C262.285 133.825 261.592 128.892 260.248 124.044C260.007 123.174 259.79 122.193 259.354 121.456C259.002 120.858 258.347 120.604 258.019 120.024C257.358 118.859 258.287 117.985 259.29 117.625C260.974 117.019 263.563 117.632 263.238 114.52C262.788 110.22 258.565 111.787 256.456 114.262C256.281 112.44 255.15 112.667 253.921 112.317C252.085 111.793 250.585 110.352 248.679 110.04C246.911 109.75 245.036 110.508 243.264 110.22C241.29 109.899 239.626 109.696 237.552 110.022C237.947 112.7 238.59 115.394 240.101 117.334C239.948 116.492 239.27 114.181 240.468 113.8C241.278 113.542 242.414 115.462 242.932 115.952C243.128 115.244 243.512 114.564 243.994 114.057C245.467 116.011 244.177 118.657 242.226 119.876C243.398 121.028 244.66 122.083 246.148 122.663C247.616 123.235 249.27 123.073 250.721 123.679C253.269 124.74 254.558 128.086 254.201 131.429C254.006 133.243 252.153 137.554 251.82 133.884C251.753 133.151 251.83 132.315 251.607 131.64C251.24 130.527 250.688 130.793 249.74 130.868C248.954 130.929 247.611 130.889 247.088 131.849C246.618 132.71 246.981 134.051 247.186 134.811C247.888 137.418 249.297 139.82 251.467 140.783C252.695 141.328 262.693 142.848 262.524 139.095ZM267.235 106.055C268.236 105.517 268.043 103.599 268.166 102.658C267.937 102.968 267.708 103.278 267.479 103.588C268.102 101.447 268.283 99.6572 268.415 97.491C268.465 96.6685 268.679 96.0009 268.842 95.1979C268.935 94.7384 269.082 94.4273 268.995 94.1245C268.885 93.7358 268.404 94.7179 268.437 94.6296C267.866 93.1373 268.656 92.9901 268.717 91.6063C268.718 91.5887 268.162 90.3592 268.12 90.1391C267.924 89.0892 267.927 88.6992 267.32 87.9983C266.704 87.2876 266.822 87.8995 266.707 86.6025C266.596 85.3534 266.817 84.546 266.885 83.2721C266.457 83.5245 266.1 83.4678 265.812 83.1027C266.172 83.0505 266.415 82.8138 266.54 82.3914C265.65 82.1054 265.102 80.8536 264.176 81.0786C264.494 80.6716 265.253 78.1433 264.566 78.0211C264.447 78.4174 264.351 78.8174 264.277 79.2216C263.958 78.0334 263.434 76.2661 262.916 75.317C262.526 74.6005 262.634 74.8088 261.996 74.5997C261.447 74.4201 261.376 74.6824 261.041 73.9623C261.388 73.3485 261.344 72.9098 260.907 72.6475C260.778 72.5407 260.65 72.4338 260.522 72.3265C259.965 71.6905 259.853 71.0666 259.481 70.2918C259.192 69.6884 258.367 69.3009 258.18 68.7174C257.98 68.0902 258.531 66.8769 258.187 66.365C257.81 65.8037 257.63 66.4106 257.166 66.2662C257.1 66.2456 256.519 65.6616 256.392 65.5772C255.474 64.9614 254.571 64.615 253.942 63.4831C253.731 63.1031 253.677 62.4403 253.458 62.1363C253.096 61.6326 252.523 61.6121 252.139 61.1568C252.017 61.0122 251.915 60.4496 251.784 60.225C251.398 59.5626 250.75 59.1491 250.163 58.7804C248.948 58.017 247.81 57.2719 246.682 56.3385C244.259 54.3335 241.495 52.5027 238.751 51.0956C238.435 50.9337 237.548 50.8294 237.344 50.5792C237.194 50.3938 237.155 49.8515 237.117 49.8102C236.66 49.3108 235.879 48.7005 235.186 48.2935C233.153 47.0982 232.715 48.58 233.751 50.4274C234.669 52.0671 235.951 53.3303 236.918 54.9143C238.495 57.4971 239.084 60.9848 239.781 64.1183C237.648 64.8913 235.248 63.2628 233.471 62.4261C232.568 62.0013 231.553 61.7859 230.605 61.6106L230.352 61.3388C230.158 61.0909 229.981 61.1445 229.819 61.5C229.67 61.9668 229.465 62.008 229.204 61.6231C229.062 61.4371 228.908 61.2666 228.741 61.1117C228.453 60.8025 228.109 59.919 227.64 59.9334C226.95 59.9546 227.248 60.4248 226.776 60.5475C225.691 60.8287 225.482 59.642 224.616 59.2975C224.318 59.1792 223.803 59.396 223.471 59.2864C223.219 59.1061 222.998 58.8835 222.81 58.6192C222.569 58.5672 222.364 58.6798 222.196 58.9558C221.453 58.8247 220.139 58.3527 220.352 57.1814C219.537 58.3051 219.337 57.8341 218.658 57.1156C218.307 58.5771 216.052 56.858 215.353 56.7254C213.554 56.3846 212.21 55.2163 210.23 56.034C212.847 58.2642 216.089 59.639 218.557 62.0772C219.672 63.1798 220.791 65.9204 219.336 67.7082C218.473 68.7693 217.407 68.5026 216.484 68.1853C215.313 67.7825 214.168 68.1591 212.94 67.8662C210.449 67.2726 206.781 69.0684 205.214 66.1327C203.878 67.5579 202.757 67.3436 201.307 67.1774C200.634 67.1001 196.289 67.2235 196.22 68.2452C196.182 68.8198 197.947 70.061 198.205 70.2797C199.177 71.1015 200.22 71.7984 201.318 72.3898C203.298 73.458 205.415 73.8071 207.474 74.6219C208.973 75.2146 210.65 76.6822 209.628 79.0658C208.728 81.1645 206.768 80.2906 205.457 79.8893C204.024 79.4507 202.657 78.9788 201.156 78.785C199.951 78.6296 197.514 78.0819 196.417 79.3909C199.01 82.942 202.965 84.4714 206.752 85.8114C211.131 87.3601 215.429 89.0883 219.548 91.2931C219.413 90.4002 218.664 87.1027 219.464 86.3083C220.443 85.3348 221.511 90.1908 221.916 90.8924C225.371 96.8673 230.948 101.521 236.005 105.416C234.811 102.175 232.439 99.6737 230.694 96.902C229.494 94.9945 227.238 91.8242 229.009 89.0241C233.819 94.6754 236.813 103.805 244.134 105.723C242.049 102.831 239.425 100.418 237.989 96.8819C237.653 96.0552 236.636 92.946 237.926 92.1351C238.94 91.4969 239.728 94.5538 240.158 95.2642C243.181 100.259 247.871 104.883 252.429 107.806C254.068 108.857 256.263 110.533 258.301 109.28C261.034 107.599 262.788 107.854 264.902 109.991C265.48 108.675 265.983 106.728 267.235 106.055ZM190.848 192.539L190.432 194.268C191.211 194.316 191.109 193.265 191.673 192.896C191.398 192.777 191.123 192.658 190.848 192.539ZM192.281 190.712C191.808 191.678 191.808 191.678 192.802 191.743C192.564 191.272 192.437 191.02 192.281 190.712ZM188.293 191.448C187.832 190.97 187.761 193.306 188.918 192.305C188.71 192.019 188.501 191.733 188.293 191.448ZM187.122 187.838C187.047 188.6 186.971 189.361 186.895 190.122C187.297 189.852 187.698 189.582 188.1 189.311C187.774 188.821 187.448 188.33 187.122 187.838ZM128.614 249.008C128.046 248.362 127.43 250.316 127.265 250.679C127.795 250.452 129.508 250.024 128.614 249.008ZM302.172 123.943C302.879 126.214 303.58 128.502 304.033 130.905C304.285 132.24 304.252 134.117 305.05 135.127C305.76 136.025 307.194 136.408 308.116 136.9C309.965 137.886 311.777 138.954 313.516 140.158C319.451 144.269 324.564 150.34 327.645 157.766C329.129 161.344 330.128 165.333 330.215 169.55C330.315 174.384 328.745 179.142 328.047 183.97C327.879 185.13 327.095 189.231 328.06 189.946C329.246 190.827 330.589 186.891 331.003 185.872C331.522 184.594 334.25 175.692 336.149 176.914C337.307 177.659 336.052 182.913 335.829 184.18C335.323 187.057 334.906 189.928 334.669 192.813C334.485 195.062 334.417 197.313 334.32 199.554C334.235 201.524 334.091 203.88 334.909 205.528C337.156 199.894 338.859 193.414 338.608 187.503C338.54 185.886 337.682 177.497 340.3 177.186C341.863 176.999 341.983 181.505 342.104 182.712C342.509 186.753 342.609 190.884 342.813 194.977C342.948 197.664 342.6 202.402 344.005 204.513C346.211 198.237 346.334 191.596 346.053 185.301C346.003 184.177 344.745 172.832 347.773 174.597C349.425 175.561 349.542 180.556 349.841 182.532C350.575 187.375 351.681 192.472 353.901 196.442C354.902 192.902 353.966 188.785 354.104 185.232C354.263 181.149 354.103 177.294 353.261 173.482C351.701 166.424 349.102 159.539 346.439 153.144C343.689 146.543 340.204 140.472 336.11 135.083C332.001 129.673 327.234 125.84 321.521 122.97C315.126 119.757 307.955 117.23 300.482 118.458C301.045 120.286 301.603 122.118 302.172 123.943ZM186.626 111.374C186.73 111.422 186.834 111.47 186.938 111.517C187.189 110.87 187.439 110.222 187.69 109.574C186.885 109.944 187.262 110.903 186.626 111.374ZM216.733 110.956C209.682 105.03 201.915 100.18 193.826 96.2256C188.328 93.5377 181.848 91.5151 175.442 93.2537C168.047 95.2606 163.218 103.424 160.934 111.66C158.271 121.259 158.722 130.915 160.557 139.907C160.998 142.066 163.018 154.997 165.404 154.041C165.273 151.557 163.586 137.371 167.102 136.795C169.124 136.464 168.994 143.267 169.281 144.856C169.475 145.934 170.762 153.463 171.895 153.049C171.856 149.154 171.639 145.104 172.681 141.162C173.467 138.185 175.067 137.012 175.655 140.356C176.938 147.656 178.33 155.159 181.203 161.596C182.611 157.479 181.91 152.514 181.737 148.441C181.601 145.244 181.17 142.004 181.671 138.717C181.944 136.936 182.82 133.48 184.789 134.481C186.504 135.351 187.363 138.234 188.496 139.854C188.012 137.079 187.577 134.277 186.904 131.584C186.328 129.277 185.492 127.115 184.925 124.804C184.672 123.774 184.626 122.811 184.561 121.762C184.498 120.726 184.178 120.098 183.883 119.112C183.663 118.379 183.591 117.778 183.652 117.026C183.675 116.745 183.924 116.367 183.975 116.054C184.064 115.505 183.64 115.276 183.942 114.682C182.804 115.915 183.68 113.239 183.816 112.737C184.296 110.974 184.179 108.948 185.291 107.432C187.635 104.236 191.897 105.73 194.452 106.465C198.113 107.518 202.547 109.441 205.153 112.544C205.819 113.337 206.422 113.067 207.194 113.724C207.9 114.326 208.615 114.946 209.345 115.54C211.241 117.082 212.974 118.88 214.821 120.497C215.184 118.493 215.286 116.491 216.015 114.556C216.328 113.727 217.543 111.637 216.733 110.956ZM122.66 254.238C124.782 248.497 126.983 242.836 129.629 237.338C130.893 234.711 132.043 232.006 133.333 229.397C134.358 227.324 136.165 226.511 137.411 224.635C140.345 220.22 143.119 215.823 146.371 211.68C149.77 207.352 153.47 203.669 157.591 200.446C165.951 193.908 174.88 189.385 183.713 184.217C188.248 181.563 192.815 179.366 197.568 177.687C199.483 177.01 201.285 176.52 203.215 176.206C205.215 175.882 206.32 175.274 207.551 173.115C210.077 168.682 213.069 167.632 217.079 166.513C218.892 166.007 220.635 165.163 222.437 164.601C224.312 164.017 226.232 163.659 228.063 162.754C236.391 158.637 229.724 145.619 226.971 140.866C225.898 139.014 224.644 137.085 222.981 135.956C221.259 134.787 218.76 133.823 216.783 133.223C215.441 132.817 213.298 133.25 212.479 131.683C211.818 130.421 212.595 128.74 213.04 127.381C214.289 123.568 211.791 122.789 209.367 121.625C205.579 119.806 202.338 116.857 198.558 114.982C196.145 113.786 189.484 110.307 188.145 115.694C187.13 119.778 188.614 124.349 189.365 127.98C189.953 130.818 190.643 133.585 191.313 136.381C191.815 138.472 192.182 140.732 191.611 143.041C191.16 144.865 190.134 146.559 188.465 145.967C186.59 145.303 185.705 142.648 184.365 141.194C183.698 143.68 184.554 146.757 184.575 149.218C184.601 152.119 184.516 155.116 184.218 158.052C184.028 159.926 183.021 167.091 180.246 165.634C178.376 164.651 177.412 161.115 176.693 158.999C175.937 156.769 175.334 154.459 174.718 152.151C173.401 154.592 176.556 160.371 173.791 162.278C170.839 164.313 168.863 154.804 168.104 152.974C167.432 154.901 168.628 159.666 165.876 160.097C163.928 160.402 162.208 156.924 161.421 155.291C159.981 152.307 160.612 148.588 160.08 145.201C159.472 141.323 158.371 137.687 157.891 133.746C156.378 121.327 158.329 103.704 167.757 94.0012C174.121 87.4497 182.382 87.643 189.251 89.6311C197.067 91.8935 204.17 96.3568 210.827 101.198C215.296 104.448 219.618 107.961 223.897 111.525C227.055 114.155 230.183 116.833 233.294 119.537C234.798 120.846 236.239 122.227 237.668 123.644C238.847 124.813 240.254 126.179 242.007 125.962C241.365 123.545 239.21 122.384 237.866 120.663C236.275 118.626 235.857 115.573 235.791 112.681C235.72 109.567 235.194 108.729 232.969 107.507C230.744 106.285 228.787 104.617 227.005 102.673C222.823 98.1126 217.738 95.0062 212.266 92.8183C207.424 90.8826 202.16 89.4392 198.055 85.9012C194.999 83.2675 191.608 78.0639 196.966 74.4608C194.581 71.1598 190.285 65.5885 196.086 61.9875C200.582 59.1963 206.049 60.4903 210.415 61.2996C210.164 59.615 208.283 58.703 207.358 57.6408C206.217 56.3305 204.769 54.8729 204.783 52.7097C204.806 49.1723 208.037 48.7387 210.206 48.7855C218.452 48.9643 227.135 51.5882 233.831 56.3964C233.85 54.6137 232.199 52.9917 231.325 51.8716C230.161 50.3793 229.04 48.7752 228.401 46.8125C228.063 45.7771 227.887 44.6928 228.055 43.5084C228.237 42.2318 228.217 42.7819 228.603 42.506C230.025 41.4865 231.796 41.0072 233.346 41.2084C237.813 41.7876 241.114 45.0794 244.995 47.1142C246.711 48.0137 248.382 48.5622 249.916 49.8782C251.765 51.4651 253.715 52.9137 255.529 54.5506C256.371 55.3115 257.129 56.1743 257.988 56.908C258.767 57.5732 258.824 58.2376 259.367 59.1303C259.865 59.9493 260.686 59.742 261.315 60.4023C262.185 61.315 262.877 62.754 263.631 63.8286C266.567 68.0129 269.169 72.6748 271.076 77.7405C274.369 86.4852 276.599 99.5011 270.62 109.054C269.224 111.284 267.097 111.691 265.989 114.202C265.018 116.402 264.407 118.652 263.323 120.801C262.224 122.978 263.917 125.525 264.413 127.555C265.19 130.732 265.042 134.136 265.095 137.522C265.562 136.7 266.003 135.25 266.85 134.872C267.877 134.415 267.577 135.71 268.348 135.244C269.254 134.696 270.499 132.132 271.186 131.145C272.102 129.83 273.033 128.527 274.022 127.286C278.061 122.219 283.256 118.689 288.544 116.314C299.341 111.466 310.613 112.821 320.312 117.108C330.054 121.413 337.485 129.425 343.472 139.183C346.788 144.586 349.464 150.388 351.609 156.704C353.715 162.907 355.971 168.988 356.988 175.766C357.559 179.572 357.964 183.483 357.836 187.472C357.737 190.568 357.467 194.299 355.954 197.177C354.659 199.64 352.381 200.67 350.823 198.624C349.456 196.829 349.329 194.02 348.645 191.76C347.595 195.101 347.928 208.177 342.936 207.864C339.249 207.634 340.388 197.191 340.34 194.096C338.875 197.977 338.803 202.449 336.672 206.064C335.639 207.819 332.999 210.852 332.094 207.889C331.689 206.562 332.049 204.844 332.136 203.404C332.247 201.589 332.273 199.782 332.386 197.966C332.673 193.39 333.321 188.81 333.794 184.228C332.083 186.944 331.002 192.268 328.058 193.602C325.074 194.954 325.183 189.526 325.401 187.361C325.766 183.721 326.874 180.128 327.31 176.487C327.752 172.798 327.496 169.351 326.664 165.981C323.704 153.995 315.204 143.779 304.78 141.276C304.698 144.089 306.269 151.668 301.999 150.996C301.037 150.845 300.211 150.471 299.21 150.42C297.98 150.357 296.379 150.85 295.213 150.522C294.506 150.323 294.623 149.955 293.754 150.353C292.842 150.769 292.54 151.581 292.005 150.116C291.012 151.467 289.426 151.583 288.142 152.015C288.22 151.633 288.298 151.25 288.376 150.868C287.38 151.97 286.568 152.051 285.351 152.455C284.571 152.713 284.116 152.504 283.45 152.589C282.643 152.691 282.145 153.134 281.357 153.482C280.501 153.861 279.234 153.56 278.479 154.262C277.142 155.503 278.099 158.194 278.36 159.515C279.093 163.229 279.165 167.387 278.92 171.334C278.858 172.341 278.857 173.061 278.498 174.004C278.185 174.825 278.128 174.18 278.054 175.032C278.028 175.333 278.32 176.032 278.348 176.258C278.584 178.172 277.915 180.528 277.485 182.466C276.459 187.098 274.936 191.376 272.851 195.627C271.937 197.491 271.055 199.449 270.036 201.244C269.088 202.912 268.037 203.843 267.857 205.803C267.47 210.005 263.743 210.474 261.237 212.687C260.102 213.69 259.593 215.145 259.04 216.605C258.245 218.71 257.194 220.585 256.003 222.453C253.919 225.725 251.116 229.982 248.158 232.135C246.827 233.103 245.553 234.211 244.15 234.858C243.493 235.16 242.556 236.023 241.888 236.099C241.255 236.17 241.652 235.434 240.857 235.957C240.249 236.356 240.1 237.092 239.285 237.523C238.504 237.935 237.693 238.251 236.895 238.585C235.273 239.263 233.551 239.87 231.995 240.818C230.487 241.737 228.971 242.717 227.456 243.645C226.061 244.5 224.942 245.677 224.159 247.335C220.719 254.62 224.845 262.079 228.916 266.146C234.185 271.41 241.485 271.858 248.638 270.064C256.054 268.204 264.007 263.743 269.762 257.07C271.193 255.412 272.669 253.625 273.901 251.754C274.712 250.523 275.244 248.924 276.199 247.833C278.34 245.387 280.594 249.88 281.894 251.188C287.029 239.718 294.628 227.101 305.811 224.728C316.412 222.479 327.325 229.509 331.221 240.488C332.139 243.075 333.348 247.217 331.61 250.132C330.097 252.667 327.106 252.749 324.99 252.639C321.973 252.483 319.007 251.449 316.421 249.944C315.757 249.558 314.688 248.609 313.852 248.744C312.554 248.954 312.082 251.113 311.209 252.121C310.327 253.141 309.47 252.857 309.613 251.365C309.751 249.94 311.097 248.827 310.52 247.431C310.199 246.655 308.694 245.784 307.883 246.192C307.204 246.533 306.815 247.927 306.206 248.489C304.526 250.038 305.084 247.126 305.12 245.861C305.175 243.959 303.835 242.223 302.004 242.74C300.858 243.063 300.136 244.958 299.589 246.083C298.471 248.381 297.542 250.626 296.247 252.827C295.26 254.506 291.697 259.032 292.414 260.981C292.858 262.186 294.485 263.116 295.404 263.719C296.684 264.559 298.304 265.22 299.388 266.37C299.897 266.911 300.968 268.327 300.945 269.246C300.905 270.802 299.418 270.596 298.916 269.71C294.883 277.175 290.494 284.44 284.93 290.488C279.347 296.557 272.866 301.246 266.267 305.222C253.361 313 239.374 317.183 225.842 316.288C218.92 315.831 212.127 313.846 206.45 309.776C205.81 309.316 205.172 308.803 204.449 308.509C203.794 308.242 203.017 308.406 202.383 308.146C201.561 307.808 201.892 307.438 201.481 306.765C201.101 306.143 200.353 305.814 199.901 305.254C197.649 302.465 195.879 298.801 194.439 295.286C191.735 288.684 189.413 280.647 189.263 272.864C189.112 265.045 190.925 257.103 192.2 249.261C192.988 244.41 195.221 240.182 196.981 235.625C198.782 230.957 200.674 226.39 202.704 221.836C203.507 220.035 203.834 218.685 202.978 217.107C202.31 215.878 201.358 214.832 199.959 215.326C198.493 215.843 196.934 217.275 195.515 218.082C194.053 218.913 193.148 220.216 192.367 218.235C192 219.761 191.295 220.11 190.136 220.419C188.581 220.834 187.107 221.313 185.6 222.104C182.342 223.813 179.477 226.783 177.092 230.017C174.55 233.465 171.738 236.956 169.628 240.78C167.329 244.949 165.98 249.879 164.744 254.476C163.451 259.281 162.243 264.138 161.305 269.005C160.418 273.608 159.391 278.773 159.424 283.36C159.46 288.418 162.026 294.619 155.997 296.871C151.769 298.451 147.435 297.078 143.25 298.734C143.496 299.747 143.558 300.853 143.852 301.842C144.222 303.09 144.795 303.185 145.677 303.821C147.293 304.986 146.09 306.172 145.849 307.983C145.635 309.59 146.908 311.704 147.443 313.013C148.249 314.984 149.099 316.947 149.613 319.101C150.728 323.771 149.607 328.426 146.595 332.428C143.947 335.947 140.433 339.855 136.83 341.675C132.897 343.663 128.459 345.186 124.394 346.318C120.739 347.337 117.036 347.735 113.419 347.612C110.707 347.519 107.014 347.231 105.506 344.405C104.123 341.815 104.523 338.177 106.137 335.374C109.921 328.805 117.374 325.81 123.009 322.737C121.678 321.819 119.773 321.24 118.971 319.564C117.968 317.469 119.678 316.147 121.329 316.475C122.761 316.76 124.087 317.61 125.329 318.377C126.433 319.057 128.356 320.746 129.807 320.056C131.725 319.142 130.241 317.587 129.496 316.876C128.096 315.54 128.503 314.246 130.355 313.468C133.347 312.212 129.675 311.452 129.666 309.818C129.654 307.752 132.139 306.226 132.516 304.043C132.876 301.96 133.232 298.249 132.287 296.537C131.635 295.354 130.079 295.16 129.008 294.726C127.276 294.024 125.655 293.024 124.067 292.007C122.599 295.789 120.943 291.838 120.33 290.106C119.177 286.844 119.259 283.17 119.109 279.542C118.941 275.455 118.921 271.469 119.314 267.301C119.742 262.757 121.064 258.555 122.66 254.238Z" fill="#3F3F3F"/>
<path fill-rule="evenodd" clip-rule="evenodd" d="M123.346 90.489C123.965 86.1287 125.945 82.7665 127.78 78.9071C129.284 75.7446 130.958 72.6278 133.413 70.3283C135.643 68.24 138.884 65.6446 141.612 65.9924C143.734 66.2629 144.673 68.596 142.396 70.1583C140.125 71.7164 138.179 72.633 136.15 74.8427C133.812 77.3885 131.796 80.3804 130.077 83.5385C126.946 89.2916 124.288 96.2725 124.406 102.816C124.417 103.465 124.623 105.353 123.879 105.731C123.028 106.163 122.797 104.697 122.738 104.077C122.683 103.499 123.082 98.2025 122.19 98.7501C122.404 98.0515 122.724 97.7665 122.855 97.0608C122.931 96.6528 122.791 96.0262 122.89 95.4979C123.214 93.7668 123.103 92.2014 123.346 90.489Z" fill="#3F3F3F"/>
<path fill-rule="evenodd" clip-rule="evenodd" d="M263.297 98.1547C261.021 97.7935 262.457 91.5003 262.164 89.6656C262.026 88.8044 261.915 87.7781 261.729 86.9642C261.584 86.3325 261.257 86.1805 261.159 85.6819C260.833 84.0259 261.609 82.9029 262.276 81.4853C261.495 81.1688 261.215 81.1209 261.165 80.0498C261.15 79.7335 261.49 79.2279 261.372 78.9698C261.209 78.6148 260.766 78.7081 260.587 78.4021C260.54 78.3219 260.722 77.6717 260.705 77.4117C260.666 76.8243 260.579 76.5858 260.349 76.0995C260.039 75.4444 258.896 74.9065 259.541 73.9817C259.243 73.91 258.977 73.7696 258.742 73.5607C258.775 73.0451 259.55 73.3879 259.553 73.0886C259.558 72.4536 258.979 71.5088 258.521 71.2934C259.002 71.1024 259.484 70.911 259.966 70.7196C258.984 70.2515 259.199 69.4874 257.922 70.1622C258.333 68.9647 257.26 67.5952 256.867 66.7014C256.128 65.0215 255.205 63.5411 254.314 61.9869C253.541 60.6359 252.864 59.223 252.181 57.7974C251.832 57.0679 251.473 56.3463 251.024 55.707C250.565 55.0537 250.078 55.0743 249.625 54.602C248.902 53.8479 248.668 52.5481 247.943 51.7815C247.617 51.436 247.374 51.7129 247.171 51.3185C246.981 50.9498 246.994 49.8534 247.247 49.4754C248.313 47.8843 251.938 53.308 252.536 54.0367C259.807 62.8916 264.667 74.1345 265.616 87.281C265.745 89.0674 266.617 98.6802 263.297 98.1547Z" fill="#3F3F3F"/>
<path fill-rule="evenodd" clip-rule="evenodd" d="M227.547 121.325C226.352 120.954 224.049 118.891 224.971 116.834C225.822 114.936 226.757 117.326 227.802 117.288C228.918 117.248 230.085 114.551 230.286 117.56C230.394 119.176 229.026 121.786 227.547 121.325Z" fill="#3F3F3F"/>
<path fill-rule="evenodd" clip-rule="evenodd" d="M392.02 156.746C398.209 163.625 408.449 164.593 417.517 164.408C422.961 164.296 428.408 163.851 433.72 162.769C436.584 162.185 439.424 161.425 442.182 160.519C444.004 159.921 446.731 159.598 447.466 157.791C449.403 153.022 447.729 147.094 446.753 142.292C446.256 139.849 445.867 137.39 445.382 134.945C445.072 133.381 444.898 131.648 444.14 130.19C443.252 128.483 442.197 128.84 440.428 129.338C437.99 130.024 435.477 130.328 432.962 130.713C426.825 131.651 421.497 133.453 415.963 135.98C410.492 138.478 405.186 140.944 400.337 144.383C397.881 146.125 395.774 148.01 393.823 150.215C392.316 151.919 390.07 154.578 392.02 156.746ZM419.088 187.308C419.156 188.057 428.51 185.674 429.741 185.404C437.825 183.634 446.064 181.631 453.658 178.525C460.746 175.625 466.971 172.332 472.476 167.271C475.042 164.912 477.34 162.434 479.532 159.797C480.631 158.476 482.183 158.607 483.418 157.485C484.528 156.476 485.38 155.687 484.985 154.204C482.163 154.924 477.031 159.288 474.03 157.157C472.319 155.942 474.612 154.62 475.668 153.89C477.653 152.516 479.336 150.832 480.896 149.067C478.152 149.59 475.61 150.566 473.245 151.91C472.195 152.507 468.596 154.668 467.693 152.664C467.136 151.429 469.573 149.838 470.327 149.142C472.18 147.432 474.176 145.438 475.123 143.159C472.619 142.663 470.319 144.451 468.661 145.904C466.82 147.518 464.557 149.215 463.027 151.067C462.237 152.022 462.089 153.139 461.48 154.166C460.795 155.322 459.676 156.319 458.604 157.181C456.539 158.842 454.105 160.077 451.6 161.105C445.877 163.453 439.721 165.142 433.586 166.351C430.576 166.944 427.633 167.237 424.566 167.37C422.183 167.474 421.144 168.139 420.286 170.158C417.965 175.621 418.569 181.59 419.088 187.308ZM488.788 145.011C490.198 146.172 492.009 146.888 493.481 148.003C494.776 148.983 496.267 150.028 497.704 150.816C499.239 151.657 500.352 151.039 501.693 150.243C503.266 149.309 505.093 148.915 506.717 148.076C512.332 145.175 519.11 138.156 517.88 131.808C517.359 129.118 515.762 126.484 512.958 125.297C510.411 124.218 506.735 123.649 504.066 124.612C502.561 125.156 501.504 126.327 500.56 127.476C499.46 128.816 499.02 128.613 497.83 127.349C495.701 125.089 492.237 123.127 488.866 123.219C487.191 123.265 485.535 123.609 484.042 124.263C483.839 124.352 483.732 124.615 483.529 124.706C483.28 124.817 482.86 124.597 482.687 124.701C482.252 124.962 481.832 125.766 481.588 126.174C480.607 127.813 478.849 131.024 480.742 132.368C480.742 132.368 480.708 134.221 480.739 134.432C480.899 135.534 481.341 136.441 481.906 137.443C483.603 140.456 486.053 142.761 488.788 145.011ZM486.714 170.716C488.03 171.07 489.339 167.312 488.07 166.732C486.86 166.178 485.522 170.395 486.714 170.716ZM507.117 165.98C507.607 167.387 507.84 168.987 508.977 170.122C509.961 169.011 510.008 166.984 508.996 165.869C508.418 165.232 506.582 164.443 507.117 165.98ZM464.654 141.773C464.662 141.809 463.101 142.519 463.891 143.264C464.971 144.28 464.774 142.277 464.654 141.773ZM457.823 130.346C457.879 131.774 461.181 131.387 461.119 129.951C461.044 128.183 457.764 128.833 457.823 130.346ZM461.461 118.36C461.099 117.057 455.292 115.312 455.509 117.589C455.618 118.73 462.229 121.131 461.461 118.36ZM521.665 161.939C522.329 162.639 523.254 162.907 524.042 163.441C524.868 164 525.468 164.733 526.194 165.393C528.188 167.205 530.571 168.685 532.715 170.346C536.657 173.398 540.443 176.686 544.792 179.263C552.564 183.866 561.501 186.323 570.364 188.462C571.099 188.639 573.22 189.365 573.927 188.795C574.689 188.18 574.237 186.056 574.18 185.252C573.947 181.954 573.438 178.621 573.397 175.326C573.38 173.973 573.763 172.043 572.957 170.815C572.058 169.443 569.636 169.07 568.132 168.569C563.558 167.046 559.122 164.434 555.054 162.014C550.052 159.04 545.001 156.015 539.862 153.245C534.827 150.53 529.305 148.741 523.728 147.225C523.485 147.721 526.168 149.27 526.475 149.488C527.951 150.534 529.556 151.617 530.667 153.008C531.455 153.993 532.294 156.234 530.195 156.319C529.177 156.36 527.647 155.48 526.716 155.2C525.178 154.74 523.597 154.422 521.996 154.223C523.404 155.585 528.119 158.003 527.334 160.307C526.571 162.544 521.755 160.008 520.121 160.029C520.409 160.801 521.097 161.34 521.665 161.939ZM577.919 167.428C580.986 168.365 584.117 168.88 587.272 169.469C590.279 170.032 593.055 170.449 596.11 170.058C600.327 169.517 604.966 167.857 605.387 163.461C605.885 158.252 601.738 153.525 598.186 149.839C593.863 145.354 589.036 141.357 583.825 137.748C578.619 134.143 573.019 130.978 567.169 128.32C562.719 126.298 557.722 125.1 553.033 123.601C552.141 123.315 549.668 122.304 548.864 123.179C548.214 123.886 549.155 125.039 549.476 125.684C550.104 126.941 550.219 128.213 550.408 129.57C551.253 135.626 552.238 141.679 552.778 147.766C552.928 149.463 553.161 151.236 553.098 152.936C553.063 153.878 552.558 155.083 552.939 155.997C553.672 157.755 556.847 158.883 558.533 159.65C561.553 161.024 564.739 162.037 567.788 163.349C571.136 164.79 574.4 166.352 577.919 167.428ZM534.713 128.56C533.875 128.466 532.619 128.275 531.888 128.778C530.935 129.435 531.213 130.327 532.122 130.783C532.839 131.142 534.498 131.222 535.188 130.878C536.364 130.292 536.121 128.719 534.713 128.56ZM530.46 142.665C531.162 143.682 533.644 144.323 533.379 142.411C533.152 140.775 529.168 140.792 530.46 142.665ZM530.614 113.757C529.54 114.154 527.581 114.508 527.293 115.786C527.025 116.975 528.253 116.881 529.132 116.543C529.855 116.266 533.041 113.705 530.614 113.757ZM361.937 161.167C362.51 158.909 361.963 156.424 362.251 154.115C362.531 151.876 363.087 149.815 363.907 147.698C365.723 143.012 367.832 138.787 370.866 134.656C376.58 126.876 383.266 120.001 391.407 114.267C399.445 108.607 408.388 103.975 417.904 100.687C427.995 97.2003 438.211 95.9002 448.928 95.1183C452.129 94.8852 455.326 94.6162 458.504 94.2052C460.826 93.9049 463.738 93.5343 466.058 94.1563C467.516 94.5471 468.355 95.6891 466.799 96.4656C465.695 97.0163 464.233 97.0992 463.003 97.2577C464.608 101.564 467.148 105.874 471.072 108.803C474.902 111.662 479.952 112.594 484.709 113.271C487.288 113.637 490.173 113.909 492.777 113.703C494.424 113.573 495.692 112.859 496.399 114.402C496.889 115.474 497.138 116.654 497.704 115.018C498.374 113.085 498.727 113.093 500.953 112.517C505.505 111.341 510.729 110.253 514.662 107.785C518.742 105.224 520.078 101.149 522.293 97.3423C522.841 96.4014 524.518 94.4895 523.607 93.4312C522.774 92.4634 520.153 92.5948 518.949 92.5083C517.678 92.417 516.402 92.4289 515.129 92.4002C514.391 92.3837 512.916 92.6787 513.186 91.6696C513.593 90.1487 518.392 90.281 519.581 90.241C521.794 90.1671 524.039 90.1849 526.247 90.3788C537.196 91.3406 548.268 93.2375 558.906 95.8203C579.547 100.831 599.659 110.295 614.99 124.106C629.706 137.363 634.846 159.674 626.469 176.952C622.116 185.932 612.254 189.725 602.679 192.809C597.629 194.435 592.27 195.726 586.85 195.501C584.249 195.393 581.768 194.787 579.222 194.338C578.112 194.142 576.846 193.824 575.713 193.923C574.856 193.998 574.05 194.729 573.234 194.357C572.655 194.093 572.386 193.316 571.678 192.993C570.829 192.606 569.807 192.475 568.896 192.286C566.362 191.759 563.9 190.885 561.418 190.174C558.852 189.438 556.423 188.48 553.954 187.511C552.707 187.022 549.798 185.004 549.034 186.516C548.686 187.207 548.877 188.527 548.806 189.247C548.683 190.506 548.532 191.763 548.365 193.017C547.995 195.779 547.537 198.531 547.067 201.279C546.217 206.238 545.079 210.989 543.091 215.669C541.503 219.406 540.134 223.636 537.082 226.632C535.749 227.939 533.9 228.544 531.93 228.164C529.688 227.731 528.53 225.897 527.137 224.419C524.073 221.168 519.091 218.71 514.528 217.861C508.94 216.822 503.568 218.517 498.299 219.967C492.725 221.501 487.048 222.967 481.586 224.795C476.496 226.498 471.016 228.987 465.444 228.849C460.584 228.728 455.954 225.179 452.381 222.474C448.792 219.757 444.288 215.769 439.24 216.16C436.734 216.354 434.475 217.489 432.041 217.971C429.369 218.499 426.515 218.606 423.789 218.825C420.406 219.097 412.803 218.388 411.451 214.681C411.25 214.131 411.219 212.994 412.012 212.763C412.742 212.55 413.138 213.33 413.833 213.285C415.247 213.194 416.294 210.925 417.049 210.042C420.096 206.477 424.334 203.793 427.773 200.564C431.657 196.918 434.938 192.519 437.823 188.185C436.459 187.881 435.011 188.434 433.706 188.705C432.12 189.034 430.577 189.426 429.017 189.841C427.298 190.299 425.55 190.621 423.802 190.975C422.498 191.239 420.76 191.336 419.593 191.952C418.574 192.489 418.012 193.06 416.734 193.228C415.434 193.4 414.092 193.287 412.782 193.296C409.239 193.319 405.702 193.305 402.166 193.008C389.675 191.961 376.34 187.319 368.597 177.865C366.49 175.293 364.773 172.436 363.655 169.396C362.783 167.022 361.298 163.68 361.937 161.167Z" fill="#3F3F3F"/>
<path fill-rule="evenodd" clip-rule="evenodd" d="M476.601 50.8045C473.338 50.8888 470.301 51.8107 467.285 52.8531C464.633 53.7698 461.803 54.6227 459.686 56.4113C455.879 59.6287 455.004 64.886 454.486 69.381C453.839 74.99 456.606 79.6532 458.964 84.6898C461.17 89.4003 465.09 93.1888 469.706 96.0546C472.124 97.5558 474.777 98.4465 477.548 99.2219C480.363 100.009 483.097 101.077 486.085 101.035C490.623 100.97 496.381 98.9305 498.206 94.8303C499.037 92.9634 498.171 92.6414 496.437 93.6726C493.921 95.1686 491.499 96.7792 488.531 97.4667C482.774 98.8005 475.788 96.9393 470.643 94.4311C465.5 91.9236 461.99 88.1025 459.586 83.319C457.16 78.4933 456.141 73.7204 456.889 68.4746C457.523 64.0291 458.909 59.958 463.231 57.4934C472.561 52.1738 485.327 52.4281 493.924 59.0742C495.103 59.9853 496.268 60.8716 497.481 61.7405C498.253 62.2927 499.161 62.9555 499.077 63.9289C499.005 64.7624 497.143 67.9965 499.461 66.9806C501.34 66.1569 502.332 64.5812 504.629 64.3581C507.074 64.1204 510.042 65.7985 510.832 67.9485C511.585 70 510.413 72.8351 508.492 74.0422C507.302 74.7897 505.968 74.6938 504.594 74.682C503.912 74.6761 502.01 74.4987 501.576 75.1613C500.809 76.3331 503.656 77.5176 504.572 77.7629C506.799 78.3595 509.393 77.5901 510.616 75.7747C511.86 73.9292 512.688 71.8012 512.809 69.6201C512.924 67.5304 512.348 65.4236 510.952 63.727C509.466 61.9227 506.483 59.9168 503.874 60.5839C502.741 60.8735 501.854 61.9587 500.741 62.1771C500.038 62.3146 500.338 62.4028 499.74 61.9333C499.361 61.6355 498.995 61.0815 498.643 60.7272C496.618 58.69 494.611 56.5139 492.155 54.8942C487.751 51.9898 481.965 50.6658 476.601 50.8045ZM489.642 91.5435C489.102 90.4571 488.213 92.4191 487.944 92.7487C487.411 93.4008 486.131 93.9193 486.212 94.8699C486.346 96.4392 488.686 96.1176 489.448 95.2882C490.314 94.344 490.176 92.6165 489.642 91.5435ZM472.761 84.3228C471.542 86.1388 473.137 88.0615 474.181 89.6414C475.179 91.152 476.114 92.8622 477.267 94.2796C479.18 96.6329 483.139 94.0094 483.194 91.5646C483.236 89.6932 481.804 90.5261 480.89 91.2366C479.949 91.9685 479.499 92.1535 478.471 91.3807C476.405 89.8253 475.425 87.1927 473.972 85.2085C473.684 84.8151 473.175 84.5829 472.761 84.3228ZM469.165 84.948C468.861 85.8226 469.607 88.1198 467.696 87.9138C466.64 87.8001 466.379 86.426 465.81 85.8321C463.895 83.8358 464.567 87.6496 465.078 88.5997C466.206 90.6937 469.245 92.1074 470.662 89.4141C471.189 88.4122 471.154 87.1568 470.844 86.0911C470.676 85.5107 469.725 83.333 469.165 84.948ZM486.046 80.607C486.241 81.6203 487.342 83.6299 486.083 84.3729C484.975 85.0269 482.979 83.6635 482.097 83.0948C481.181 82.5039 479.096 80.8017 479.073 82.9537C479.061 84.0507 480.299 85.3507 481.175 85.9713C483.044 87.2947 486.885 88.4539 488.169 85.901C488.868 84.5103 488.414 82.5491 487.89 81.1636C487.466 80.0406 485.574 78.1594 486.046 80.607ZM461.856 75.3574C461.131 76.1567 459.41 77.9486 460.401 79.0608C461.559 80.3607 463.322 77.9255 464.024 77.245C464.657 76.632 465.976 74.8925 465.37 73.9867C464.367 72.4879 462.493 74.6557 461.856 75.3574ZM473.492 71.8061C471.091 73.2855 474.325 74.2868 475.717 74.3985C477.402 74.5331 479.554 74.6091 481.078 73.8373C483.239 72.7434 482.467 71.1429 480.335 70.7849C478.15 70.4181 475.354 70.6578 473.492 71.8061ZM505.07 66.7877C503.285 67.1289 501.248 67.5692 500.684 69.359C500.102 71.2088 501.025 71.8083 502.845 71.3701C504.53 70.9645 507.051 70.5457 507.969 69.0245C509.066 67.2071 506.725 66.4717 505.07 66.7877Z" fill="#3F3F3F"/>
<path fill-rule="evenodd" clip-rule="evenodd" d="M605.233 104.726C605.886 106.531 608.98 107.694 610.536 108.776C615.979 112.561 621.304 116.507 626.248 120.845C628.815 123.096 630.784 125.834 633.024 128.346C633.57 128.958 634.546 130.335 635.583 130.191C636.721 130.033 636.904 128.206 636.847 127.41C636.652 124.696 633.91 122.108 631.955 120.263C629.755 118.188 627.409 116.169 625.017 114.285C622.383 112.211 619.538 110.436 616.641 108.699C613.795 106.994 611.058 105.017 608.105 103.477C606.714 102.752 604.429 102.499 605.233 104.726ZM418.024 89.9588C415.796 90.0533 413.637 90.7604 411.55 91.4179C406.96 92.8645 402.603 94.8449 398.31 96.9112C390.784 100.533 383.564 104.891 376.97 109.825C375.591 110.856 374.173 111.695 372.667 112.543C371.703 113.087 370.326 113.752 369.977 114.838C369.092 117.599 373.849 114.777 374.524 114.374L375.474 113.807C389.558 105.399 403.631 97.2254 419.681 92.2993C420.536 92.0368 420.785 91.3205 420.315 90.6198C419.805 89.8604 418.852 89.9238 418.024 89.9588ZM605.587 93.2517C605.712 94.0871 606.738 94.264 607.434 94.5236C610.031 95.4917 612.689 96.3115 615.279 97.2963C620.088 99.124 624.529 101.81 629.534 103.179C630.678 103.493 630.817 102.428 630.495 101.708C630.135 100.906 629.104 100.352 628.357 99.8951C626.201 98.575 623.77 97.6375 621.39 96.7322C619.031 95.8338 616.608 95.1627 614.194 94.4154C611.95 93.7207 609.332 92.4074 606.94 92.3392L606.835 92.3359C606.074 92.3102 605.441 92.2708 605.587 93.2517ZM413.784 83.0519C416.043 82.4288 413.86 81.1218 412.511 81.2333C411.006 81.3578 409.566 82.0371 408.147 82.4541C403.808 83.7288 399.791 85.1133 395.757 87.0565C395.156 87.3466 392.508 88.7191 394.298 89.2881C395.538 89.6822 398.365 87.8842 399.41 87.448C404.001 85.5312 408.959 84.3829 413.784 83.0519Z" fill="#3F3F3F"/>
<path fill-rule="evenodd" clip-rule="evenodd" d="M504.71 86.7488C504.413 86.0005 500.768 77.8266 502.104 77.5612C503.52 77.2798 505.545 82.0235 505.98 82.8796C507.587 86.0416 508.578 89.4439 509.374 92.8477C509.929 95.2177 510.425 97.6466 510.316 100.079C510.232 101.947 509.404 102.241 508.058 103.403C507.911 97.7317 506.831 92.0908 504.71 86.7488Z" fill="#3F3F3F"/>
</svg>
