<svg width="447" height="409" viewBox="0 0 447 409" fill="none" xmlns="http://www.w3.org/2000/svg">
<ellipse cx="222.5" cy="163.18" rx="183.5" ry="159" fill="#61B3FF" fill-opacity="0.1"/>
<path fill-rule="evenodd" clip-rule="evenodd" d="M162.438 178.171C162.13 182.796 161.822 187.42 161.514 192.045C163.495 191.52 176.098 188.113 175.32 191.568C174.761 194.045 171.218 196.725 169.413 198.45C167.751 200.039 166.04 201.585 164.286 203.087C167.51 201.953 170.762 200.879 174.037 199.874C176.515 199.114 179.011 198.372 181.55 197.802C182.493 197.59 185.038 196.727 185.928 197.316C188.268 198.863 175.573 210.257 173.834 211.863C176.293 210.813 178.811 209.858 181.372 209.04C183.221 208.448 188.933 206.189 190.569 208.118C192.32 210.183 187.982 214.924 186.779 216.427C185.054 218.581 183.186 220.647 181.226 222.623C189.374 229.346 198.948 235.33 209.138 239.05C216.609 241.777 223.948 242.471 231.832 240.975C239.931 239.437 247.699 236.488 255.083 233.116C259.419 231.136 263.698 228.993 267.775 226.586C266.094 224.708 264.463 222.791 262.877 220.844C260.614 218.065 257.834 215.028 256.543 211.72C255.281 208.482 260.018 209.114 262.29 209.29C265.581 209.544 268.862 210.085 272.087 210.731C269.807 209.274 267.568 207.759 265.374 206.194C262.515 204.156 258.701 201.85 256.83 198.917C255.184 196.338 258.796 196.989 260.466 197.327C264.448 198.133 268.323 199.506 272.12 200.846C274.902 201.827 277.666 202.854 280.403 203.936C278.704 202.579 277.062 201.157 275.484 199.683C273.362 197.701 270.501 195.281 269.55 192.552C267.613 186.995 280.643 191.187 282.867 192.045C282.456 186.288 282.046 180.531 281.635 174.774C264.383 178.991 247.13 183.209 229.878 187.427C228.013 187.883 225.68 188.876 223.735 188.929C221.974 188.977 219.847 188.248 218.13 187.947L186.91 182.467C178.752 181.035 170.595 179.603 162.438 178.171Z" fill="#61B3FF"/>
<path fill-rule="evenodd" clip-rule="evenodd" d="M347.864 376.183C346.001 377.162 343.819 377.918 341.75 378.425C340.535 378.724 338.527 379.644 337.459 378.8C336.947 378.395 336.829 377.475 336.527 376.942C336.048 376.098 335.368 375.369 334.731 374.623C333.186 372.816 331.578 371.072 329.896 369.371C329.099 368.565 327.644 366.684 326.239 366.808C324.489 366.962 324.531 369.188 324.97 370.325C326.366 373.946 330.594 377.102 333.356 379.83C332.654 380.822 328.797 380.704 327.726 380.472C326.091 380.117 325.926 379.048 325.18 377.824C323.435 374.965 319.894 373.366 316.984 371.685C315.922 371.071 313.667 369.373 312.284 369.8C310.974 370.205 311.031 371.743 311.448 372.748C312.079 374.265 313.872 375.318 315.199 376.278C316.967 377.556 318.585 378.948 320.059 380.513C317.934 380.672 315.817 380.947 313.698 381.108C311.135 381.302 308.999 380.01 306.64 379.278C304.448 378.597 302.264 378.022 300.108 377.238C297.688 376.357 295.153 376.051 292.711 375.278C283.13 372.247 273.742 368.434 264.509 364.59C260.11 362.758 255.801 360.926 251.217 359.493C247.876 358.448 242.626 356.366 241.827 352.71C241.406 350.778 242.942 348.701 243.168 346.771C243.434 344.5 243.225 342.002 242.472 339.824C241.808 337.904 240.709 336.127 239.842 334.285C238.833 332.137 239.736 332.172 241.698 331.928C244.045 331.635 246.785 330.421 248.992 329.631C251.534 328.719 254.053 327.446 256.381 326.137C258.487 324.953 260.32 323.427 261.996 321.769C263.701 320.083 264.805 318.085 266.454 316.357C272.539 323.233 278.322 330.212 284.788 336.79C287.839 339.895 291.158 342.462 294.918 344.823C296.488 345.809 298.046 346.935 299.757 347.714C301.897 348.69 304.288 349.295 306.487 350.185C314.918 353.598 322.964 357.329 330.83 361.733C334.635 363.863 337.828 366.305 341.179 368.977C342.222 369.809 350.765 374.658 347.864 376.183ZM248.962 319.86C247.6 320.428 246.301 321.164 244.847 321.528C245.259 319.224 247.599 315.75 250.599 316.132C251.745 316.278 252.61 317.096 252.106 318.223C251.648 319.247 249.933 319.457 248.962 319.86ZM154.126 257.381C152.581 258.164 151.142 258.621 150.237 256.939C150.907 256.815 153.955 256.442 154.126 257.381ZM151.554 252.627C150.361 252.294 151.315 251.945 151.726 251.543C152.046 251.231 153.105 250.135 153.476 249.955C155.113 249.158 156.379 252.123 157.162 253.085C155.308 252.934 153.359 253.129 151.554 252.627ZM164.317 262.893C162.055 263.245 162.306 260.644 162.373 259.327C162.85 259.862 166.081 262.618 164.317 262.893ZM171.815 258.401C169.056 258.828 167.234 254.45 167.728 252.535C168.163 250.848 170.301 249.906 172.003 249.657C173.652 249.416 175.949 249.745 176.439 251.493C176.871 253.037 173.653 258.116 171.815 258.401ZM237.107 324.494C235.125 325.053 233.182 325.124 231.19 325.673C228.93 326.297 226.838 326.241 224.573 326.665C223.651 326.838 221.165 328.071 220.267 327.796C219.376 327.523 218.088 324.984 217.576 324.324C221.583 322.794 225.002 320.818 227.643 317.593C229.744 315.029 231.996 311.187 230.675 307.877C229.184 304.146 224.047 303.336 220.622 304.895C219.002 305.632 217.396 306.548 216.06 307.671C214.533 308.955 213.932 310.357 212.942 311.941C211.942 313.543 211.239 312.652 210.239 311.292C209.385 310.129 209.497 308.955 208.429 307.807C207.884 307.222 207.04 306.658 206.756 305.902C206.576 305.422 206.955 304.573 206.614 304.195C206.133 303.665 205.548 304.288 205.145 303.814C204.853 303.471 204.948 302.687 204.646 302.257C204.384 302.012 204.092 301.803 203.77 301.63C203.379 301.452 203.308 301.23 203.556 300.963C203.245 300.434 203.544 300.256 202.879 299.613C201.841 298.61 200.894 297.649 200.155 296.465C199.818 295.923 199.851 295.12 199.431 294.651C198.856 294.007 197.897 294.104 197.402 293.307C196.961 292.597 197.256 291.355 196.529 290.71C196.145 290.61 195.762 290.511 195.378 290.413C195.089 290.156 194.921 289.843 194.873 289.475C194.469 288.904 194.389 288.233 193.879 287.629C192.903 286.475 191.59 285.409 190.728 284.192C189.822 282.913 190.302 282.697 191.876 282.24C193.296 281.826 194.593 281.443 195.908 280.739C201.992 277.486 207.76 268.858 198.104 266.222C194.52 265.244 191.576 262.613 187.602 263.647C185.88 264.096 184.246 265.05 182.961 266.182C182.073 266.965 181.251 269.059 180.16 269.461C178.2 270.182 179.029 268.38 178.473 267.552C178.207 267.157 177.138 266.702 176.742 266.342C176.277 265.921 175.827 265.389 175.504 264.867C174.905 263.9 174.538 263.36 173.674 262.572C173.348 262.275 171.721 260.738 173.189 260.938C172.594 259.275 173.461 259.025 174.66 257.809C176.067 256.382 177.521 254.398 177.529 252.398C177.545 248.558 172.592 246.838 169.482 249.117C168.849 249.581 165.105 254.058 165.871 251.203C166.284 249.663 170.108 245.643 171.881 246.683C169.894 244.023 165.33 250.482 164.265 251.803C163.358 250.269 163.294 249.069 161.793 247.881C160.571 249.682 161.216 247.714 160.947 247.314C160.365 246.45 160.685 247.438 160.369 247.131C159.976 246.749 159.357 246.448 158.94 245.942C158.223 246.835 158.509 245.874 158.29 245.541C157.777 244.761 157.975 244.309 157.096 243.631C156.456 243.138 155.195 242.372 154.334 242.302C153.341 242.221 153.066 242.571 152.054 242.312C150.767 241.983 149.147 241.478 149.77 243.456C150.222 244.894 152.062 245.711 152.465 247.179C152.871 248.658 151.28 250.148 150.508 251.359C149.516 252.914 148.706 252.787 146.91 253.138C145.762 253.362 144.23 253.841 145.215 255.12C145.918 256.034 147.565 255.842 148.493 256.383C149.794 257.142 149.776 259.013 151.436 259.339C153.265 259.697 154.313 257.826 155.855 257.375C156.952 257.053 160.349 257.089 161.212 257.846C162.388 258.876 161.372 260.846 161.668 262.126C162.108 264.025 163.506 264.141 165.275 264.201C167.452 264.276 168.217 266.196 169.388 267.72C172.13 271.288 174.513 275.091 177.322 278.612C178.566 280.17 180.385 281.557 181.403 283.249C182.66 285.338 180.915 286.543 179.408 288.042C177.44 290.002 175.971 292.232 174.264 294.373C172.747 296.277 170.861 295.803 168.437 295.803C168.978 294.78 169.628 294.142 170.957 294.266C169.567 292.707 168.455 294.49 167.554 295.478C166.25 296.906 164.549 297.251 162.874 298.191C162.281 298.523 159.053 300.677 160.034 301.413C160.145 301.496 165.489 298.266 166.098 297.97C166.098 299.162 165.814 300.401 165.996 301.587C166.129 302.456 166.794 303.363 166.653 304.267C166.384 305.973 163.984 307.317 162.953 308.647C162.178 309.648 162.365 310.437 161.97 311.511C161.61 312.491 161.799 312.194 160.902 312.497C159.076 313.113 156.001 312.781 154.347 311.904C153.321 311.36 152.533 310.501 151.699 309.743C151.071 309.172 149.491 308.196 149.316 307.397C149.017 306.02 151.991 303.463 152.58 302.044C154.242 298.037 151.391 294.923 146.955 294.696C148.322 293.727 150.017 294.457 151.458 294.826C148.995 291.69 144.787 294.271 142.697 296.402C141.27 293.086 140.581 289.588 139.709 286.13C139.115 283.776 136.853 279.573 137.862 277.149C138.35 275.977 139.726 275.323 140.679 274.511C141.761 273.587 142.687 272.483 143.478 271.34C145.342 268.647 146.418 265.248 143.852 262.594C144.632 262.476 145.412 262.359 146.191 262.241C144.923 261.146 142.922 261.68 141.276 261.355C140.232 261.149 137.227 261.282 136.53 260.739C135.692 260.087 136.229 257.083 136.259 256.194C136.328 254.116 136.517 252.118 136.767 250.053C137.003 248.102 136.956 245.995 137.395 244.078C137.751 242.523 138.889 242.049 140.203 241.132C143.342 238.941 145.9 236.275 144.828 232.498C145.208 232.443 145.588 232.387 145.968 232.332C144.74 231.516 143.15 231.813 141.784 231.381C143.038 228.137 145.813 222.433 150.319 222.126C150.474 223.576 150.368 225.301 151.433 226.502C152.646 227.869 154.774 228.007 156.417 227.284C157.907 226.627 159.307 225.235 159.994 223.86C160.459 222.93 160.375 221.356 161.191 220.618C162.285 219.629 169.828 220.226 169.597 221.896C169.461 222.877 167.444 224.528 166.88 225.398C165.848 226.991 165.023 228.713 164.644 230.542C164.068 233.32 164.402 236.986 167.472 238.447C170.963 240.108 175.219 237.996 178.082 236.171C179.655 235.169 181.178 234.064 182.614 232.902C183.379 232.285 184.148 231.648 184.822 230.945C185.32 230.426 185.718 229.59 186.331 229.202C187.779 228.284 189.198 229.841 190.423 230.627C192.419 231.908 194.405 233.125 196.547 234.191C200.894 236.355 204.869 239.22 208.712 242.066C212.578 244.928 216.565 247.872 219.696 251.438C217.799 252.51 218.138 252.789 217.294 254.701C216.695 256.058 215.87 257.213 215.775 258.72C215.61 261.322 217.429 263.54 220.188 264.116C221.732 264.438 223.202 264.18 224.632 263.6C225.743 263.15 226.85 262.041 228.011 261.765C230.169 261.254 231.896 264.999 233.106 266.319C238.479 272.179 244.158 277.807 249.217 283.906C249.778 284.581 251.442 285.901 251.577 286.795C251.772 288.08 249.572 289.303 248.66 290.04C248.181 290.426 243.102 294.816 244.807 295.514C245.293 295.712 246.717 293.019 247.072 292.789C248.405 291.926 247.397 293.617 247.318 294.471C247.119 296.595 248.707 297.753 250.939 297.483C253.321 297.196 255.441 295.469 256.915 293.837C258.763 295.802 261.65 298.774 262.184 301.399C262.525 303.077 260.946 307.182 263.895 307.524C264.345 307.576 265.974 306.466 266.278 307.096C266.531 307.622 264.77 308.522 264.516 308.696C263.43 309.44 262.775 310.238 261.899 311.139C260.87 312.197 259.465 313.089 258.307 314.103C257.088 315.171 254.677 318.072 253.068 316.67C252.259 315.966 252.472 315.045 251.177 314.632C249.997 314.255 248.503 314.733 247.407 315.15C246.173 315.62 242.11 317.335 241.659 318.747C241.037 320.694 244.396 318.353 244.993 318.011C244.312 319.599 243.935 321.898 242.201 322.825C240.76 323.595 238.688 324.047 237.107 324.494ZM214.072 312.481C215.225 309.076 222.026 303.004 226.325 304.903C221.315 305.867 217.34 309.017 214.072 312.481ZM216.615 322.233C214.939 321.375 215.029 318.882 214.444 317.424C214.108 316.587 213.436 315.975 213.634 315.047C213.865 313.958 215.377 312.748 216.181 311.963C218.713 309.491 223.169 306.114 227.244 306.681C232.432 307.402 228.915 313.8 227.149 316.003C225.643 317.882 219.842 323.886 216.615 322.233ZM204.514 318.068C198.904 317.724 193.313 317.264 187.78 316.317C185.818 315.982 184.175 316.032 185.297 313.959C185.668 313.275 187.903 308.989 188.407 309.112C188.706 309.185 188.638 312.131 188.726 312.469C189.122 313.985 190.234 315.398 192.109 315.302C195.178 315.145 197.155 311.5 198.771 309.544C200.065 311.143 201.002 312.919 202.303 314.491C202.925 315.242 205.09 316.99 204.514 318.068ZM171.625 297.838C170.684 299.822 168.791 301.709 167.475 303.506C166.731 302.059 166.207 298.736 167.973 297.666C168.641 297.261 172.22 296.583 171.625 297.838ZM191.081 303.746C191.34 302.982 191.627 302.224 191.947 301.481C192.496 303.068 192.777 303.115 191.081 303.746ZM195.884 305.371C196.564 306.432 197.699 307.474 197.521 308.806C197.386 309.815 196.393 310.849 195.685 311.552C194.511 312.715 191.912 314.948 190.212 313.403C188.792 312.113 189.287 308.566 189.947 307.114C190.891 305.04 194.26 302.845 195.884 305.371ZM192.552 303.198C192.942 303.056 192.122 300.742 192.883 300.511C193.547 301.901 194.172 302.278 192.552 303.198ZM181.833 272.052C181.58 271.198 181 271.234 181.209 270.179C181.346 269.486 181.944 268.747 182.397 268.199C183.301 267.106 184.494 266.205 185.783 265.523C188.506 264.083 192.245 263.485 194.682 265.739C192.403 266.069 185.418 268.136 185.373 270.999C187.907 270.551 189.9 268.212 192.441 267.476C194.527 266.87 196.79 266.913 198.865 267.552C204.545 269.3 202.183 273.81 198.977 276.74C197.074 278.48 194.792 279.779 192.297 280.675C191.142 281.089 190.434 281.135 189.299 280.927C189.086 280.888 188.838 280.525 188.583 280.448C187.95 280.255 188.133 280.908 187.612 280.615C187.156 280.359 186.186 278.709 185.876 278.236C185.383 277.484 185.153 276.753 184.549 276.066C183.943 275.38 183.648 274.459 183.088 273.837C182.819 273.538 182.082 273.55 181.884 273.259C181.587 272.82 181.965 272.501 181.833 272.052ZM173.109 305.692C174.4 303.631 176.609 301.882 178.317 300.081C178.423 303.041 176.112 305.068 173.109 305.692ZM174.853 306.644C177.52 305.782 178.989 303.72 179.261 301.22C179.606 298.053 181.77 296.391 183.073 293.546C183.573 292.455 184.155 288.867 186.092 289.894C186.757 290.247 187.151 291.571 187.497 292.17C188.335 293.618 189.287 295.021 190.175 296.443C190.899 297.601 191.983 298.764 191.664 300.158C191.386 301.373 190.49 302.667 189.965 303.813C188.727 306.519 187.1 309.012 185.741 311.658C185.192 312.726 184.543 315.253 182.869 315.241C181.543 315.23 181.692 313.899 180.819 313.443C179.718 312.867 178.465 313.963 177.56 314.417C178.602 312.801 180.424 311.886 182.471 312.19C180.019 309.947 178.363 312.973 176.259 313.647C174.266 314.286 170.729 311.274 169.05 310.42C169.692 309.421 170.273 308.199 171.377 307.542C172.424 306.918 173.71 307.014 174.853 306.644ZM153.177 327.143C153.468 325.851 154.293 325.088 154.816 323.915C155.423 325.337 154.003 326.176 153.177 327.143ZM195.538 335.068C195.394 339.417 195.008 343.755 194.868 348.106C194.804 350.112 194.417 352.026 194.161 354.009C193.943 355.686 194.054 357.333 192.905 358.766C191.093 361.025 187.571 361.674 184.837 362.511C182.828 363.125 180.797 363.683 178.814 364.366C177.03 364.98 175.592 365.91 173.895 366.641C172.378 367.294 170.739 367.681 169.228 368.377C167.666 369.098 166.431 369.975 164.825 370.616C162.904 371.383 161.321 372.748 159.612 373.832C158.107 374.786 156.516 375.523 155.222 376.722C154.008 377.848 152.472 378.341 151.097 379.341C149.643 380.399 148.121 381.086 146.514 381.915C143.223 383.614 138.783 386.516 134.823 384.865C135.956 383.536 138.274 382.259 138.45 380.427C138.68 378.042 136.42 378.92 135.111 379.682C133.129 380.835 132.032 382.228 130.523 383.766C128.759 385.564 126.531 384.354 124.372 383.849C125.848 382.628 127.312 381.396 128.785 380.173C130.029 379.141 131.932 378.025 132.689 376.598C133.231 375.577 133.204 374.179 131.898 373.649C130.437 373.057 128.784 374.306 127.702 375.05C124.828 377.025 122.936 379.53 121.049 382.278C120.046 383.74 119.583 383.628 117.737 383.336C115.781 383.026 113.824 382.696 111.851 382.479C114.464 380.013 117.385 377.342 119.449 374.457C120.117 373.522 120.989 371.059 118.952 370.832C118.113 370.739 116.442 372.316 115.794 372.741C112.964 374.599 110.243 376.943 108.368 379.656C107.748 380.552 107.554 381.548 106.355 381.622C104.788 381.72 101.875 380.345 100.363 379.921C103.253 376.573 106.123 373.202 109.499 370.251C112.601 367.538 115.696 365.568 119.324 363.488C123.213 361.258 126.835 358.691 130.405 356.056C133.822 353.535 137.392 351.156 140.538 348.34C146.821 342.716 152.418 336.248 157.053 329.408C158.137 327.808 159.158 326.166 160.041 324.463C160.869 322.864 161.251 320.951 162.37 319.497C162.757 318.994 163.301 318.621 163.646 318.096C163.971 317.602 163.86 317.006 164.356 316.568C165.502 315.558 167.588 316.167 168.659 316.876C170.382 318.015 171.775 319.397 173.668 320.351C175.572 321.31 177.632 322.007 179.74 322.479C184.668 323.579 189.553 324.482 194.573 325.151C194.056 326.911 195.325 327.188 195.745 328.772C196.256 330.694 195.602 333.111 195.538 335.068ZM148.09 305.719C146.973 304.194 145.976 302.599 144.878 301.064C144.209 300.129 143.38 299.125 143.952 297.982C144.915 296.055 148.311 295.712 150.154 296.552C154.344 298.462 150.452 303.924 148.09 305.719ZM136.999 270.841C136.614 267.86 137.854 265.745 140.789 264.183C142.881 263.069 144.565 264.591 144.28 266.622C143.845 269.715 140.247 273.156 137.501 274.77C137.322 273.462 137.169 272.15 136.999 270.841ZM136.552 262.313C137.418 261.681 139.736 262.487 140.739 262.542C139.36 263.649 137.98 264.757 136.6 265.864C136.51 265.104 135.753 262.895 136.552 262.313ZM141.207 233.527C148.188 232.693 140.152 239.576 138.129 240.654C138.458 239.19 139.267 233.759 141.207 233.527ZM159.792 221.477C158.854 225.004 151.567 228.853 151.491 223.074C151.463 220.921 152.779 221.095 154.7 220.889C155.796 220.771 160.328 219.46 159.792 221.477ZM134.62 226.94C133.802 228.912 133.146 230.936 132.345 232.911C131.989 233.786 131.571 234.387 130.909 235.08C130.355 235.659 129.696 235.805 129.718 236.721C130.412 236.598 130.955 236.218 131.516 235.852C131.38 237.667 130.681 239.621 130.343 241.43C129.938 243.6 129.601 245.771 129.476 247.972C129.204 252.757 129.202 257.525 129.316 262.313C129.375 264.752 129.401 267.193 129.544 269.63C129.616 270.843 129.696 272.06 129.86 273.265C129.926 273.751 130.31 274.787 130.073 275.243C129.14 277.032 125.01 272.117 123.216 272.838C123.474 271.476 122.879 271.774 121.885 271.104C121.404 270.78 121.09 270.227 120.588 269.938C120.436 269.788 120.269 269.654 120.087 269.536C119.879 269.276 119.66 269.304 119.43 269.619C117.409 268.51 116.887 266.144 115.802 264.553C115.244 263.735 114.705 263.607 114.61 262.476C114.528 261.491 114.689 260.486 114.646 259.496C114.596 258.38 114.525 257.149 114.184 256.068C113.788 254.812 113.244 254.915 112.184 254.246C112.511 254.115 112.726 253.894 112.83 253.585C112.492 253.64 111.463 254.026 111.207 253.748C110.704 253.204 111.891 253.132 112.202 252.914C110.872 252.372 111.158 251.926 111.639 250.931C111.774 250.65 111.904 250.23 112.02 249.992C112.272 249.474 112.417 249.802 112.501 249.159C112.58 248.545 111.988 247.337 111.813 246.683C111.52 245.586 111.358 244.638 111.621 243.495C111.834 242.569 112.407 241.731 112.447 240.779C112.459 240.512 112.015 240.423 112.009 240.165C112.001 239.788 112.384 239.622 112.483 239.274C112.738 238.382 112.623 237.439 113.058 236.592C113.45 235.832 114.241 234.848 114.801 234.185C115.189 233.725 116.141 233.207 116.245 232.6C116.314 232.198 115.632 232.244 115.663 231.941C115.704 231.531 116.078 231.398 116.181 231.094C116.465 230.257 116.536 229.453 117.268 228.812C118.19 228.005 118.591 228.343 118.629 227.013C118.647 226.363 118.082 226.263 118.385 225.515C118.549 225.108 119.035 224.868 119.345 224.58C120.267 223.726 120.889 222.967 121.545 221.911C122.126 220.979 123.052 220.436 123.646 219.63C124.421 218.581 123.263 218.06 124.835 217.764C124.611 217.112 124.374 216.585 124.962 216.033C125.333 215.685 126.274 215.898 126.602 215.496C126.978 215.033 126.422 213.938 126.989 213.638C127.45 213.395 128.14 214.146 128.865 213.774C129.417 213.491 130.25 211.926 130.073 211.351C131.5 212.088 131.144 211.58 131.827 210.634C131.981 210.422 132.445 210.374 132.577 210.16C132.84 209.732 132.78 209.296 133.16 208.948C133.793 208.369 134.829 208.517 135.526 208.103C136.101 207.762 136.071 207.393 136.53 207.071C136.923 206.795 137.567 206.742 137.949 206.457C138.696 205.897 138.704 205.307 139.639 204.825C140.746 204.255 141.727 203.77 142.734 203.014C143.391 202.521 144.014 201.648 144.783 201.323C145.845 200.873 146.673 200.841 147.712 200.2C148.463 199.736 149.174 198.971 149.911 198.58C150.467 198.286 150.858 198.349 151.559 198.166C152.821 197.838 153.128 196.745 154.157 196.301C154.864 195.995 155.893 196.275 156.669 196.114C159.084 195.616 161.47 194.542 163.893 193.947C166.851 193.221 169.83 192.585 172.811 191.943C170.072 195.354 166.583 198.431 163.044 201.14C161.883 202.029 155.519 206.083 158.949 207.815C160.326 208.509 163.318 206.265 164.43 205.717C166.668 204.612 168.987 203.727 171.332 202.834C175.124 201.389 180.062 198.819 184.276 199.026C181.711 201.917 178.509 204.238 175.575 206.792C172.879 209.139 168.817 211.34 170.088 215.182C166.301 214.297 162.899 213.251 158.962 213.483C157.198 213.586 155.434 213.391 153.678 213.619C151.769 213.867 149.971 214.453 148.137 214.968C146.685 215.376 145.082 215.408 143.746 216.085C143.101 216.413 142.303 216.88 141.723 217.287C140.951 217.828 140.775 218.187 140.168 218.901C138.002 221.448 135.907 223.836 134.62 226.94ZM122.776 275.152C122.658 274.711 122.55 274.309 122.415 273.806C123.62 274.488 123.62 274.488 122.776 275.152ZM113.667 261.111C113.519 261.299 112.895 261.36 112.713 261.197C112.488 260.994 113.081 260.206 113.176 260.038C113.411 260.204 113.953 260.747 113.667 261.111ZM111.087 256C111.246 255.462 111.406 254.924 111.566 254.385C111.762 254.884 112.645 255.436 112.665 255.911C112.677 256.227 111.261 256.07 111.087 256ZM111.599 256.739C112.982 257.575 113.127 258.562 113.168 260.006C111.513 259.502 111.75 258.03 111.599 256.739ZM135.649 199.767C135.51 200.114 134.917 201.196 134.483 200.439C134.344 200.197 135.361 199.866 135.649 199.767ZM135.252 198.588C135.594 198.305 136.283 198.657 136.67 198.428C136.941 198.268 136.851 198.105 136.978 198.01C137.004 197.991 137.372 197.306 137.523 197.15C137.79 196.877 138.371 196.706 138.695 196.46C139.601 195.77 140.112 194.863 140.682 193.941C141.362 192.839 141.579 192.712 142.675 192.207C143.431 191.86 144.017 191.434 144.633 190.843C145.341 190.163 145.289 189.676 145.871 188.932C146.159 188.564 146.573 188.519 146.908 188.223C147.309 187.869 147.513 187.373 147.884 187.016C148.045 186.861 148.56 186.862 148.657 186.729C148.781 186.562 148.877 185.891 148.993 185.768C149.215 186.043 149.437 186.318 149.658 186.593C150.532 185.181 151.17 184.015 152.631 183.075C154.166 182.088 155.491 180.644 157.077 179.761C157.434 179.562 158.16 179.479 158.433 179.186C158.893 178.691 158.494 178.25 158.83 177.83C159.212 177.353 159.95 177.739 160.434 177.533C161.048 177.273 161.223 176.514 162.013 176.597C159.416 179.419 159.449 183.81 159.311 187.335C159.251 188.853 160.293 189.619 158.756 190.733C157.448 191.682 155.605 191.4 154.059 192.024C152.118 192.808 150.042 193.224 148.062 193.907C146.013 194.613 144.366 195.85 142.395 196.668C140.656 197.389 139.469 198.414 137.879 199.305C137.288 199.636 136.372 200.116 135.668 199.721C135.226 199.473 134.676 199.065 135.252 198.588ZM164.576 174.927C164.689 174.526 166.905 173.472 167.45 173.128C168.268 172.611 169.479 171.349 170.393 171.851C170.709 170.686 171.944 169.391 173.035 169.144C174.245 168.87 176.322 167.916 177.512 167.084C177.86 166.841 177.975 166.485 178.384 166.257C179.097 165.86 179.804 166.077 180.49 165.536C180.595 165.453 181.545 164.012 181.582 164.026C181.631 164.181 181.675 164.337 181.714 164.494C182.435 164.127 183.076 163.835 183.526 163.366C183.628 163.26 182.967 162.984 183.176 162.773C183.431 162.516 184.001 162.804 184.259 162.559C183.456 166.218 184.054 170.928 188.094 172.783C183.289 173.26 178.596 171.933 173.731 172.748C171.403 173.139 169.036 173.779 166.917 174.763C165.62 175.366 163.96 177.526 162.668 176.477C163.181 175.849 163.963 175.459 164.576 174.927ZM187.892 164.399C189.688 162.38 192.414 161.581 195.159 162.304C198.373 163.151 197.018 165.214 196.532 167.505C195.605 166.256 193.596 165.017 191.885 164.979C189.46 164.926 190.377 166.782 191.833 167.448C193.157 168.052 195.428 168.22 196.375 169.319C197.298 170.389 196.944 172.138 197.093 173.399C196.376 173.301 195.659 173.203 194.941 173.105C195.543 170.162 192.894 170.019 190.424 169.189C187.928 168.351 185.847 166.697 187.892 164.399ZM195.941 157.152V159.883C194.942 159.36 193.942 158.837 192.943 158.313C193.942 157.926 194.942 157.539 195.941 157.152ZM203.973 178.978C207.309 179.808 210.623 180.687 213.83 181.833C214.995 182.25 216.271 182.397 217.413 182.867C218.5 183.314 218.663 183.267 218.276 184.143C217.193 186.594 214.628 186.171 212.38 185.796C208.861 185.209 205.416 184.395 201.942 183.629C198.546 182.881 195.078 182.39 191.733 181.452C188.301 180.49 184.956 179.579 181.426 178.944C180.395 178.759 172.245 178.072 172.307 177.289C177.44 176.677 182.725 177.28 187.881 177.344C193.24 177.41 198.775 177.683 203.973 178.978ZM199.444 169.493C199.508 167.807 199.533 166.116 199.761 164.44C201.288 166.172 202.666 166.69 204.592 165.067C206.435 163.513 206.846 162.703 209.182 164.164C211.208 165.431 213.125 165.373 215.276 164.264C216.588 163.587 218.697 160.823 220.076 161.392C220.733 161.663 221.215 162.757 221.879 163.159C222.712 163.663 223.992 164.012 224.963 164.208C227.255 164.669 228.621 163.315 230.059 161.866C232.146 159.765 232.085 160.985 234.019 162.442C236.177 164.067 237.981 163.273 239.935 161.886C241.125 165.09 241.57 168.589 241.906 171.948C242.02 173.082 242.443 174.692 241.335 175.494C240.553 176.059 238.895 176.081 237.953 176.394C234.59 177.511 231.358 179.096 228.545 181.126C227.449 181.916 226.493 182.884 224.996 182.704C223.568 182.533 222.181 181.435 221.033 180.71C219.787 179.924 218.527 179.031 217.071 178.593C216.218 178.337 214.853 178.43 214.106 177.959C212.719 177.084 214.352 174.789 214.006 173.249C213.745 172.08 213.012 169.641 211.259 170.327C208.65 171.347 210.168 175.328 211.603 176.571C208.668 176.092 205.418 175.393 202.588 174.504C200.401 173.818 199.365 171.55 199.444 169.493ZM248.669 177.704C254.694 176.15 260.332 175.102 266.602 174.819C269.378 174.694 272.065 174.773 274.809 174.796C276.389 174.809 277.593 173.638 276.331 172.292C274.584 170.427 269.255 171.137 266.894 171.053C260.565 170.828 254.762 171.489 248.769 173.406C249.402 172.333 250.925 172.194 251.969 171.64C253.249 170.959 254.119 169.837 254.666 168.592C256.089 165.355 254.657 162.304 253.168 159.347C256.092 160.069 259.117 161.652 262.057 162.053C262.673 162.138 263.068 162.083 263.614 162.29C263.948 162.416 264.054 162.853 264.468 162.949C264.669 162.995 265.15 162.579 265.377 162.638C266.272 162.87 265.564 162.932 266.13 163.269C266.579 163.536 266.543 163.88 267.367 163.753C267.733 163.698 268.129 163.179 268.321 163.165C268.567 163.146 268.51 162.872 268.885 162.952C269.568 163.098 269.508 163.906 269.735 164.304C269.978 164.727 269.633 165.29 270.37 165.522C270.921 165.695 271.059 165.161 271.527 165.199C271.811 165.223 272.401 165.599 272.653 165.828C273.462 166.567 274.569 167.382 275.657 167.863C275.55 167.764 276.17 167.526 276.022 167.47C275.922 167.433 276.573 167.577 276.563 167.575C277.191 167.706 277.523 168.593 277.84 168.916C278.424 169.508 279.331 170.133 280.149 170.394C281.564 170.846 281.521 170.306 282.037 171.85C283.043 170.398 283.429 172.831 284.676 173.099C285.322 173.237 285.247 172.983 285.834 173.294C286.237 173.507 286.506 174.159 286.809 174.474C286.94 174.02 287.07 173.565 287.2 173.112C288.099 174.676 290.038 177.155 292.165 176.707C292.165 177.134 291.973 177.644 292.333 178.008C292.584 178.263 292.99 177.974 293.187 178.122C293.358 178.251 293.769 178.765 293.9 178.85C294.159 179.016 294.629 179.138 294.854 179.304C295.052 179.451 295.15 180.15 295.37 180.402C295.783 180.877 296.497 180.971 296.834 181.54C296.911 180.979 296.988 180.417 297.065 179.856C297.735 180.331 297.793 180.7 297.957 181.396C298.191 182.387 297.88 182.155 298.624 182.573C299.355 182.984 299.736 182.938 300.406 183.651C301.063 184.351 301.069 184.781 302.017 184.053C302.193 184.592 302.25 185.289 302.72 185.702C303.076 186.014 304.547 186.028 304.688 186.765C301.923 184.621 303.742 187.877 304.689 186.77C304.889 187.955 305.833 188.337 306.91 189.181C307.915 189.967 308.08 189.91 308.423 191.231C308.415 191.201 308.928 191.494 308.965 191.552C307.986 191.68 309.504 192.686 309.761 192.869C309.948 193.004 310.192 192.683 310.503 192.9C310.858 193.149 311.148 193.713 311.438 194.054C312.222 194.977 312.803 195.77 313.629 196.521C314.52 197.331 314.953 198.355 315.809 199.302C316.758 200.353 317.272 201.562 318.066 202.704C318.82 203.789 319.823 204.661 320.696 205.655C322.089 207.237 322.563 210.721 325.16 210.813C325.008 210.957 325.219 212.037 325.244 212.237C325.367 213.217 325.286 214.161 325.917 215.049C326.062 214.036 326.639 214.426 327.14 214.958C327.973 215.844 327.241 215.621 327.285 216.518C327.339 217.606 327.474 216.765 327.925 217.715C328.278 218.458 328.471 218.941 328.661 219.767C327.194 219.873 326.522 218.772 325.98 217.705C325.753 217.259 325.675 216.526 325.274 216.177C324.847 215.805 324.26 215.776 323.821 215.362C322.979 214.566 322.614 213.325 321.622 212.55C320.5 211.675 320.252 211.261 319.325 210.215C318.3 209.057 316.883 208.245 315.808 207.125C314.73 206.004 314.818 206.616 313.464 206.21C312.025 205.778 309.698 201.621 307.885 203.222C307.956 202.175 306.249 201.189 305.386 200.81C305.013 200.646 304.579 200.794 304.205 200.548C303.8 200.282 303.771 199.767 303.363 199.447C303.363 199.448 302.737 199.587 302.61 199.528C302.351 199.408 302.349 198.982 302.121 198.842C301.489 198.454 300.736 198.047 300.065 197.716C298.435 196.913 296.995 195.924 295.422 194.957C294.075 194.129 292.444 192.633 290.886 192.196C289.526 191.814 288.671 192.009 287.557 191.245C286.95 190.829 287.129 190.689 286.154 190.43C285.225 190.184 284.704 190.311 284.212 189.406C283.352 187.824 283.895 184.735 283.728 182.961C283.552 181.077 283.342 179.147 282.807 177.316C282.175 175.152 281.34 174.02 278.813 174.53C273.806 175.541 268.86 176.503 263.83 177.391C253.808 179.159 243.957 182.046 234.155 184.609C233.409 184.804 229.243 185.68 230.094 183.701C230.486 182.789 233.123 182.448 234.005 182.162C238.85 180.586 243.717 178.981 248.669 177.704ZM246.985 173.677C246.253 173.933 245.521 174.189 244.789 174.446V172.576C245.521 172.943 246.253 173.31 246.985 173.677ZM243.943 163.789C244.579 164.266 245.872 163.117 246.413 162.884C247.337 162.486 248.513 162.145 249.545 162.227C251.448 162.378 252.84 164.1 252.492 165.845C251.902 168.798 247.322 170.195 244.796 171.349C244.715 170.303 244.347 169.045 245.145 168.139C245.839 167.353 247.184 167.411 247.824 166.575C249.434 164.473 245.07 164.283 244.094 165.954C243.709 164.886 243.325 163.818 242.94 162.75C243.869 162.609 243.461 163.427 243.943 163.789ZM248.448 158.008C247.539 158.548 246.63 159.088 245.722 159.627C245.271 157.759 246.806 157.513 248.448 158.008ZM331.251 223.038C330.061 223.559 329.764 222.313 328.908 222.259C329.919 221.688 329.919 221.688 331.251 223.038ZM336.091 250.246C336.239 252.037 336.123 253.848 336.383 255.632C336.58 256.989 337.179 258.252 337.243 259.624C337.382 262.63 336.278 265.691 334.047 267.894C331.936 269.979 328.916 271.772 326.067 272.649C324.784 273.043 323.444 273.918 322.197 274.241C320.817 274.599 319.507 273.82 318.369 275.217C317.611 269.225 318.165 262.964 318.105 256.933C318.045 250.89 318.116 244.845 317.003 238.867C316.012 233.543 314.059 227.554 310.458 223.198C308.995 221.43 307.194 219.981 305.295 218.625C304.309 217.921 303.323 217.169 302.226 216.613C300.537 215.758 299.098 215.877 297.261 215.633C294.631 215.284 292.187 214.989 289.548 215.669C287.091 216.303 284.386 217.024 282.185 218.125C279.993 219.221 277.447 219.673 275.172 220.655C273.624 221.323 270.408 223.555 268.691 223.153C267.028 222.764 264.567 220.171 263.506 219.01C262.149 217.526 261.027 215.806 259.823 214.21C259.401 213.649 258.539 212.783 258.429 212.063C258.239 210.813 258.783 211.222 260.082 211.361C263.423 211.721 266.565 212.291 269.766 213.257C271.36 213.737 274.475 215.682 276.068 214.517C278.501 212.738 274.805 209.68 273.451 208.652C271.144 206.902 268.462 205.602 266.003 204.047C263.391 202.394 259.936 200.634 258.255 198.089C263.164 199.42 268.069 200.945 272.835 202.662C275.016 203.447 277.171 204.277 279.219 205.322C280.37 205.908 282.694 207.494 284.079 206.734C287.091 205.083 280.174 200.286 279.176 199.306C277.625 197.783 276.106 196.274 274.402 194.892C273.252 193.96 271.445 193.304 270.911 191.929C272.819 192.563 274.362 193.807 276.15 194.651C277.085 195.094 277.939 195.349 278.972 195.484C280.074 195.629 280.205 195.79 281.073 196.193C281.749 196.506 282.443 196.926 283.202 197.139C283.743 197.291 284.688 197.317 285.16 197.599C285.402 197.916 285.651 198.227 285.909 198.533C286.198 198.611 286.481 198.701 286.761 198.803C287.18 199.146 287.429 199.62 287.837 199.974C290.797 202.545 294.756 204.386 298.074 206.54C301.213 208.578 304.545 210.422 307.56 212.646C311.03 215.206 314.632 217.958 317.583 221.028C319.251 222.763 320.622 224.73 322.023 226.648C323.038 228.038 324.513 229.19 325.39 230.622C327.302 233.745 328.889 237.121 330.947 240.193C333.044 243.324 335.776 246.435 336.091 250.246ZM307.885 268.365C308.456 266.198 311.682 263.667 313.744 262.712C312.705 265.073 309.937 266.684 307.885 268.365ZM313.204 275.925C311.446 279.277 303.714 279.661 304.763 274.701C305.277 272.27 307.459 270.779 309.331 269.189C310.197 268.454 312.317 265.825 313.657 266.249C313.594 268.139 313.473 270.037 313.478 271.927C313.481 273.189 313.827 274.739 313.204 275.925ZM310.969 237.295C311.683 238.767 312.394 239.993 311.07 241.31C310.473 241.904 308.527 243.205 307.646 242.916C304.82 241.99 310.208 237.957 310.969 237.295ZM293.876 224.198C294.557 224.164 295.217 224.257 295.89 224.219C296.56 224.18 296.631 224.071 297.252 224.149C297.317 224.237 297.383 224.324 297.448 224.412C297.533 224.999 297.869 225.063 298.455 224.603C299.271 224.77 299.801 224.881 300.581 225.286C298.477 226.68 295.915 228.301 293.335 228.769C289.257 229.508 290.384 224.375 293.876 224.198ZM231.361 255.548C230.938 256.329 229.722 254.377 229.421 254.013C229.982 254.011 231.789 254.759 231.361 255.548ZM264.126 234.977C267.295 233.278 271.057 231.787 274.46 230.522C275.059 233.171 272.14 236.59 270.343 238.402C268.89 239.868 267.137 241.388 265.167 242.231C263.037 243.143 260.708 242.743 260.811 240.184C260.849 239.249 261.081 237.744 261.495 236.889C262.03 235.787 263.04 235.559 264.126 234.977ZM221.299 186.8C221.77 186.774 226.893 186.166 226.865 186.752C226.785 188.512 221.813 187.13 221.299 186.8ZM185.075 220.783C187.781 217.716 192.148 214.406 192.212 210.119C192.307 203.812 184.687 206.959 180.857 207.221C182.882 205.393 193.061 197.722 187.04 194.998C185.31 194.215 182.85 194.98 181.114 195.39C178.033 196.118 175.168 197.379 172.141 198.256C174.304 196.141 178.041 193.737 177.919 190.534C177.769 186.634 174.285 187.577 171.272 188.149C170.115 188.369 164.943 190.26 163.972 188.976C163.616 188.506 164.192 187.909 164.314 187.49C164.529 186.75 164.462 186.491 164.47 185.735C164.485 184.209 165.588 182.249 164.688 180.83C164.482 181.152 164.306 181.488 164.16 181.837C163.863 181.011 164.062 180.135 163.765 179.308C171.286 181.076 178.937 182.043 186.505 183.551C190.336 184.315 193.942 185.63 197.826 186.221C201.743 186.818 205.591 187.731 209.516 188.3C213.096 188.819 216.526 189.683 220.072 190.345C223.528 190.991 227.073 189.576 230.446 188.859C238.002 187.253 245.555 185.609 253.121 184.051C261.851 182.253 270.933 180.715 279.29 177.716C279.452 181.713 279.8 185.703 280.332 189.673C276.641 188.07 271.164 185.98 267.433 188.848C265.94 189.995 265.48 191.977 266.07 193.662C266.712 195.496 268.68 196.348 269.978 197.728C266.027 196.798 255.834 190.237 254.019 196.869C252.738 201.553 258.989 204.578 262.045 207.215C259.01 206.669 254.945 204.44 253.163 208.023C251.623 211.12 253.478 214.49 255.378 217.045C256.408 218.429 257.566 219.732 258.661 221.073C259.24 221.783 259.805 222.502 260.413 223.19C261.024 223.881 262.174 224.604 262.602 225.347C263.463 226.846 261.726 226.938 260.375 227.479C258.688 228.155 257.24 229.29 255.697 230.195C252.165 232.267 249.079 234.191 244.905 234.853C240.608 235.535 236.47 236.247 232.23 237.197C228.002 238.145 224.551 239.056 220.23 237.831C218.26 237.272 216.656 236.776 214.566 236.881C212.371 236.991 211.088 236.887 209.283 235.638C201.518 230.265 193.089 225.856 185.075 220.783ZM171.076 215.389C174.077 214.006 177.098 212.615 180.198 211.427C182.764 210.442 186.661 209.296 189.47 209.727C188.678 211.596 187.233 213.129 185.683 214.505C184.312 215.722 182.6 217.559 180.941 218.408C179.435 219.18 177.682 217.958 176.197 217.447C174.565 216.885 172.319 216.623 171.076 215.389ZM171.83 222.368C173.325 221.797 176.54 223.713 177.9 224.211C180.573 225.191 183.261 226.213 185.617 227.758C182.74 230.812 179.482 233.605 175.611 235.566C173.064 236.857 168.772 238.338 166.369 235.994C163.351 233.049 166.979 227.049 169.116 224.525C169.187 224.957 169.258 225.388 169.329 225.82C170.011 224.817 170.531 222.864 171.83 222.368ZM226.734 248.508C224.868 248.869 224.234 248.543 223.003 247.228C222.17 246.34 221.352 245.417 220.413 244.618C219.455 243.803 217.089 241.837 220.103 242.969C222.851 244.001 225.205 244.517 228.228 244.112C231.685 243.651 234.908 242.308 238.316 241.628C236.448 243.13 234.593 244.647 232.721 246.145C230.743 247.727 229.247 248.022 226.734 248.508ZM227.161 260.588C223.072 263.415 214.84 263.109 217.611 256.89C218.032 255.945 218.621 255.056 219.302 254.251C219.529 253.982 219.933 253.425 220.257 253.245C221.161 252.741 220.911 252.68 221.78 253.52C222.53 254.245 228.393 260.167 227.161 260.588ZM225.948 249.781C226.323 249.669 227.901 248.828 228.261 249.294C228.625 249.764 225.531 251.394 225.948 249.781ZM255.715 292.894C254.795 294.915 247.438 297.841 248.808 293.767C249.415 291.962 249.988 290.596 252.278 290.459C253.6 290.38 256.524 291.115 255.715 292.894ZM268.913 265.507C270.124 263.887 274.124 261.696 275.832 264.112C276.655 265.276 274.658 265.873 273.45 265.573C272.802 265.412 272.272 265.056 271.567 265.029C270.661 264.995 269.775 265.648 268.913 265.507ZM272.124 267.115C271.3 267.881 266.333 271.722 265.528 271.129C267.151 268.999 269.013 266.619 272.124 267.115ZM264.011 305.975C262.286 306.065 263.148 303.677 263.314 302.722C263.732 303.387 265.928 305.876 264.011 305.975ZM268.394 301.695C267.836 300.783 266.332 299.425 266.672 298.251C266.933 297.354 269.279 296.148 270.262 296.662C271.567 297.347 269.675 301.846 268.394 301.695ZM309.323 292.129C308.585 294.465 307.821 293.862 305.507 294.315C303.186 294.769 301.581 296.58 299.538 297.551C300.248 296.172 300.688 294.492 301.876 293.374C302.151 293.115 303.835 292.605 302.876 292.007C302.037 291.483 300.83 293.181 300.471 293.644C298.7 295.92 297.463 298.701 296.44 301.32C295.938 302.607 295.535 303.918 295.297 305.269C295.085 306.473 295.314 307.733 295.098 308.906C294.75 310.794 291.957 310.804 290.278 311.291C288.758 311.732 287.244 312.21 285.666 312.447C284.298 312.653 282.879 312.278 281.553 312.526C280.117 312.794 279.472 313.576 277.84 313.399C276.51 313.255 275.265 312.693 273.917 312.637C272.655 312.585 271.396 312.986 270.142 312.659C268.876 312.33 268.937 312.202 269.225 311.06C269.405 311.368 269.585 311.676 269.766 311.984C270.27 311.621 270.619 310.513 270.928 309.992C271.408 309.186 271.799 308.907 271.621 307.903C271.359 306.42 269.904 305.366 269.574 303.955C269.229 302.484 270.414 301.28 271.114 300.052C272.07 298.37 272.058 297.123 271.256 295.384C271.861 295.531 272.465 295.677 273.07 295.825C272.241 294.171 269.43 294.841 268.02 295.331C267.312 295.577 266.189 296.544 265.427 296.52C264.379 296.486 263.833 295.221 263.383 294.524C262.08 292.508 260.593 290.517 259.052 288.645C258.628 288.131 258.073 287.8 258.219 287.213C258.344 286.715 259.559 286.009 259.953 285.702C261.431 284.554 263.312 283.918 264.701 282.709C266.799 280.883 269.218 279.574 271.363 277.784C273.599 275.919 275.901 274.206 278.23 272.443C280.589 270.658 282.632 268.555 284.974 266.752C285.581 267.762 286.756 271.379 288.101 271.659C289.668 271.985 289.622 270.281 289.544 269.256C289.433 267.795 288.55 266.375 288.451 264.981C288.346 263.489 289.908 262.822 291.087 261.96C292.907 260.627 296.938 257.591 294.771 255.092C292.905 252.94 286.837 257.067 285.164 258.307C283.743 259.362 282.644 260.315 281.044 261.147C279.918 261.732 278.03 263.98 276.696 263.772C275.109 263.525 274.489 261.933 272.548 261.986C270.651 262.037 269.04 263.292 267.864 264.552C265.204 267.401 264.29 271.213 261.867 274.182C260.672 275.646 259.122 276.855 257.827 278.24C256.403 279.761 256.101 281.512 254.697 283C250.681 278.085 246.306 273.431 242.071 268.677C239.956 266.303 237.885 263.9 235.815 261.493C235.04 260.591 234.165 259.744 233.454 258.797C232.482 257.499 232.657 256.457 232.274 255.009C232.105 254.368 231.313 253.599 231.525 252.986C231.81 252.162 233.815 251.515 234.538 251.179C237.49 249.802 240.168 248.081 242.921 246.399C248.019 243.284 253.176 240.363 258.598 237.703C258.505 238.849 257.693 240.037 258.238 241.187C258.492 240.526 258.894 237.579 259.855 237.452C259.671 237.476 259.823 241.231 259.971 241.767C260.415 243.367 261.703 244.461 263.545 244.45C267.053 244.429 270.197 240.924 272.144 238.601C273.463 237.028 274.729 235.2 275.193 233.232C275.611 231.465 275.151 230.236 277.151 229.338C281.254 227.497 285.389 225.997 289.777 225.021C289.58 226.758 289.032 228.897 290.75 230.146C292.647 231.525 295.129 230.296 296.915 229.384C298.685 228.481 301.412 225.998 303.49 226.719C305.534 227.429 306.957 229.783 308.101 231.347C309.109 232.725 310.206 233.719 309.038 235.256C307.73 236.977 306.878 238.658 305.83 240.528C305.427 241.247 305.042 241.715 305.327 242.452C305.419 242.691 306.47 244.114 306.755 244.318C308.576 245.62 311.034 243.144 312.333 242.204C312.792 246.251 312.894 250.28 313.079 254.339C313.215 257.313 314.467 260.24 311.812 262.413C309.157 264.586 306.941 266.816 305.322 269.758C304.458 271.33 303.683 272.943 302.748 274.482C302.123 275.51 300.805 277.018 301.612 278.228C302.463 277.486 302.716 276.359 303.425 275.522C303.85 277.258 304.277 279.184 306.276 279.919C308.575 280.766 310.861 279.301 312.897 278.486C312.167 283.127 310.743 287.636 309.323 292.129ZM306.972 297.464C305.395 300.562 303.969 304.299 301.055 306.581C300.415 307.081 297.696 309.037 296.661 308.71C295.783 308.431 296.266 306.801 296.42 306.102C297.196 302.556 298.539 300.325 301.669 298.063C302.964 297.126 304.628 295.929 306.298 295.698C308.096 295.449 307.578 296.273 306.972 297.464ZM351.487 371.017C347.395 365.905 341.612 361.933 336.147 358.093C333.671 356.353 330.943 355.049 328.442 353.309C325.615 351.341 322.743 349.444 319.576 347.961C313.57 345.15 307.02 343.191 301.353 339.867C298.589 338.245 295.566 336.679 292.967 334.859C291.826 334.059 290.818 333.037 289.787 332.121C288.828 331.27 286.771 330.035 286.39 328.789C287.984 328.55 288.891 327.128 290.315 326.983C290.783 326.935 293.721 327.649 293.32 326.34C294.385 326.315 294.509 326.301 295.402 326.087C295.772 325.998 296.211 326.137 296.585 326.015C297.157 325.829 297.546 325.293 298.124 325.088C298.535 324.942 300.06 325.105 300.291 324.923C300.922 324.428 300.252 324.472 299.875 323.853C301.102 323.824 301.945 324.394 303.175 323.788C303.549 323.603 303.866 323.178 304.229 322.958C304.873 322.567 305.105 323.173 305.546 322.362C305.959 323.481 305.948 323.172 306.942 322.842C307.932 322.514 308.648 322.278 309.776 322.196C312.471 322 315.175 322.3 317.858 322.124C318.839 322.06 319.678 321.855 320.653 321.973C321.511 322.077 321.253 322.625 321.967 321.886C322.132 321.715 321.596 321.245 321.853 320.998C321.967 320.889 322.336 320.965 322.476 320.909C323.73 320.406 323.736 321.109 323.958 322.025C324.694 321.866 325.444 321.723 326.083 321.327C325.761 321.062 325.22 320.77 325.532 320.286C326.593 320.656 327.286 320.485 326.756 321.555C327.823 321.879 328.023 321.457 328.982 321.364C329.549 321.31 330.34 321.633 330.812 321.217C331.328 320.763 330.515 320.269 331.462 319.879C331.656 319.97 331.8 320.107 331.894 320.29C332.406 320.432 332.314 320.617 331.618 320.845C333.482 321.732 333.044 320.74 333.826 319.691C334.007 319.449 334.817 318.698 335.185 319.061C335.745 319.611 334.603 319.786 334.848 320.333C335.272 321.282 336.752 320.066 337.206 319.585C337.55 319.222 337.691 318.526 338.061 318.255C338.576 317.878 339.316 318.461 339.961 318.356C342.905 317.882 345.686 314.245 343.468 311.811C342.872 311.157 342.367 311.287 341.657 310.874C340.955 310.466 340.561 309.76 339.997 309.177C338.711 307.846 337.136 306.849 335.337 306.212C331.165 304.733 326.67 303.654 322.289 302.861C320.26 302.493 318.1 301.931 316.023 301.935C314.799 301.937 312.956 302.812 311.812 302.393C309.587 301.578 312.853 297.41 313.392 296.063C314.975 292.108 316.169 287.89 316.952 283.737C317.106 282.925 317.047 281.872 317.365 281.098C317.731 280.207 317.81 280.333 318.592 280.261C320.007 280.129 321.553 280.811 323.026 280.575C324.658 280.314 326.422 280.436 328.07 279.972C328.827 279.759 329.53 279.527 330.028 278.94C330.186 278.756 330.011 278.595 330.11 278.467C330.141 278.426 330.704 277.868 330.722 277.836C330.717 277.547 330.744 277.26 330.804 276.976C331.375 277.412 331.094 278.325 332.056 278.347C332.228 277.373 332.23 277.176 332.926 276.628C332.873 276.67 333.45 276.22 333.376 276.268C333.411 276.094 333.48 275.932 333.583 275.782C333.909 275.638 334.252 275.561 334.614 275.552C335.366 274.842 335.054 274.463 335.054 273.507C335.661 273.796 336.268 274.086 336.875 274.376C337.021 271.542 338.899 269.99 340.147 267.694C340.679 266.715 341.221 265.951 341.348 264.77C341.421 264.089 341.23 263.489 341.537 262.847C341.815 262.265 342.438 261.951 342.698 261.317C343.21 260.068 342.828 258.475 342.856 257.179C342.895 255.381 343.09 253.59 343.154 251.793C343.28 248.266 342.894 244.641 342.319 241.155C342.045 239.487 341.585 237.87 341.224 236.22C340.927 234.863 340.217 233.591 339.963 232.33C339.858 231.806 340.021 231.335 339.849 230.755C339.622 229.993 339.243 229.244 338.961 228.495C338.303 226.747 337.652 225.001 336.912 223.28C335.477 219.944 333.798 216.708 332.202 213.436C330.667 210.29 329.396 207.047 327.408 204.109C325.45 201.215 323.342 198.37 321.184 195.6C318.936 192.716 316.094 190.237 313.914 187.326C309.821 181.86 304.112 177.356 298.139 173.637C285.814 165.962 272.494 158.299 257.715 155.667C255.488 155.271 253.232 154.996 250.962 154.945C249.553 154.913 247.219 155.538 245.886 155.1C244.392 154.61 244.529 153.068 244.155 151.859C243.674 150.305 242.589 149.287 241.358 148.188C240.061 147.032 238.885 145.681 237.268 144.895C235.629 144.098 233.696 143.8 231.881 143.559C230.26 143.344 227.838 143.545 226.357 142.896C225.009 142.305 225.675 141.689 226.938 142.196C227.03 141.684 227.105 141.353 227.462 140.958C227.641 140.759 228.488 140.48 228.508 140.295C228.532 140.078 227.822 139.459 227.72 139.179C227.502 138.576 227.626 137.741 227.885 137.175C229.159 138.215 229.528 138.675 230.949 137.681C231.55 137.262 231.734 137.076 232.429 136.865C232.618 136.807 233.041 136.985 233.205 136.885C233.833 136.505 233.255 136.595 233.554 136.145C233.479 136.259 234.006 135.065 233.982 135.314C234.045 134.678 234.25 134.874 233.832 134.092C233.014 132.564 230.929 132.501 231.992 130.757C232.41 130.07 232.778 130.139 232.895 129.143C232.958 128.608 232.88 127.995 232.877 127.45C232.872 126.337 233.1 125.558 231.965 124.991C230.874 124.446 229.867 125.044 229.424 123.692C228.96 122.273 229.427 120.454 227.755 119.483C226.532 118.773 224.767 119.38 223.416 119.033C222.063 118.685 220.818 117.413 219.444 118.39C218.468 119.084 217.95 120.791 216.111 119.868C215.281 119.452 214.824 118.054 214.301 117.27C213.467 116.02 212.798 115.569 211.515 116.786C210.724 117.537 209.056 119.364 208.954 120.403C208.842 121.55 209.931 122.029 208.564 122.708C207.203 123.383 206.44 122.888 205.336 124.258C204.241 125.617 205.088 126.368 203.82 127.669C202.234 129.295 201.39 129.997 201.412 132.187C201.427 133.69 199.982 134.988 200.825 136.413C201.77 138.01 204.527 138.675 206.198 139.325C205.64 140.272 204.875 140.879 205.526 141.855C206.116 142.738 207.784 142.921 208.818 142.761C209.514 142.653 209.539 142.75 210.086 142.301C210.445 142.006 209.953 141.639 210.691 141.476C211.477 141.302 212.733 142.717 213.243 143.071C212.102 144.431 208.97 144.685 207.313 145.375C206.303 145.795 205.374 146.417 204.346 146.793C203.413 147.134 202.278 147.055 201.432 147.582C199.971 148.493 199.363 150.751 198.468 152.078C197.454 153.58 196.471 154.277 194.527 154.589C192.101 154.978 190.147 155.134 187.885 156.105C185.122 157.29 182.399 158.542 179.685 159.82C175.309 161.88 171.243 163.996 167.179 166.489C162.927 169.097 158.791 171.819 154.689 174.544C150.631 177.24 147.224 180.555 143.7 183.815C140.85 186.45 138.35 189.294 135.512 191.928C132.161 195.038 129.696 198.964 126.59 202.263C124.89 204.068 123.263 205.843 122.197 207.97C121.332 209.693 119.829 211.385 118.826 213.193C117.543 215.505 116.33 217.78 114.89 220.016C114.3 220.933 113.598 221.721 112.974 222.596C112.176 223.718 112.223 224.801 112.008 226.094C111.784 225.778 111.56 225.463 111.335 225.148C110.929 225.964 110.437 226.766 110.085 227.602C109.86 228.135 109.895 228.892 109.669 229.358C109.386 229.944 109.041 229.866 108.688 230.353C108.311 230.875 108.189 231.575 107.791 232.135C106.071 234.552 105.409 237.619 104.525 240.378C103.339 244.078 103.527 248.331 103.591 252.147C103.659 256.177 103.899 260.207 104.559 264.195C105.156 267.806 106.433 271.27 108.433 274.436C110.176 277.195 112.579 278.803 115.656 280.217C117.07 280.865 118.382 280.665 119.865 280.769C121.49 280.882 122.598 281.288 124.318 280.931C125.143 280.76 125.533 280.208 126.188 280.024C126.594 279.91 126.813 280.096 127.202 280.053C127.759 279.991 128.918 279.74 129.522 279.8C131.402 279.989 131.086 282.6 131.271 283.932C131.556 285.986 131.764 288.062 132.148 290.102C132.956 294.394 134.698 298.404 135.728 302.621C130.954 303.156 126.859 303.975 122.385 305.635C117.896 307.3 113.358 307.865 108.634 308.693C104.214 309.467 99.9633 310.914 96.4259 313.536C94.7678 314.764 93.0453 316.201 94.2628 318.224C95.0415 319.517 96.4449 319.846 97.6565 320.598C97.9013 320.313 97.1933 319.71 97.0636 319.543C98.0822 319.735 98.0509 320.172 98.7947 320.552C99.4447 320.884 99.9769 320.873 100.689 321.107C102.426 321.681 103.28 323.112 104.997 323.513C105.537 323.64 106.244 323.942 106.797 324.028C107.46 324.131 107.957 323.864 108.63 323.977C108.993 324.197 109.385 324.354 109.807 324.448C110.084 324.33 110.357 324.205 110.626 324.074C111.593 324.166 112.19 324.725 112.975 325.183C113.027 324.605 112.952 324.005 113.547 323.628C113.78 324.19 113.404 324.546 114.039 324.932C114.843 325.423 115.899 324.811 116.619 324.501C116.822 326.369 121.531 326.259 123.024 326.232C125.091 326.196 127.155 325.442 129.24 325.863C130.304 326.077 131.44 326.301 132.499 326.579C133.774 326.914 135.315 327.213 136.57 327.635C137.07 327.803 137.681 328.341 138.212 328.305C138.635 328.276 138.748 327.703 139.241 327.719C139.798 327.738 139.985 328.308 140.467 328.48C141.189 328.736 141.853 328.248 142.538 328.495C142.785 328.583 143.119 328.963 143.435 329.086C143.914 329.274 144.861 329.276 145.395 329.367C146.15 329.496 146.827 329.409 147.474 329.452C147.996 329.486 147.985 329.809 148.235 329.83C148.521 329.853 149.02 328.948 149.405 328.816C149.966 328.622 150.984 329.083 151.555 329.164C147.413 334.322 142.419 338.881 137.005 342.873C131.166 347.179 125.186 351.48 118.924 355.257C113.238 358.687 107.734 361.653 103.326 366.494C99.6093 370.576 93.6926 374.944 94.6046 380.861C95.5161 386.773 102.503 389.179 108.102 390.307C115.144 391.727 122.393 391.155 129.454 391.954C132.465 392.294 135.811 392.112 138.842 391.822C142.422 391.48 145.49 389.333 148.568 387.781C154.104 384.989 158.837 381.254 164.29 378.375C171.117 374.77 177.873 370.95 185.358 368.536C188.84 367.413 192.425 366.131 195.234 363.82C195.652 363.477 195.964 362.958 196.436 362.674C197.239 362.193 197.454 362.681 197.92 362.535C198.279 362.423 198.626 362.067 198.936 361.96C199.721 361.69 200.072 361.802 200.951 361.802C200.197 361.402 199.506 360.371 200.289 359.531C201.63 358.093 201.861 360.392 202.365 360.924C202.792 360.42 202.629 359.971 202.52 359.398C202.88 359.617 203.242 359.836 203.603 360.055C203.354 358.946 203.591 357.924 204.23 356.958C204.82 356.067 204.965 356.193 205.128 354.958C206.96 356.494 207.318 352.766 207.483 351.406C207.643 350.088 207.485 349.141 208.429 347.989C209.442 346.751 210.982 345.968 212.268 345.007C214.3 343.487 216.535 341.569 219.345 343.026C221.562 344.176 222.769 346.997 224.85 348.446C226.112 349.325 227.444 349.414 228.249 350.777C228.899 351.879 229.111 353.198 229.725 354.33C231.212 357.072 233.354 360.211 235.797 362.315C238.072 364.273 240.991 364.263 243.652 365.478C246.287 366.681 249.024 367.983 251.813 368.855C254.859 369.807 258.143 370.212 261.109 371.365C262.634 371.958 263.998 372.851 265.537 373.419C267.196 374.032 268.945 374.463 270.626 375.024C277.289 377.248 283.81 379.974 290.809 381.207C293.914 381.753 296.788 383.238 299.915 383.551C301.257 383.685 302.351 383.854 303.663 384.163C305.723 384.646 305.287 384.903 306.045 386.481C307.293 389.078 310.341 387.54 312.691 387.605C316.451 387.709 320.154 387.151 323.909 387.124C330.475 387.078 336.798 386.398 343.149 384.418C349.526 382.429 356.786 377.638 351.487 371.017Z" fill="#3F3F3F"/>
<path fill-rule="evenodd" clip-rule="evenodd" d="M275.587 168.115C275.676 168.198 275.887 168.248 275.587 168.115Z" fill="#3F3F3F"/>
<path fill-rule="evenodd" clip-rule="evenodd" d="M159.926 278.722C161.352 277.394 167.42 277.663 167.879 280.038C168.39 282.689 162.968 286.693 160.984 287.816C158.43 289.261 155.314 289.531 155.766 285.904C156.109 283.164 157.895 280.613 159.926 278.722ZM164.937 275.989C165.122 276.723 163.758 276.473 163.383 276.299C163.206 275.965 164.752 275.252 164.937 275.989ZM154.473 280.851C155.684 280.95 157.07 279.167 157.983 278.559C158.387 279.132 155.726 282.282 155.433 283.001C154.702 284.797 154.295 287.066 155.292 288.857C158.205 294.092 165.661 286.617 167.526 284.006C168.831 282.179 169.734 279.915 167.891 278.125C167.235 277.488 166.151 277.311 165.541 276.705C164.739 275.908 165.371 274.88 163.757 275.054C162.644 275.174 161.308 276.096 160.226 276.43C158.922 276.832 157.749 277.249 156.611 277.994C156.354 278.162 152.978 280.727 154.473 280.851Z" fill="#3F3F3F"/>
<path fill-rule="evenodd" clip-rule="evenodd" d="M240.009 282.607C239.249 286.204 235.369 289.893 231.288 290.037C227.223 290.179 225.907 286.267 226.624 283.148C227.236 280.488 229.738 275.868 233.308 276.377C236.115 276.776 240.661 279.525 240.009 282.607ZM237.421 276.596C234.843 274.764 231.283 273.916 228.295 275.37C227.316 275.847 223.406 277.949 224.596 279.372C226.2 278.23 227.585 276.645 229.669 276.265C229.319 277.75 227.317 279.085 226.612 280.531C225.787 282.22 225.336 284.153 225.471 286.009C225.711 289.312 228.12 291.879 231.848 291.425C235.262 291.009 238.246 288.605 239.874 285.903C242.048 282.295 240.823 279.015 237.421 276.596Z" fill="#3F3F3F"/>
<path fill-rule="evenodd" clip-rule="evenodd" d="M213.487 290.783C211.652 293.279 208.854 295.627 205.618 296.398C201.43 297.396 202.607 294.216 203.859 291.935C204.965 289.917 206.864 286.446 209.755 286.465C210.736 286.471 212.563 286.907 213.423 287.389C215.118 288.339 214.453 289.47 213.487 290.783ZM209.578 285.297C210.237 284.623 213.153 281.734 213.543 283.986C214.381 283.094 213.72 282.354 212.648 282.26C211.355 282.146 209.941 283.469 209.008 284.126C207.087 285.479 205.609 286.864 204.336 288.76C202.932 290.85 199.354 295.574 202.486 297.648C205.87 299.89 210.797 295.75 212.917 293.614C214.272 292.249 216.068 290.243 215.552 288.24C214.919 285.78 211.805 285.522 209.578 285.297Z" fill="#3F3F3F"/>
<path fill-rule="evenodd" clip-rule="evenodd" d="M195.135 245.068C193.241 247.053 189.394 249.946 186.223 249.605C183.331 249.295 184.46 246.313 185.484 244.87C187.021 242.701 189.08 240.665 192.056 240.546C193.341 240.495 195.006 240.519 196.001 241.413C197.36 242.634 196.136 244.019 195.135 245.068ZM194.934 239.552C192.715 238.847 191.843 238.579 189.687 239.699C187.955 240.598 186.419 241.869 185.231 243.312C183.453 245.472 181.659 250.33 186.226 250.938C191.235 251.605 203.15 242.161 194.934 239.552Z" fill="#3F3F3F"/>
<path fill-rule="evenodd" clip-rule="evenodd" d="M201.761 251.948C200.32 253.3 198.521 254.403 196.468 254.78C197.337 252.999 199.276 249.109 201.576 248.567C202.635 248.317 203.843 248.645 203.756 249.754C203.693 250.555 202.329 251.414 201.761 251.948ZM203.616 247.241C202.423 246.692 202.799 246.316 201.411 246.747C200.317 247.087 198.937 247.676 198.026 248.354C197.529 248.725 195.982 250.038 196.171 250.706C196.515 251.92 197.669 250.06 197.972 249.702C198.492 250.091 195.833 253.586 195.675 254.162C195.086 256.304 196.916 256.53 198.71 255.829C201.128 254.885 208.291 249.393 203.616 247.241Z" fill="#3F3F3F"/>
<path fill-rule="evenodd" clip-rule="evenodd" d="M239.081 304.883C239.259 303.463 239.513 301.961 240.932 301.164C242.21 300.445 243.534 300.549 243.723 302.023C243.899 303.392 242.439 305.824 241.258 306.571C239.613 307.611 239.296 306.314 239.081 304.883ZM241.194 308.114C244.57 306.299 246.698 297.975 240.474 300.308C236.937 301.634 238.238 309.703 241.194 308.114Z" fill="#3F3F3F"/>
<path fill-rule="evenodd" clip-rule="evenodd" d="M212.357 273.595C212.889 272.592 213.498 272.26 214.578 271.821C213.858 272.445 213.123 273.022 212.357 273.595ZM213.136 271.124C212.371 271.829 210.619 272.904 210.864 274.115C211.089 275.22 212.007 275.156 212.84 274.812C214.588 274.09 215.561 270.93 217.389 270.634C215.361 269.454 214.888 269.508 213.136 271.124Z" fill="#3F3F3F"/>
<path fill-rule="evenodd" clip-rule="evenodd" d="M213.405 208.369C213.502 211.734 213.587 215.098 213.668 218.464C213.697 219.646 213.389 221.332 213.776 222.465C213.946 222.964 215.489 225.127 216.036 225.267C217.951 225.757 217.267 221.346 217.28 220.26C217.327 216.596 217.268 212.927 217.252 209.263C217.243 207.374 217.824 191.54 215.157 191.617C214.697 191.631 213.566 193.442 213.395 193.804C212.859 194.944 213.057 196.634 213.069 197.849C213.105 201.354 213.303 204.864 213.405 208.369Z" fill="#3F3F3F"/>
<path fill-rule="evenodd" clip-rule="evenodd" d="M229.553 218.178C229.703 219.108 229.624 220.66 230.764 221.142C231.756 221.562 232.136 221.063 232.507 220.283C233.36 218.49 233.052 215.748 233.037 213.893C233.005 210.218 232.555 206.559 232.244 202.897C232.107 201.291 232.391 199.677 232.172 197.997C232.076 197.259 231.981 194.291 230.492 194.429C229.146 194.554 229.268 197.665 229.194 198.466C228.584 205.137 228.478 211.519 229.553 218.178Z" fill="#3F3F3F"/>
<path fill-rule="evenodd" clip-rule="evenodd" d="M293.076 294.781C292.505 297.46 283.199 306.789 280.856 301.572C279.466 298.476 282.479 295.106 284.829 293.314C286.283 292.204 288.1 291.116 290.083 291.452C291.765 291.738 293.438 293.079 293.076 294.781ZM288.27 289.975C287.613 290.118 282.118 293.663 282.068 293.616C281.591 293.176 285.056 288.431 285.413 288.015C288.351 284.596 290.301 287.185 292.138 289.873C291.747 288.268 290.67 285.937 288.871 285.258C286.6 284.401 284.829 286.516 283.736 288.038C282.192 290.187 281.34 292.522 280.482 294.948C280.073 296.105 279.607 297.154 278.914 298.197C278.23 299.227 277.033 300.362 277.21 301.664C278.182 301.167 278.699 300.195 279.311 299.394C279.995 299.649 279.76 301.651 279.899 302.161C280.248 303.441 281.2 304.443 282.673 304.664C285.418 305.074 288.382 302.74 290.217 301.155C292.151 299.486 294.233 297.196 294.217 294.626C294.199 291.941 291.325 289.311 288.27 289.975Z" fill="#3F3F3F"/>
<path fill-rule="evenodd" clip-rule="evenodd" d="M295.713 246.926C294.155 249.116 291.422 251.742 288.53 252.251C286.407 252.624 285.007 251.179 285.86 249.227C286.58 247.578 289.034 246.537 290.643 245.812C291.919 245.236 297.868 243.896 295.713 246.926ZM294.567 243.344C291.376 243.233 288.803 245.353 286.424 247.044C286.961 245.101 288.176 242.987 289.888 241.723C292.217 240.002 294.425 241.07 296.877 241.931C296.272 240.177 293.556 239.546 291.827 239.794C289.639 240.108 288.067 241.823 286.961 243.482C285.642 245.462 285.19 247.795 283.637 249.652C282.927 250.502 278.524 253.682 279.521 254.982C281.165 253.378 282.81 251.775 284.454 250.171C284.881 252.067 285.351 254.225 287.985 254.04C290.088 253.893 292.487 252.25 294.026 250.995C296.012 249.373 299.921 243.53 294.567 243.344Z" fill="#3F3F3F"/>
<path fill-rule="evenodd" clip-rule="evenodd" d="M249.872 262.045C248.521 262.616 245.545 263.392 244.79 261.676C243.74 259.294 247.118 255.115 248.726 253.527C249.715 252.55 250.386 252.045 251.765 252.677C252.865 253.182 254.483 254.616 254.905 255.719C255.812 258.086 251.986 261.151 249.872 262.045ZM252.973 250.602C254.074 250.83 254.209 252.114 252.832 251.621C251.801 251.252 251.561 250.31 252.973 250.602ZM254.355 252.411C253.944 251.259 254.78 249.452 252.756 249.369C251.609 249.322 249.508 250.393 248.507 250.829C247.119 251.432 245.812 252.353 245.088 253.651C244.416 254.853 244.896 255.169 245.919 254.172C246.044 254.25 243.604 260.031 243.583 260.61C243.488 263.257 245.527 265 248.392 264.531C251.024 264.099 253.397 262.122 254.846 260.125C255.579 259.115 256.181 257.958 256.236 256.721C256.32 254.822 254.942 254.059 254.355 252.411Z" fill="#3F3F3F"/>
<path fill-rule="evenodd" clip-rule="evenodd" d="M266.982 251.44C265.872 249.474 268.445 246.167 270.75 247.135C275.548 249.149 268.44 254.016 266.982 251.44ZM271.293 248.874C270.778 248.893 267.523 250.049 268.002 250.831C268.659 251.906 271.035 249.306 271.293 248.874Z" fill="#3F3F3F"/>
<path fill-rule="evenodd" clip-rule="evenodd" d="M113.909 245.242C113.78 244.405 111.738 245.62 111.75 246.159C112.088 245.538 114.177 246.986 113.909 245.242Z" fill="#3F3F3F"/>
<path fill-rule="evenodd" clip-rule="evenodd" d="M225.598 181.99C228.198 181.815 224.885 169.764 222.99 170.83C220.937 171.985 223.212 182.151 225.598 181.99Z" fill="#3F3F3F"/>
<path fill-rule="evenodd" clip-rule="evenodd" d="M230.453 176.364C232.889 176.684 232.502 171.545 231.192 170.626C228.774 168.928 227.496 175.974 230.453 176.364Z" fill="#3F3F3F"/>
<path fill-rule="evenodd" clip-rule="evenodd" d="M253.217 67.431C253.409 65.6506 253.331 63.8654 253.512 62.0861C253.685 60.3957 254.164 58.674 254.63 57.0123C255.104 55.3223 255.965 53.822 256.933 52.2531C257.467 51.3877 257.984 50.5165 258.501 49.646C258.818 49.1121 259.049 48.5589 259.925 48.4164C261.061 48.2319 262.433 48.3816 263.601 48.3519C264.783 48.3219 265.962 48.2712 267.139 48.1967C269.698 48.0346 272.24 47.768 274.795 47.579C277.241 47.3983 279.66 47.2924 282.076 46.933C283.319 46.7481 284.551 46.5319 285.784 46.316C286.708 46.1546 287.988 45.7417 288.917 45.8987C287.768 47.7642 287.41 49.7557 287.382 51.7747C287.371 52.5704 287.239 52.8959 286.077 52.847C284.626 52.7859 283.17 52.6818 281.728 52.5635C279.005 52.3396 276.305 51.9844 273.605 51.6512C272.326 51.4932 271.098 51.2684 269.842 51.0704C268.951 50.9304 268.577 51.1821 268.279 51.7623C268.064 52.182 267.995 52.371 267.442 52.608C266.991 52.8014 266.547 52.9849 266.131 53.2184C265.391 53.634 264.754 54.1334 264.209 54.6808C263 55.8938 262.225 57.3193 261.515 58.7092C259.731 62.2071 258.832 66.0117 258.667 69.7266C258.583 71.6156 258.145 73.4674 258.117 75.3626C258.103 76.1979 258.402 77.273 257.424 77.88C256.466 78.4746 255.237 78.9009 254.169 79.3879C253.233 77.4765 252.992 75.4491 252.963 73.4377C252.934 71.4325 253.002 69.43 253.217 67.431ZM292.828 57.3144C293.997 57.5362 295.172 57.7324 296.351 57.9273C294.346 61.3528 294.417 65.1422 294.265 68.7937C294.198 70.4267 294.259 72.064 294.484 73.6898C294.716 75.3529 295.24 76.9405 295.712 78.5712C295.814 78.9271 296.061 79.511 295.732 79.8376C295.368 80.1994 294.173 80.3946 293.655 80.5612C291.6 81.222 289.576 81.9384 287.479 82.5313C285.353 83.1324 283.144 83.4932 281.065 84.1916C279.03 84.8749 276.968 85.5012 274.849 86.0413C272.767 86.5728 270.607 86.9622 268.598 87.6299C266.692 88.2635 265.119 89.1336 263.499 90.0725C262.515 87.8931 262.131 85.6757 261.953 83.3914C261.783 81.2051 261.531 78.9292 261.844 76.7477C261.987 75.7523 261.988 74.8266 261.96 73.8299C261.934 72.9379 262.224 72.0633 262.323 71.1759C262.543 69.2203 262.534 67.2671 262.905 65.3192C263.609 61.635 265.004 57.7352 267.82 54.577C268 54.3756 268.175 54.0507 268.423 53.902C268.84 53.652 268.692 53.6989 269.241 53.9003C269.753 54.0876 270.257 54.2869 270.786 54.4507C271.896 54.795 273.083 54.9464 274.241 55.1809C275.523 55.4406 276.687 55.8386 278.018 55.9859C279.307 56.1283 280.618 56.1456 281.906 56.2901C282.619 56.3701 283.273 56.5381 283.967 56.6643C284.531 56.7671 285.084 56.7398 285.678 56.7843C286.827 56.8709 287.944 57.0999 289.096 57.1741C290.39 57.2575 291.543 57.0709 292.828 57.3144ZM250.402 73.2194C250.799 75.4747 251.645 77.6837 252.879 79.7797C253.276 80.4536 253.723 81.3969 254.856 81.5832C255.901 81.7549 257.168 81.2072 258.153 81.0151C258.925 84.2878 259.263 87.6885 261.312 90.7219C261.571 91.1047 261.912 91.8187 262.444 92.0694C262.987 92.3257 263.648 92.0756 264.19 91.9287C266.467 91.3138 268.818 90.9202 271.174 90.4946C272.323 90.287 273.493 90.1025 274.614 89.8248C275.545 89.5941 276.425 89.3171 277.401 89.1912C279.44 88.9284 281.334 88.4528 283.283 87.9624C287.373 86.9325 291.486 85.9999 295.261 84.4534C297.062 83.7153 298.952 82.9921 300.616 82.1008C301.98 81.37 303.506 80.2746 302.838 78.9474C302.636 78.546 302.082 77.8817 301.445 77.7593C300.846 77.6437 300.309 78.0297 299.762 78.1187C298.934 78.2535 299.12 77.7776 299.043 77.313C298.983 76.947 298.919 76.5811 298.857 76.2148C298.726 75.4464 298.598 74.6773 298.501 73.9061C298.103 70.7113 298.29 67.5186 298.286 64.3186C298.284 62.7166 298.805 61.3121 299.329 59.7687C299.607 58.9499 299.867 58.1277 300.111 57.3037C300.247 56.8457 300.404 56.3429 300.218 55.8793C299.801 54.8401 297.725 54.5528 296.495 54.2569C295.438 54.0024 294.365 53.7813 293.271 53.6254C292.671 53.5402 291.069 53.6068 290.681 53.2477C290.298 52.8925 290.722 51.7392 290.761 51.3163C290.833 50.5375 290.909 49.7594 291.053 48.9851C291.284 47.7363 291.259 46.5781 289.861 45.6648C290.733 45.1695 291.352 44.1186 290.084 43.6623C288.626 43.1371 286.675 43.0608 285.135 43.3364C283.45 43.6379 281.601 43.6417 279.876 43.7734C278.041 43.9131 276.21 44.0831 274.378 44.248C271.227 44.5322 268.017 44.5946 264.904 45.0506C263.346 45.2785 261.786 45.452 260.214 45.629C258.587 45.8117 257.606 45.9673 256.632 46.9461C254.786 48.8027 253.081 50.7052 252.045 52.8725C251.063 54.9257 250.605 57.083 250.332 59.2369C250.039 61.5584 249.972 63.8733 250.009 66.2028C250.046 68.5453 249.992 70.8893 250.402 73.2194Z" fill="#3F3F3F"/>
<path fill-rule="evenodd" clip-rule="evenodd" d="M141.963 69.7547C142.776 69.4306 143.606 69.1315 144.433 68.8275C146.184 68.1828 147.908 67.4944 149.68 66.8809C150.481 66.6034 151.319 66.4265 152.142 66.1934C153.017 65.9461 153.853 65.6195 154.692 65.3122C156.456 64.6658 158.26 64.1088 160.092 63.5837C160.653 63.4229 161.215 63.2648 161.778 63.1072C162.21 62.9864 162.735 62.7544 163.185 62.7146C163.897 62.6513 164.432 63.2015 164.918 63.5325C167.538 65.3182 169.388 67.9657 170.514 70.4693C171.128 71.8355 171.407 73.2461 171.735 74.6626C172.071 76.1144 172.427 77.5354 172.44 79.0117C172.454 80.5125 172.657 81.9921 172.569 83.4964C172.537 84.0575 172.67 85.0665 172.263 85.5556C171.849 86.051 170.813 86.1895 170.146 86.3724C166.5 87.3735 162.858 88.451 159.159 89.3318C155.31 90.2479 151.47 91.1792 147.632 92.1217C147.788 91.295 147.971 90.4687 148.093 89.6391C148.209 88.8577 148.123 88.0494 148.114 87.2642C148.094 85.5387 148.019 83.8228 147.562 82.1273C146.731 79.0482 145.388 76.0165 143.135 73.3586C142.608 72.736 141.978 72.1681 141.351 71.6026C141.127 71.4003 140.376 70.9216 140.402 70.6103C140.438 70.2021 141.574 69.9099 141.963 69.7547ZM185.713 69.4202C186.555 69.4494 187.099 69.5958 187.158 70.2779C187.232 71.1473 187.216 72.0279 187.257 72.8993C187.336 74.5659 187.415 76.233 187.358 77.901C187.256 80.8227 186.845 83.7402 185.664 86.5325C185.093 87.8822 184.409 89.2089 183.671 90.511C182.954 91.7743 181.942 92.9104 181.046 94.1001C180.604 94.6855 180.109 95.1609 179.501 95.6525C179.213 95.8856 179.081 96.0099 178.673 96.0497C178.26 96.0898 177.74 96.0091 177.325 95.9865C175.373 95.8801 173.422 95.7335 171.467 95.662C169.528 95.5914 167.582 95.6533 165.646 95.5852C164.736 95.553 163.88 95.3292 162.985 95.2201C162.085 95.1102 161.174 95.062 160.269 94.9846C159.802 94.9447 159.813 95.0282 159.743 94.7067C159.704 94.5355 159.77 94.3142 159.782 94.1389C159.805 93.8011 159.828 93.463 159.855 93.1255C159.879 92.8237 159.799 92.294 159.96 92.0085C160.104 91.7544 160.412 91.7103 160.733 91.6437C162.536 91.2691 164.278 90.8054 166.012 90.2759C167.781 89.7361 169.572 89.226 171.321 88.6489C172.075 88.4002 172.926 88.1726 173.497 87.7034C173.965 87.3187 174.234 86.8242 174.441 86.3321C175.581 83.6248 175.223 80.5051 174.889 77.7167C174.546 74.8502 174.005 71.9085 172.619 69.2138C176.981 69.2138 181.355 69.2686 185.713 69.4202ZM137.023 71.8984C138.234 72.2422 138.998 73.0435 139.704 73.8159C140.582 74.7788 141.411 75.7524 142.1 76.8031C143.545 79.0108 144.499 81.4435 145.044 83.8697C145.565 86.1857 145.823 88.7683 145.224 91.0917C145.063 91.713 144.645 92.2114 144.411 92.8C144.254 93.1956 144.363 93.7708 144.505 94.1639C144.708 94.7277 145.411 94.5355 145.996 94.4442C146.85 94.3109 147.704 94.1789 148.557 94.0429C151.773 93.529 154.957 92.635 158.231 92.4543C157.952 93.1135 157.796 93.7116 157.234 94.2768C156.707 94.8054 156.006 95.2635 155.703 95.9003C155.451 96.4309 155.402 97.1738 155.659 97.7122C155.929 98.2777 156.588 98.2858 157.281 98.3494C159.227 98.5282 161.142 98.7709 163.105 98.8518C163.527 98.869 163.948 98.905 164.364 98.8445C164.699 98.7957 164.935 98.7199 165.273 98.7673C165.722 98.8297 166.118 98.9936 166.589 99.0301C167.032 99.0645 167.479 99.0536 167.924 99.041C169.567 98.9944 171.174 99.1242 172.819 99.0029C173.298 98.9674 174.199 98.7616 174.647 98.9691C175.12 99.1883 174.749 99.6307 174.985 99.935C175.295 100.335 176.362 100.13 176.878 100.108C177.614 100.078 178.267 99.9792 178.927 99.7218C180.262 99.2019 181.468 98.5097 182.449 97.6463C183.476 96.743 184.221 95.6879 184.955 94.6402C185.721 93.5478 186.489 92.481 187.068 91.3207C187.66 90.1353 188.24 88.9125 188.576 87.6688C188.91 86.4269 189.123 85.1658 189.439 83.9204C189.769 82.6213 189.827 81.2974 189.914 79.9795C190.004 78.6131 190.044 77.2704 189.931 75.9037C189.82 74.5612 189.624 73.2444 189.417 71.9104C189.363 71.5694 189.391 71.2163 189.319 70.8785C189.271 70.6517 189.114 70.4363 189.097 70.2059C189.063 69.7479 189.617 69.4535 189.603 68.9745C189.57 67.8619 188.007 67.4477 186.846 67.1816C185.336 66.8357 183.652 66.6271 182.074 66.713C178.677 66.8978 175.205 66.9218 171.984 67.8608C170.315 65.6944 168.76 63.3444 166.028 61.825C165.72 61.6532 165.386 61.5363 165.186 61.283C165.016 61.0657 164.941 60.8479 164.713 60.6521C164.152 60.1707 163.461 60.111 162.676 60.2369C160.969 60.5106 159.337 60.8105 157.719 61.3002C157 61.5175 156.237 61.6197 155.515 61.8321C154.821 62.036 154.158 62.292 153.491 62.5409C152.031 63.0862 150.521 63.5491 149.063 64.0987C146.134 65.2029 143.238 66.3602 140.542 67.7703C139.239 68.4516 137.746 69.156 136.642 70.0208C136.156 70.4017 135.936 70.8821 136.016 71.4077C136.1 71.9543 136.47 71.7414 137.023 71.8984Z" fill="#3F3F3F"/>
<path fill-rule="evenodd" clip-rule="evenodd" d="M116.76 135.849C115.356 137.212 113.955 138.561 112.702 140.008C111.44 141.464 110.237 142.949 109.002 144.418C107.812 145.835 106.482 147.211 105.525 148.731C104.972 149.607 104.919 150.761 103.402 150.72C101.397 150.667 99.4986 150.234 97.7326 149.526C94.1927 148.107 91.2467 146.113 89.0363 143.585C86.7427 140.961 84.9621 137.993 83.6726 135.009C82.9594 133.358 82.3877 131.676 81.8712 129.985C81.6086 129.127 81.3278 128.287 81.3258 127.401C81.3243 127.012 81.3562 126.623 81.3831 126.234C81.4079 125.866 81.6791 125.224 81.119 125.199C81.2863 124.142 81.4464 123.085 81.6183 122.028C81.7424 121.265 81.7343 120.409 82.6203 119.904C83.4678 119.419 84.7978 119.403 85.7964 119.233C87.0042 119.026 88.202 118.785 89.3865 118.51C91.8165 117.947 94.142 117.202 96.4873 116.468C97.6576 116.101 98.8295 115.728 99.9345 115.256C100.847 114.865 101.502 114.297 102.121 115.188C106.336 121.256 109.414 128.056 116.314 132.764C116.873 133.144 117.786 133.602 117.868 134.225C117.947 134.833 117.206 135.416 116.76 135.849ZM122.308 131.56C121.336 131.056 120.129 130.972 119.142 130.507C118.01 129.973 117.262 128.771 116.489 127.97C114.645 126.058 112.798 124.135 111.133 122.13C109.621 120.31 108.253 118.423 106.801 116.576C106.057 115.63 105.289 114.708 104.413 113.828C104.04 113.454 103.093 112.132 102.295 112.181C101.884 112.207 101.901 112.509 101.606 112.606C101.454 112.656 101.332 112.601 101.184 112.617C100.65 112.671 100.07 112.466 99.5199 112.507C98.1609 112.607 96.689 113.038 95.3813 113.336C92.6508 113.958 90.0465 114.834 87.3616 115.553C84.7 116.266 81.7277 116.742 79.2953 117.851C78.3348 118.289 77.2501 118.99 78.1933 119.848C78.5512 120.173 79.0418 120.165 79.4139 120.417C79.7281 120.629 79.5882 120.747 79.5158 121.101C79.4742 121.304 79.4316 121.506 79.3901 121.709C78.9547 123.839 78.5983 125.972 78.9911 128.122C79.3885 130.294 79.9912 132.459 80.7971 134.565C83.3416 141.217 87.8933 149.111 96.8375 152.058C98.9283 152.747 101.008 152.91 103.214 153.221C103.907 153.319 104.495 153.556 105.111 153.797C105.406 153.912 105.771 154.098 106.126 154.065C106.935 153.989 107.601 153.039 107.979 152.59C109.407 150.893 111.027 149.3 112.51 147.631C113.277 146.767 114.003 145.881 114.632 144.955C114.996 144.419 115.256 143.53 116.257 143.55C116.526 143.822 116.797 144.094 117.066 144.367C117.175 144.476 117.337 144.597 117.416 144.719C117.615 145.026 117.599 144.798 117.517 145.162C117.411 145.626 116.841 146.151 116.482 146.517C114.377 148.666 112.18 150.763 109.974 152.852C107.806 154.905 105.592 156.944 103.052 158.743C102.538 159.107 101.975 159.551 101.223 159.575C100.529 159.598 99.7687 159.323 99.0799 159.232C97.5826 159.035 96.0448 158.99 94.5845 158.648C93.8252 158.47 93.1906 158.138 92.4044 158.098C91.743 158.063 91.2924 157.98 90.7125 157.716C89.4007 157.117 87.9425 156.788 86.616 156.223C83.8804 155.058 81.0536 153.326 79.0484 151.498C78.0093 150.551 77.1568 149.496 76.137 148.537C75.146 147.604 74.1678 146.678 73.301 145.675C71.5919 143.697 70.2319 141.553 69.1979 139.324C68.6606 138.166 68.393 137.409 69.7291 136.562C70.9892 135.763 72.1692 134.928 73.2189 133.968C73.7293 133.5 76.0589 131.782 74.3148 131.497C73.37 131.342 71.8615 132.546 71.1514 132.982C69.9952 133.693 68.8619 134.382 67.5242 134.891C66.0097 135.467 65.9818 136.199 66.0036 137.396C66.0493 139.863 67.2652 142.266 68.5258 144.519C69.8219 146.833 71.4545 149.031 73.4075 151.065C77.1436 154.956 81.3227 158.902 87.131 161.079C90.0024 162.155 93.1044 162.723 96.2774 162.991C98.1513 163.15 100.04 163.205 101.924 163.17C102.719 163.155 103.758 163.236 104.521 163.054C105.14 162.905 105.241 162.559 105.464 162.135C105.995 161.131 107.382 160.586 108.32 159.781C109.321 158.921 110.371 158.112 111.401 157.273C113.633 155.455 115.11 153.316 116.902 151.264C117.894 150.128 118.967 149.017 119.833 147.822C120.533 146.853 121.403 145.58 121.648 144.488C121.841 143.616 120.913 142.35 119.636 142.302C118.97 142.276 118.437 142.672 117.781 142.723C117.585 142.739 116.913 142.637 116.677 142.71C117.75 140.742 119.34 138.889 120.545 136.973C121.225 135.893 121.869 134.8 122.467 133.693C122.923 132.85 123.464 132.159 122.308 131.56Z" fill="#3F3F3F"/>
<path fill-rule="evenodd" clip-rule="evenodd" d="M88.9577 173.919C86.3344 173.146 84.3801 172.584 81.8426 171.117C80.0647 170.09 78.3636 168.959 76.6079 167.903C72.0805 165.181 67.9762 162.167 64.2234 158.877C60.8119 155.885 57.7535 152.815 55.3331 149.566C54.0556 147.853 52.9853 146.139 51.9529 144.416C51.2133 143.181 50.4713 142.158 48.8459 141.18C48.5824 142.782 48.542 144.13 49.0634 145.973C49.4827 147.451 50.056 148.958 50.7886 150.478C52.2867 153.582 54.4639 156.726 57.1883 159.76C59.8654 162.742 63.057 165.741 66.6995 168.302C68.7321 169.732 70.8818 171.061 72.9791 172.431C74.9597 173.725 76.8815 174.991 79.1076 175.912C81.1903 176.774 83.3225 177.807 85.4358 178.477C87.1056 179.006 88.8569 179.195 90.4294 179.354C93.495 179.664 92.3884 174.931 88.9577 173.919Z" fill="#3F3F3F"/>
<path fill-rule="evenodd" clip-rule="evenodd" d="M244.755 39.4909C243.996 41.0743 244.89 43.5551 246.558 42.762C248.089 42.037 249.416 40.8235 250.666 39.6096C251.941 38.3711 253.649 37.9099 255.226 37.2916C258.993 35.8173 262.734 34.6417 266.815 34.2177C270.743 33.8079 274.598 33.0634 278.56 32.8145C282.448 32.5696 286.448 33.2322 290.35 33.1179C291.556 33.0834 293.759 32.6064 293.254 30.4518C292.834 28.6602 290.63 28.3155 289.522 27.9658C285.833 26.8011 282.298 25.3839 278.607 25.2391C275.282 25.108 271.875 25.3346 268.709 26.0161C265.39 26.7301 262.22 27.9562 258.958 28.855C255.426 30.6089 251.269 31.8708 248.303 34.7062C246.968 35.9843 245.628 37.673 244.755 39.4909Z" fill="#3F3F3F"/>
<path fill-rule="evenodd" clip-rule="evenodd" d="M277.3 12.4691C276.233 12.1422 275.123 11.8693 273.92 11.7301C271.593 11.4633 269.019 11.5483 266.244 12.0507C261.664 12.8791 256.324 14.6688 251.153 17.2269C249.448 18.0703 245.146 19.9574 243.916 22.0271C242.235 24.858 246.678 23.2348 248.011 22.7265C250.762 21.6794 253.509 20.6498 256.27 19.5704C259.04 18.4879 261.563 18.1397 264.1 17.6335C266.656 17.1237 269.19 16.6621 271.65 16.345C272.923 16.18 274.132 16.1352 275.4 15.9761C276.497 15.8386 277.737 15.2515 278.933 14.8606C279.434 14.0456 279.385 14.1493 279.26 13.6893C279.206 13.4918 278.927 13.2615 278.807 13.1517C278.414 12.789 277.857 12.6389 277.3 12.4691Z" fill="#3F3F3F"/>
<path fill-rule="evenodd" clip-rule="evenodd" d="M334.207 143.289C334.713 144.303 335.89 144.064 336.632 143.544C338.887 141.964 341.048 140.204 343.131 138.466C345.244 136.701 347.218 134.883 349.538 133.299C351.872 131.706 354.252 130.15 356.65 128.623C365.609 122.914 374.738 117.41 384.364 112.495C386.717 111.294 389.122 110.14 391.407 108.852C392.412 108.285 393.621 107.673 393.784 106.549C393.901 105.747 393.454 104.651 392.691 104.091C391.031 102.875 388.193 104.58 386.692 105.136C385.545 105.562 384.375 105.681 383.196 105.987C382.165 106.255 381.09 106.758 380.165 107.212C378.085 108.234 375.901 109.026 373.803 110.008C371.672 111.005 369.725 112.24 367.622 113.274C365.373 114.38 363.018 115.255 360.95 116.604C358.91 117.936 357.113 119.468 355.006 120.742C350.52 123.452 346.656 126.735 342.668 129.931C340.748 131.469 339.184 133.254 337.734 135.126C337.011 136.059 336.293 136.997 335.598 137.945C334.939 138.844 334.715 139.844 334.306 140.838C334.575 140.934 334.004 142.884 334.207 143.289Z" fill="#3F3F3F"/>
<path fill-rule="evenodd" clip-rule="evenodd" d="M347.034 114.114C352.105 110.613 357.668 107.654 362.455 103.923C363.66 102.985 364.592 102.436 363.548 101.153C362.851 100.297 362.052 99.8625 360.875 100.449C358.063 101.852 355.384 103.575 352.674 105.106C347.117 108.242 341.355 111.317 336.339 114.955C334.068 116.602 331.97 118.393 330.207 120.37C328.356 122.443 326.959 124.546 329.027 126.87C335.054 122.641 340.966 118.304 347.034 114.114Z" fill="#3F3F3F"/>
<path d="M366.68 180.759C367.139 180.204 368.409 179.687 369.478 179.252C369.915 179.074 370.319 178.91 370.62 178.762C372.036 178.068 373.431 177.359 374.797 176.608C377.272 175.246 379.001 176.141 381.197 177.446C385.255 179.856 386.884 183.093 386.58 186.923C386.582 187.132 386.597 187.367 386.614 187.617C386.684 188.707 386.774 190.085 385.855 190.835C385.057 191.488 383.621 191.61 382.351 191.719C381.904 191.757 381.477 191.794 381.105 191.851C380.421 191.957 379.609 192.265 378.759 192.588C377.29 193.147 375.708 193.749 374.482 193.414C373.189 193.062 373.231 191.635 373.263 190.527C373.274 190.182 373.283 189.868 373.251 189.626C372.995 187.725 372.165 185.885 370.633 184.35C369.845 183.56 368.901 182.889 367.863 182.289C367.723 182.207 367.575 182.131 367.431 182.057C366.757 181.71 366.151 181.397 366.68 180.759ZM359.242 186.512C360.62 186.695 362.036 187.14 363.358 187.556C363.569 187.622 363.777 187.688 363.982 187.751C364.192 187.816 364.416 187.88 364.646 187.946C365.501 188.191 366.441 188.46 367.072 188.889C367.986 189.51 368.017 190.377 368.047 191.243C368.061 191.636 368.075 192.028 368.171 192.397C368.221 192.587 368.292 192.77 368.362 192.95C368.547 193.425 368.725 193.88 368.482 194.4C368.261 194.876 367.794 195.128 367.325 195.381C366.968 195.574 366.609 195.768 366.356 196.062C365.502 197.059 366.604 198.467 367.342 199.318C368.353 200.483 369.656 200.258 371.131 200.003C371.524 199.935 371.929 199.865 372.343 199.818C372.985 199.746 373.632 199.689 374.279 199.631C376.029 199.474 377.782 199.317 379.454 198.881C379.876 198.772 380.28 198.629 380.671 198.492C382.012 198.021 383.189 197.607 384.291 198.767C384.395 198.877 384.482 198.984 384.564 199.083C384.9 199.493 385.135 199.779 385.976 199.61C386.656 199.474 387.346 198.893 387.899 198.426C388.053 198.296 388.196 198.176 388.325 198.076C392.042 195.206 392.928 191.285 392.989 187.416C393.167 183.12 391.12 179.084 388.218 175.453C388.129 175.342 388.04 175.228 387.95 175.113C387.423 174.44 386.863 173.723 386.085 173.217C385.696 172.964 385.257 172.778 384.818 172.593C384.254 172.355 383.692 172.117 383.241 171.738C382.762 171.336 382.519 170.768 382.277 170.204C381.916 169.358 381.557 168.52 380.412 168.254C378.689 167.853 376.318 169.162 374.718 170.045C374.451 170.193 374.206 170.328 373.989 170.442C371.845 171.562 369.748 172.729 367.686 173.93C366.43 174.661 365.133 175.383 363.827 176.109C360.537 177.941 357.194 179.801 354.333 181.907C352.978 182.905 352.425 184.668 353.784 185.859C354.684 186.647 356.007 186.575 357.312 186.505C357.979 186.468 358.643 186.432 359.242 186.512Z" fill="#3F3F3F"/>
<path d="M366.68 180.759C367.139 180.204 368.409 179.687 369.478 179.252C369.915 179.074 370.319 178.91 370.62 178.762C372.036 178.068 373.431 177.359 374.797 176.608C377.272 175.246 379.001 176.141 381.197 177.446C385.255 179.856 386.884 183.093 386.58 186.923C386.582 187.132 386.597 187.367 386.614 187.617C386.684 188.707 386.774 190.085 385.855 190.835C385.057 191.488 383.621 191.61 382.351 191.719C381.904 191.757 381.477 191.794 381.105 191.851C380.421 191.957 379.609 192.265 378.759 192.588C377.29 193.147 375.708 193.749 374.482 193.414C373.189 193.062 373.231 191.635 373.263 190.527C373.274 190.182 373.283 189.868 373.251 189.626C372.995 187.725 372.165 185.885 370.633 184.35C369.845 183.56 368.901 182.889 367.863 182.289C367.723 182.207 367.575 182.131 367.431 182.057C366.757 181.71 366.151 181.397 366.68 180.759ZM359.242 186.512C360.62 186.695 362.036 187.14 363.358 187.556C363.569 187.622 363.777 187.688 363.982 187.751C364.192 187.816 364.416 187.88 364.646 187.946C365.501 188.191 366.441 188.46 367.072 188.889C367.986 189.51 368.017 190.377 368.047 191.243C368.061 191.636 368.075 192.028 368.171 192.397C368.221 192.587 368.292 192.77 368.362 192.95C368.547 193.425 368.725 193.88 368.482 194.4C368.261 194.876 367.794 195.128 367.325 195.381C366.968 195.574 366.609 195.768 366.356 196.062C365.502 197.059 366.604 198.467 367.342 199.318C368.353 200.483 369.656 200.258 371.131 200.003C371.524 199.935 371.929 199.865 372.343 199.818C372.985 199.746 373.632 199.689 374.279 199.631C376.029 199.474 377.782 199.317 379.454 198.881C379.876 198.772 380.28 198.629 380.671 198.492C382.012 198.021 383.189 197.607 384.291 198.767C384.395 198.877 384.482 198.984 384.564 199.083C384.9 199.493 385.135 199.779 385.976 199.61C386.656 199.474 387.346 198.893 387.899 198.426C388.053 198.296 388.196 198.176 388.325 198.076C392.042 195.206 392.928 191.285 392.989 187.416C393.167 183.12 391.12 179.084 388.218 175.453C388.129 175.342 388.04 175.228 387.95 175.113C387.423 174.44 386.863 173.723 386.085 173.217C385.696 172.964 385.257 172.778 384.818 172.593C384.254 172.355 383.692 172.117 383.241 171.738C382.762 171.336 382.519 170.768 382.277 170.204C381.916 169.358 381.557 168.52 380.412 168.254C378.689 167.853 376.318 169.162 374.718 170.045C374.451 170.193 374.206 170.328 373.989 170.442C371.845 171.562 369.748 172.729 367.686 173.93C366.43 174.661 365.133 175.383 363.827 176.109C360.537 177.941 357.194 179.801 354.333 181.907C352.978 182.905 352.425 184.668 353.784 185.859C354.684 186.647 356.007 186.575 357.312 186.505C357.979 186.468 358.643 186.432 359.242 186.512Z" stroke="black"/>
</svg>
