<svg width="40" height="41" viewBox="0 0 40 41" fill="none" xmlns="http://www.w3.org/2000/svg">
<path d="M25.5553 9.54785H14.4442C11.376 9.54785 8.88867 12.0624 8.88867 15.1643V26.3972C8.88867 29.499 11.376 32.0136 14.4442 32.0136H25.5553C28.6236 32.0136 31.1109 29.499 31.1109 26.3972V15.1643C31.1109 12.0624 28.6236 9.54785 25.5553 9.54785Z" stroke="#61B3FF" stroke-width="2" stroke-linecap="round" stroke-linejoin="round"/>
<path d="M24.4443 20.0731C24.5815 21.0079 24.4235 21.9627 23.993 22.8016C23.5624 23.6405 22.8812 24.3207 22.0461 24.7456C21.2111 25.1705 20.2648 25.3184 19.3419 25.1683C18.4189 25.0181 17.5663 24.5776 16.9053 23.9093C16.2442 23.241 15.8085 22.3791 15.66 21.446C15.5115 20.5129 15.6577 19.5563 16.078 18.7121C16.4983 17.8679 17.1712 17.1792 18.001 16.7439C18.8308 16.3087 19.7752 16.149 20.6999 16.2876C21.6431 16.429 22.5164 16.8734 23.1907 17.555C23.8649 18.2367 24.3045 19.1195 24.4443 20.0731Z" stroke="#61B3FF" stroke-width="2" stroke-linecap="round" stroke-linejoin="round"/>
<path d="M26.1113 14.6028H26.1242" stroke="#61B3FF" stroke-width="2" stroke-linecap="round" stroke-linejoin="round"/>
<path d="M39 20.5C39 31.293 30.4703 40 20 40C9.52972 40 1 31.293 1 20.5C1 9.70703 9.52972 1 20 1C30.4703 1 39 9.70703 39 20.5Z" stroke="#61AFFF" stroke-width="2"/>
</svg>
