<svg width="64" height="62" viewBox="0 0 64 62" fill="none" xmlns="http://www.w3.org/2000/svg">
<ellipse cx="32" cy="31" rx="32" ry="31" fill="#61B3FF" fill-opacity="0.24"/>
<path d="M32.5 16V42" stroke="#61B3FF" stroke-width="2" stroke-linecap="round" stroke-linejoin="round"/>
<path d="M42.0833 20.7272H27.7083C25.9292 20.7272 24.2229 21.163 22.9648 21.9387C21.7068 22.7144 21 23.7665 21 24.8635C21 25.9606 21.7068 27.0127 22.9648 27.7884C24.2229 28.5641 25.9292 28.9999 27.7083 28.9999H37.2917C39.0708 28.9999 40.7771 29.4357 42.0352 30.2114C43.2932 30.9871 44 32.0392 44 33.1363C44 34.2333 43.2932 35.2854 42.0352 36.0611C40.7771 36.8368 39.0708 37.2726 37.2917 37.2726H21" stroke="#61B3FF" stroke-width="2" stroke-linecap="round" stroke-linejoin="round"/>
</svg>
